<svg width="267" height="77" viewBox="0 0 267 77" fill="none" xmlns="http://www.w3.org/2000/svg">
<path d="M142.4 76.1004H141.2V66.9004H144.8C145.4 66.9004 146 67.0004 146.4 67.2004C146.8 67.4004 147.2 67.7004 147.5 68.1004C147.8 68.5004 147.9 69.0004 147.9 69.5004C147.9 70.0004 147.8 70.5004 147.5 70.9004C147.2 71.3004 146.9 71.6004 146.4 71.8004C145.9 72.0004 145.4 72.1004 144.8 72.1004H142.3V71.0004H144.8C145.4 71.0004 145.8 70.9004 146.2 70.6004C146.6 70.3004 146.7 69.9004 146.7 69.4004C146.7 68.9004 146.5 68.5004 146.2 68.2004C145.9 67.9004 145.4 67.8004 144.8 67.8004H142.4V76.1004Z" fill="white"/>
<path d="M156.9 66.9004V72.5004C156.9 73.7004 156.6 74.6004 155.9 75.3004C155.2 76.0004 154.3 76.3004 153.1 76.3004C151.9 76.3004 151 76.0004 150.3 75.3004C149.6 74.6004 149.3 73.7004 149.3 72.5004V66.9004H150.5V72.5004C150.5 73.4004 150.7 74.1004 151.2 74.5004C151.7 74.9004 152.3 75.2004 153.1 75.2004C153.9 75.2004 154.5 75.0004 155 74.5004C155.5 74.0004 155.7 73.4004 155.7 72.5004V66.9004H156.9Z" fill="white"/>
<path d="M158.9 76.1004V66.9004H162.5C163.1 66.9004 163.6 67.0004 164.1 67.2004C164.6 67.4004 164.9 67.7004 165.1 68.0004C165.3 68.4004 165.5 68.8004 165.5 69.3004C165.5 69.7004 165.4 70.1004 165.1 70.5004C164.9 70.9004 164.5 71.1004 164.1 71.3004C163.7 71.5004 163.1 71.6004 162.5 71.6004H160.3V71.0004H162.7C163.3 71.0004 163.9 71.1004 164.3 71.3004C164.8 71.5004 165.1 71.8004 165.4 72.2004C165.7 72.6004 165.8 73.0004 165.8 73.5004C165.8 74.0004 165.7 74.5004 165.4 74.9004C165.1 75.3004 164.8 75.6004 164.3 75.8004C163.8 76.0004 163.3 76.1004 162.7 76.1004H158.9ZM160.1 75.0004H162.7C163.3 75.0004 163.7 74.9004 164.1 74.6004C164.5 74.3004 164.6 73.9004 164.6 73.4004C164.6 72.9004 164.4 72.5004 164.1 72.2004C163.8 71.9004 163.3 71.8004 162.7 71.8004H160V70.8004H162.4C162.9 70.8004 163.3 70.7004 163.7 70.4004C164.1 70.1004 164.2 69.8004 164.2 69.3004C164.2 68.8004 164.1 68.5004 163.7 68.3004C163.4 68.1004 163 67.9004 162.4 67.9004H160.1V75.0004Z" fill="white"/>
<path d="M173.3 76.1004H167.5V66.9004H168.7V75.0004H173.3V76.1004Z" fill="white"/>
<path d="M176 76.1004H174.8V66.9004H176V76.1004Z" fill="white"/>
<path d="M177.5 74.6002L178.4 73.7002C178.6 74.0002 178.9 74.3002 179.3 74.5002C179.7 74.7002 180 74.9002 180.4 75.0002C180.8 75.1002 181.2 75.2002 181.6 75.2002C182.1 75.2002 182.5 75.1002 182.8 75.0002C183.1 74.9002 183.4 74.7002 183.7 74.4002C183.9 74.2002 184 73.9002 184 73.5002C184 73.1002 183.8 72.7002 183.4 72.5002C183 72.3002 182.4 72.1002 181.4 71.9002C180.6 71.8002 179.9 71.6002 179.4 71.4002C178.9 71.2002 178.5 70.9002 178.3 70.6002C178.1 70.3002 177.9 69.9002 177.9 69.4002C177.9 68.9002 178 68.4002 178.3 68.0002C178.6 67.6002 179 67.3002 179.5 67.0002C180 66.8002 180.6 66.7002 181.3 66.7002C182.1 66.7002 182.8 66.8002 183.4 67.2002C184 67.5002 184.5 67.9002 185 68.4002L184.1 69.2002C183.7 68.8002 183.3 68.4002 182.9 68.1002C182.5 67.8002 181.9 67.7002 181.3 67.7002C180.7 67.7002 180.1 67.8002 179.7 68.1002C179.3 68.4002 179.1 68.8002 179.1 69.2002C179.1 69.4002 179.2 69.7002 179.3 69.8002C179.4 69.9002 179.7 70.1002 180.1 70.2002C180.5 70.3002 180.9 70.4002 181.5 70.5002C182.4 70.6002 183.1 70.8002 183.6 71.0002C184.1 71.2002 184.5 71.5002 184.8 71.9002C185 72.3002 185.2 72.7002 185.2 73.2002C185.2 73.8002 185 74.2002 184.7 74.7002C184.4 75.1002 183.9 75.5002 183.4 75.7002C182.8 75.9002 182.2 76.1002 181.5 76.1002C180.6 76.1002 179.9 76.0002 179.2 75.6002C178.5 75.6002 178 75.1002 177.5 74.6002Z" fill="white"/>
<path d="M188.1 76.1004H186.9V66.9004H188.1V76.1004ZM188 71.9004V70.8004H193.3V71.9004H188ZM193.1 76.1004V66.9004H194.3V76.1004H193.1Z" fill="white"/>
<path d="M197.7 76.1004H196.5V66.9004H197.7V76.1004Z" fill="white"/>
<path d="M200.9 76.1004H199.7V66.9004H201L206.4 74.8004H206V66.9004H207.2V76.1004H205.9L200.5 68.2004H200.9V76.1004Z" fill="white"/>
<path d="M217.8 76.1003H216.6V74.8003L216.7 74.9003C216.4 75.4003 216 75.7003 215.4 76.0003C214.9 76.3003 214.3 76.4003 213.6 76.4003C212.9 76.4003 212.3 76.3003 211.7 76.0003C211.1 75.7003 210.6 75.4003 210.2 75.0003C209.8 74.6003 209.4 74.1003 209.2 73.5003C209 72.9003 208.8 72.3003 208.8 71.6003C208.8 70.9003 208.9 70.3003 209.2 69.7003C209.4 69.1003 209.8 68.6003 210.2 68.2003C210.6 67.8003 211.1 67.4003 211.7 67.2003C212.3 67.0003 212.9 66.8003 213.6 66.8003C214.4 66.8003 215.1 67.0003 215.8 67.3003C216.5 67.6003 217 68.0003 217.4 68.6003L216.5 69.4003C216.2 69.0003 215.8 68.6003 215.3 68.3003C214.8 68.0003 214.2 67.9003 213.6 67.9003C213 67.9003 212.3 68.1003 211.8 68.4003C211.3 68.7003 210.9 69.2003 210.6 69.7003C210.3 70.2003 210.2 70.9003 210.2 71.6003C210.2 72.3003 210.3 73.0003 210.6 73.5003C210.9 74.0003 211.3 74.5003 211.8 74.8003C212.3 75.1003 212.9 75.3003 213.6 75.3003C214.3 75.3003 214.9 75.2003 215.4 74.9003C215.9 74.6003 216.3 74.2003 216.5 73.7003L216.4 74.2003V72.4003H213.5V71.4003H217.6L217.8 76.1003Z" fill="white"/>
<path d="M223.3 76.1004H222.1V66.9004H223.3V76.1004ZM223.2 71.9004V70.8004H228.5V71.9004H223.2ZM228.4 76.1004V66.9004H229.6V76.1004H228.4Z" fill="white"/>
<path d="M236.2 76.3002C235.5 76.3002 234.9 76.2002 234.3 75.9002C233.7 75.6002 233.2 75.3002 232.8 74.9002C232.4 74.5002 232 74.0002 231.8 73.4002C231.6 72.8002 231.4 72.2002 231.4 71.5002C231.4 70.8002 231.5 70.2002 231.8 69.6002C232 69.0002 232.4 68.5002 232.8 68.1002C233.2 67.7002 233.7 67.3002 234.3 67.1002C234.9 66.9002 235.5 66.7002 236.2 66.7002C236.9 66.7002 237.5 66.8002 238.1 67.1002C238.7 67.4002 239.2 67.7002 239.6 68.1002C240 68.5002 240.4 69.0002 240.6 69.6002C240.8 70.2002 241 70.8002 241 71.5002C241 72.2002 240.9 72.8002 240.6 73.4002C240.3 74.0002 240 74.5002 239.6 74.9002C239.2 75.3002 238.7 75.7002 238.1 75.9002C237.5 76.1002 236.8 76.3002 236.2 76.3002ZM236.2 75.2002C236.9 75.2002 237.5 75.0002 238 74.7002C238.5 74.4002 238.9 73.9002 239.2 73.4002C239.5 72.8002 239.6 72.2002 239.6 71.5002C239.6 70.8002 239.5 70.2002 239.2 69.6002C238.9 69.0002 238.5 68.6002 238 68.3002C237.5 68.0002 236.9 67.8002 236.2 67.8002C235.5 67.8002 234.9 68.0002 234.4 68.3002C233.9 68.6002 233.5 69.1002 233.2 69.6002C232.9 70.1002 232.8 70.8002 232.8 71.5002C232.8 72.2002 232.9 72.9002 233.2 73.4002C233.5 74.0002 233.9 74.4002 234.4 74.7002C234.9 75.0002 235.5 75.2002 236.2 75.2002Z" fill="white"/>
<path d="M250.1 66.9004V72.5004C250.1 73.7004 249.8 74.6004 249.1 75.3004C248.4 76.0004 247.5 76.3004 246.3 76.3004C245.1 76.3004 244.2 76.0004 243.5 75.3004C242.8 74.6004 242.5 73.7004 242.5 72.5004V66.9004H243.7V72.5004C243.7 73.4004 243.9 74.1004 244.4 74.5004C244.9 74.9004 245.5 75.2004 246.3 75.2004C247.1 75.2004 247.7 75.0004 248.2 74.5004C248.6 74.0004 248.9 73.4004 248.9 72.5004V66.9004H250.1Z" fill="white"/>
<path d="M251.4 74.6002L252.3 73.7002C252.5 74.0002 252.8 74.3002 253.2 74.5002C253.6 74.7002 253.9 74.9002 254.2 75.0002C254.6 75.1002 255 75.2002 255.4 75.2002C255.9 75.2002 256.3 75.1002 256.6 75.0002C256.9 74.9002 257.2 74.7002 257.5 74.4002C257.7 74.2002 257.8 73.9002 257.8 73.5002C257.8 73.1002 257.6 72.7002 257.2 72.5002C256.8 72.3002 256.2 72.1002 255.2 71.9002C254.4 71.8002 253.7 71.6002 253.2 71.4002C252.7 71.2002 252.3 70.9002 252.1 70.6002C251.9 70.3002 251.7 69.9002 251.7 69.4002C251.7 68.9002 251.8 68.4002 252.2 68.0002C252.5 67.6002 252.9 67.3002 253.4 67.0002C253.9 66.8002 254.5 66.7002 255.2 66.7002C256 66.7002 256.7 66.8002 257.3 67.2002C257.9 67.5002 258.4 67.9002 258.9 68.4002L258 69.2002C257.6 68.8002 257.2 68.4002 256.8 68.1002C256.3 67.8002 255.8 67.7002 255.2 67.7002C254.6 67.7002 254 67.8002 253.6 68.1002C253.2 68.4002 253 68.8002 253 69.2002C253 69.4002 253.1 69.7002 253.2 69.8002C253.3 70.0002 253.6 70.1002 254 70.2002C254.4 70.3002 254.8 70.4002 255.4 70.5002C256.3 70.6002 256.9 70.8002 257.5 71.0002C258.1 71.2002 258.4 71.5002 258.7 71.9002C258.9 72.3002 259.1 72.7002 259.1 73.2002C259.1 73.8002 258.9 74.2002 258.6 74.7002C258.3 75.1002 257.8 75.5002 257.3 75.7002C256.8 75.9002 256.1 76.1002 255.4 76.1002C254.5 76.1002 253.8 76.0002 253.1 75.6002C252.4 75.2002 251.9 75.1002 251.4 74.6002Z" fill="white"/>
<path d="M267 76.1004H260.8V66.9004H267V68.0004H262V75.1004H267V76.1004ZM266.8 72.0004H261.9V70.9004H266.8V72.0004Z" fill="white"/>
<path d="M134.3 53.5C133.6 53.1 133.2 52.5 133 51.6C132.9 50.8 132.8 48.4 132.8 44.5V34.5C132.8 31.1 132.6 28.7 132.2 27.1C131.8 25.6 130.7 24.2 129 23C127.2 21.8 125 21.2 122.5 21.2C120.3 21.2 118.1 21.8 115.9 23.1C113.7 24.3 111.6 26.2 109.6 28.7C108.9 26.2 107.7 24.3 106 23.1C104.3 21.9 102.1 21.2 99.3001 21.2C96.9001 21.2 94.6001 21.8 92.5001 23C90.4001 24.2 88.4001 25.9 86.6001 28.2C86.6001 25.4 86.2001 23 85.4001 21.2H85.0001C82.5001 22 79.3001 22.6 75.5001 23V24.9C77.4001 24.9 78.7001 25.1 79.4001 25.5C80.1001 25.9 80.5001 26.6 80.7001 27.4C80.8001 28.3 80.9001 30.6 80.9001 34.4V36.3C80.8001 37 80.2001 38.8 80.1001 39.2C79.7001 40.2 79.4001 41.3 78.9001 42.3C77.1001 45.8 74.6001 48.4 71.5001 50.7C69.4001 52.3 67.1001 53.5 64.4001 53.9C62.0001 54.2 59.7001 53.2 59.3001 50.3C59.1001 49.1 59.2001 47.9 59.5001 46.7C60.1001 43.6 61.3001 40.6 62.6001 37.7C64.3001 33.8 66.2001 30 67.7001 26.1C68.4001 24.3 69.1001 22.5 69.0001 20.5C68.9001 19.1 68.0001 18.2 66.7001 18C65.6001 17.8 64.6001 18 63.6001 18.3C61.5001 19 59.6001 20 57.7001 21.1C53.4001 23.6 49.4001 26.7 45.7001 30.1V0H44.8001C44.0001 0.4 42.4001 0.799998 40.2001 1.1C38.0001 1.5 36.0001 1.7 34.4001 1.7V3.6C36.8001 3.6 38.3001 4.1 38.9001 5C39.5001 5.9 39.8001 8.1 39.8001 11.6V36C37.9001 38.2 36.1001 40.6 34.6001 43.1C33.6001 44.8 33.0001 46.7 32.8001 48.7C32.5001 51.4 33.1001 53.7 33.8001 54.7C34.2001 55.4 34.8001 55.9 35.6001 55.9H51.5001V54H50.5001C48.8001 54 47.6001 53.8 46.9001 53.3C46.2001 52.8 45.8001 52.1 45.7001 51.2C45.6001 50.3 45.6001 48.1 45.6001 44.5V31.8C47.3001 30.3 49.1001 28.8 50.8001 27.4C54.1001 24.8 57.5001 21.8 61.9001 21.2C62.7001 21.1 63.5001 21.1 64.1001 21.8C64.6001 22.4 64.2001 23.1 63.9001 23.7C63.3001 25.1 62.6001 26.4 62.0001 27.8C60.0001 32.2 57.9001 36.5 56.6001 41.2C55.8001 44.1 55.2001 46.9 55.5001 50C55.8001 53.1 58.2001 55.6 61.3001 56C64.5001 56.4 67.3001 55.4 69.9001 53.8C74.1001 51.2 77.1001 47.3 79.4001 42.9C79.9001 42 80.2001 41.2 80.5001 40.7L81.0001 39.6V44.4C81.0001 48.4 80.9001 50.8 80.8001 51.6C80.6001 52.4 80.2001 53 79.5001 53.4C78.8001 53.8 77.5001 54 75.7001 54V55.9H91.8001V54C90.0001 54 88.7001 53.8 88.0001 53.3C87.3001 52.8 86.9001 52.2 86.8001 51.3C86.7001 50.4 86.6001 48.1 86.6001 44.5V30.7C88.4001 28.5 90.2001 26.9 91.9001 25.8C93.7001 24.7 95.4001 24.2 97.0001 24.2C98.6001 24.2 100.2 24.7 101.3 25.6C102.5 26.5 103.2 27.7 103.4 29C103.6 30.3 103.7 32.4 103.7 35.4V44.6C103.7 48.6 103.6 51 103.4 51.8C103.2 52.6 102.8 53.2 102.1 53.5C101.4 53.9 100.1 54.1 98.3001 54.1V56H114.4V54.1C112.7 54.1 111.5 53.9 110.8 53.3C110.1 52.7 109.8 52.1 109.7 51.2C109.6 50.3 109.6 48.1 109.6 44.5V31.5C111.4 29.1 113.2 27.3 114.9 26.1C116.6 24.9 118.4 24.3 120.2 24.3C121.9 24.3 123.3 24.7 124.4 25.5C125.5 26.3 126.2 27.3 126.4 28.4C126.7 29.5 126.8 31.2 126.8 33.5V44.6C126.8 48.6 126.7 51 126.6 51.8C126.4 52.6 126 53.2 125.3 53.6C124.6 54 123.3 54.2 121.6 54.2V56.1H138.2V54.2C136.3 54.1 135 53.9 134.3 53.5ZM39.6001 44.5C39.6001 48.4 39.5001 50.7 39.4001 51.5C39.3001 52.3 38.9001 52.9 38.2001 53.4C37.6001 53.8 36.8001 54 35.6001 54H35.5001C35.2001 54 34.9001 53.9 34.7001 53.7C34.2001 53.3 34.2001 52.6 34.0001 52C33.8001 51.2 33.7001 50.4 33.7001 49.7C33.7001 48.1 34.0001 46.6 34.7001 45.2C35.9001 42.5 37.7001 40.1 39.7001 37.8V44.5H39.6001Z" fill="white"/>
<path d="M151.7 21.3999H152.1C152.9 23.1999 153.3 25.4999 153.3 28.3999C155.1 26.0999 157.1 24.2999 159.2 23.1999C161.3 21.9999 163.6 21.3999 166 21.3999C168.7 21.3999 170.9 21.9999 172.7 23.2999C174.4 24.4999 175.6 26.3999 176.3 28.8999C178.4 26.3999 180.5 24.4999 182.6 23.2999C184.7 22.0999 187 21.3999 189.2 21.3999C191.8 21.3999 194 21.9999 195.7 23.1999C197.5 24.3999 198.6 25.6999 198.9 27.2999C199.2 28.8999 199.5 31.2999 199.5 34.6999V44.6999C199.5 48.5999 199.6 50.8999 199.7 51.7999C199.8 52.6999 200.3 53.2999 201 53.6999C201.7 54.0999 203.1 54.2999 205 54.2999V56.1999H188.4V54.2999C190.2 54.2999 191.4 54.0999 192.1 53.6999C192.8 53.2999 193.3 52.6999 193.4 51.8999C193.5 51.0999 193.6 48.6999 193.6 44.6999V33.4999C193.6 31.2999 193.5 29.5999 193.2 28.3999C192.9 27.2999 192.3 26.2999 191.2 25.4999C190.1 24.6999 188.7 24.2999 187 24.2999C185.3 24.2999 183.5 24.8999 181.7 26.0999C179.9 27.2999 178.1 29.0999 176.4 31.4999V44.5999C176.4 48.1999 176.5 50.3999 176.5 51.2999C176.6 52.1999 177 52.8999 177.6 53.3999C178.3 53.8999 179.5 54.1999 181.2 54.1999V56.0999H165.1V54.1999C166.9 54.1999 168.2 53.9999 168.9 53.5999C169.6 53.1999 170.1 52.5999 170.2 51.8999C170.3 51.1999 170.5 48.6999 170.5 44.6999V35.4999C170.5 32.5999 170.4 30.4999 170.1 29.0999C169.9 27.7999 169.2 26.6999 168 25.6999C166.8 24.7999 165.4 24.2999 163.7 24.2999C162 24.2999 160.3 24.7999 158.6 25.8999C156.8 26.9999 155.1 28.5999 153.3 30.7999V44.5999C153.3 48.1999 153.4 50.4999 153.5 51.3999C153.6 52.2999 154 52.9999 154.7 53.3999C155.4 53.8999 156.7 54.0999 158.5 54.0999V55.9999H142.2V54.0999C144 54.0999 145.2 53.8999 146 53.4999C146.7 53.0999 147.2 52.4999 147.3 51.6999C147.5 50.8999 147.5 48.4999 147.5 44.4999V34.5999C147.5 30.7999 147.4 28.4999 147.3 27.5999C147.2 26.6999 146.8 26.0999 146 25.6999C145.3 25.2999 144 25.0999 142.1 25.0999V23.1999C146 22.7999 149.2 22.1999 151.7 21.3999Z" fill="white"/>
<path d="M236.9 34H213.8C213.7 35.6 213.6 36.8 213.6 37.6C213.6 43.4 214.5 47.8 216.3 50.8C218.1 53.7 220.9 55.2 224.5 55.2C229.4 55.2 232.9 53 235 48.6H236.9C236 51.4 234.3 53.5 231.8 55.1C229.2 56.7 226.4 57.4 223.4 57.4C220.6 57.4 217.9 56.7 215.4 55.3C212.9 53.9 210.8 51.9 209.3 49.3C207.7 46.7 206.9 43.5 206.9 39.8C206.9 34.6 208.4 30.2 211.5 26.7C214.6 23.2 218.4 21.5 223.1 21.5C227.5 21.5 230.8 22.8 233.2 25.5C235.6 28 236.8 30.9 236.9 34ZM229.8 32.3C229.9 31.7 229.9 31.1 229.9 30.6C229.9 28.2 229.2 26.4 227.8 25.1C226.4 23.8 224.7 23.1 222.7 23.1C217.8 23.1 214.8 26.2 213.9 32.3H229.8Z" fill="white"/>
<path d="M250.7 29.8998C251.6 27.4998 253.1 25.4998 255.2 23.7998C257.3 22.0998 259.3 21.3998 261.3 21.3998C263.1 21.3998 264.5 21.9998 265.5 23.0998C266.5 24.1998 267 25.2998 267 26.4998C267 27.2998 266.7 27.9998 266.2 28.4998C265.7 29.0998 265 29.3998 264.3 29.3998C262.9 29.3998 261.9 28.3998 261.2 26.3998C260.7 24.9998 260 24.3998 259 24.3998C257.8 24.3998 256.4 25.1998 254.8 26.7998C253.2 28.3998 252.1 29.9998 251.7 31.6998C251.3 33.3998 251 35.7998 251 38.6998V44.5998C251 48.1998 251 50.3998 251.1 51.2998C251.2 52.1998 251.6 52.8998 252.3 53.3998C253 53.8998 254.2 54.0998 255.9 54.0998H257V55.9998H239.3V54.0998H240.2C241.8 54.0998 243 53.8998 243.7 53.3998C244.4 52.8998 244.8 52.2998 244.9 51.4998C245 50.6998 245.1 48.3998 245.1 44.4998V35.0998C245.1 31.4998 245 29.2998 245 28.3998C244.9 27.4998 244.5 26.7998 243.8 26.2998C243.1 25.7998 241.9 25.4998 240.2 25.4998H239.3V23.6998C241.8 23.3998 245.2 22.5998 249.3 21.2998C250.2 23.4998 250.6 26.2998 250.7 29.8998Z" fill="white"/>
<path d="M69.4001 13.6002C68.8001 14.2002 68.0001 14.6002 67.2001 14.1002C66.3001 13.6002 66.0001 12.8002 66.0001 11.8002C66.1001 10.1002 66.7001 8.70018 68.1001 7.70018C69.5001 6.70018 70.7001 7.20019 71.0001 8.90019C71.4001 10.8002 70.7001 12.4002 69.4001 13.6002Z" fill="white"/>
<path d="M33.0001 61.2C33.0001 70 25.7001 76.2 15.2001 76.2C5.9001 76.2 0.100098 72.1 0.100098 65.4C0.100098 61 4.0001 58.3 7.6001 58.3C9.8001 58.3 11.4001 58.8 12.9001 59.3C14.4001 59.8 15.9001 60.3 18.1001 60.3C18.8001 60.3 20.0001 60.1 20.5001 59.4C20.7001 59.1 20.8001 58.7 20.7001 58.3L20.6001 58.1L21.2001 58L21.3001 58.1C22.2001 59.2 22.3001 60.8 21.6001 62.2C20.8001 63.8 19.1001 64.8 17.1001 64.8C15.4001 64.8 14.1001 64.3 12.7001 63.8C11.2001 63.3 9.7001 62.7 7.5001 62.7C5.5001 62.7 3.3001 64.2 3.3001 66.4C3.3001 71.7 8.2001 75.3 15.2001 75.3C22.7001 75.3 28.9001 69.2 28.9001 61.7C28.9001 56.9 24.7001 53.5 18.7001 53.5C16.8001 53.5 15.6001 53.7 14.4001 53.9C13.3001 54.1 12.1001 54.3 10.3001 54.3C8.3001 54.3 6.1001 53.4 6.1001 51.3C6.1001 48.4 9.4001 47.7 13.1001 46.8C18.9001 45.5 26.0001 43.8 26.0001 34.1C26.0001 26.2 21.0001 22.1 16.1001 22.1C9.6001 22.1 6.1001 28.4 6.1001 34.3C6.1001 40.2 10.2001 44.7 15.6001 44.7H15.8001V45.6H15.6001C14.9001 45.7 14.1001 45.8 13.2001 45.8C6.6001 45.8 1.5001 40.8 1.5001 34.3C1.5001 30.8 2.9001 27.6 5.4001 25.1C8.1001 22.4 11.8001 21 16.0001 21H30.5001V23L22.3001 22.2C27.3001 24.3 30.5001 28.9 30.5001 34.2C30.5001 45.3 21.0001 46.8 14.0001 48C10.1001 48.7 7.0001 49.2 7.0001 51.1C7.0001 52.4 8.6001 53.2 10.2001 53.2C12.4001 53.2 14.3001 52.6 16.1001 52.1C18.0001 51.5 19.9001 51 22.2001 51C28.2001 51 33.0001 55.6 33.0001 61.2Z" fill="white"/>
</svg>
