<svg width="219" height="312" viewBox="0 0 219 312" fill="none" xmlns="http://www.w3.org/2000/svg">
<path d="M218.838 156.059C218.838 161.152 214.643 165.347 209.55 165.347C204.456 165.347 200.262 161.152 200.262 156.059C200.262 150.965 204.456 146.771 209.55 146.771C214.643 146.771 218.838 150.965 218.838 156.059Z" fill="white"/>
<path d="M123.56 212.086C98.9916 212.086 89.1043 223.771 64.2363 223.771C57.9444 223.771 45.6601 220.176 48.3567 210.288L47.1582 209.989C36.9714 222.872 46.559 245.643 69.6293 245.643C89.4039 245.643 99.8904 233.958 124.159 233.958C136.144 233.958 149.327 242.946 149.327 256.129C149.327 287.289 120.564 308.262 80.1158 308.262C51.0532 308.262 23.4887 291.484 10.006 265.717C7.00986 255.83 7.90872 245.643 8.20834 235.456C8.20834 228.565 7.90869 221.075 10.006 214.483C12.1033 208.191 16.5975 202.498 21.3914 198.004C31.5783 188.417 45.9598 181.525 60.3413 181.525H60.9405C82.8124 181.525 88.2054 186.319 108.579 186.319C119.365 186.319 131.05 181.525 131.05 170.739C131.05 131.789 17.796 165.646 17.796 73.3645C17.796 37.4108 39.0686 3.55432 75.322 3.55432C111.575 3.55432 133.148 38.01 133.148 73.9638C133.148 109.918 107.98 134.486 77.7189 134.486V136.883C82.2131 137.782 86.7074 138.081 91.2016 138.081C130.151 138.081 155.918 108.12 155.918 73.9638C155.918 35.9127 125.657 0.258545 75.0224 0.258545H-75.0845C-125.719 0.258545 -155.98 35.9127 -155.98 73.9638C-155.98 108.12 -130.214 138.081 -90.9641 138.081C-86.7695 138.081 -82.2753 137.782 -77.4815 136.883V134.486C-107.743 134.486 -132.91 110.217 -132.91 73.9638C-132.91 37.7104 -111.338 3.55432 -75.0845 3.55432C-38.8312 3.55432 -17.5585 37.1111 -17.5585 73.3645C-17.5585 165.646 -130.813 131.789 -130.813 170.739C-130.813 181.525 -119.128 186.319 -108.342 186.319C-87.6684 186.319 -82.5749 181.525 -60.4034 181.525H-59.8042C-44.8235 181.525 -28.9439 188.716 -18.4574 199.203C-13.9632 203.697 -10.0681 209.09 -8.27046 215.382C-6.47276 221.674 -7.07202 229.164 -7.07202 235.456C-7.07202 245.643 -7.37161 255.83 -9.76854 265.717C-23.2512 291.784 -50.8158 308.262 -80.178 308.262C-120.626 308.262 -149.389 287.589 -149.389 256.129C-149.389 242.946 -136.206 233.958 -124.221 233.958C-99.9525 233.958 -89.466 245.643 -69.6915 245.643C-46.6212 245.643 -37.0335 222.573 -47.2204 209.989L-48.4189 210.288C-45.7223 220.176 -58.0065 223.771 -64.598 223.771C-89.466 223.771 -99.3533 212.086 -123.922 212.086C-144.895 212.086 -165.269 227.966 -165.269 251.336C-165.269 290.885 -129.914 311.259 -80.7772 311.259C-45.1231 311.259 -17.2589 298.974 -0.480499 279.499C16.5975 298.974 44.1621 311.259 79.8162 311.259C128.653 311.259 164.308 290.885 164.308 251.336C164.907 227.966 144.533 212.086 123.56 212.086ZM-51.7146 3.55432L-5.27432 8.34815C-4.9747 8.34815 -4.67511 8.34815 -4.07588 8.34815C-2.5778 8.34815 -1.07973 8.64776 0.418335 8.64776C2.21603 8.64776 4.0137 8.64777 6.11101 8.34815L52.5513 3.55432C27.084 9.84623 9.10716 26.325 0.418335 46.6988C-8.27049 26.325 -26.2474 9.84623 -51.7146 3.55432ZM0.418335 186.319C-10.3678 177.031 -24.4497 171.339 -39.73 171.339C-65.1973 171.339 -82.5749 184.222 -107.743 184.222C-116.731 184.222 -127.217 179.728 -127.217 170.739C-127.217 141.677 -24.7493 164.747 0.418335 105.124C25.586 164.747 128.054 141.677 128.054 170.739C128.054 179.428 117.568 184.222 108.579 184.222C83.112 184.222 65.7343 171.339 40.5667 171.339C25.2863 171.039 10.9048 176.732 0.418335 186.319Z" fill="white"/>
</svg>
