<svg width="23" height="25" viewBox="0 0 23 25" fill="none" xmlns="http://www.w3.org/2000/svg">
<path d="M14.609 0.330227C14.9158 0.687409 15.0942 1.15145 15.2651 1.58425C15.2903 1.64741 15.3154 1.71058 15.3412 1.77567C15.6148 2.4822 15.8118 3.20583 16.0039 3.9376C16.0416 4.07852 16.0794 4.21942 16.1173 4.3603C16.2102 4.70645 16.3021 5.05285 16.3937 5.39935C16.4822 5.73356 16.5719 6.06746 16.6615 6.40137C16.7219 6.62633 16.7821 6.85133 16.8418 7.07646C16.8833 7.23284 16.9254 7.38909 16.968 7.54518C17.014 7.7167 17.0577 7.88884 17.0999 8.06132C17.1235 8.15331 17.1472 8.2453 17.1716 8.34008C17.1922 8.42381 17.2129 8.50755 17.2342 8.59383C17.3474 8.85661 17.4289 8.91579 17.6923 9.02445C17.9409 9.07621 17.9409 9.07621 18.2148 9.09951C18.2652 9.10489 18.3155 9.11026 18.3674 9.1158C18.4751 9.12727 18.5828 9.13838 18.6905 9.14915C18.9726 9.17757 19.2542 9.20934 19.536 9.24106C19.5919 9.24733 19.6479 9.25359 19.7056 9.26005C20.1883 9.3149 20.6682 9.38213 21.1473 9.46281C21.2125 9.47317 21.2778 9.48352 21.345 9.49419C21.9567 9.6014 22.4946 9.78189 22.9046 10.2665C23.0234 10.503 23.0095 10.7407 22.978 10.9971C22.7686 11.5218 22.4469 11.8556 22.042 12.2437C21.9852 12.2995 21.9285 12.3553 21.87 12.4128C21.5163 12.7579 21.152 13.0877 20.7757 13.4081C20.7319 13.4456 20.6881 13.4831 20.643 13.5217C20.5582 13.5942 20.4733 13.6666 20.3883 13.7388C20.3014 13.8128 20.2146 13.8868 20.1279 13.9611C19.9381 14.1236 19.748 14.2848 19.5537 14.4421C19.5012 14.4851 19.4487 14.5282 19.3946 14.5725C19.3502 14.6078 19.3058 14.6431 19.2601 14.6795C19.1253 14.8376 19.1129 14.9564 19.0872 15.1615C19.1148 15.354 19.1148 15.354 19.1741 15.5531C19.2054 15.6681 19.2054 15.6681 19.2373 15.7855C19.2606 15.8681 19.284 15.9506 19.308 16.0357C19.3435 16.1654 19.3435 16.1654 19.3797 16.2978C19.4558 16.5753 19.533 16.8525 19.6102 17.1296C20.1893 19.2204 20.1893 19.2204 20.4034 20.1574C20.4181 20.2216 20.4328 20.2857 20.4479 20.3519C20.688 21.4306 20.8709 22.8262 20.2709 23.8238C20.0619 24.0625 19.8686 24.1983 19.5529 24.2579C18.9144 24.271 18.4658 24.0878 17.9126 23.7827C17.8703 23.7596 17.828 23.7365 17.7845 23.7127C17.0996 23.3343 16.4685 22.8888 15.8378 22.4279C15.4209 22.1236 14.9967 21.8301 14.5718 21.537C14.2608 21.3218 13.9534 21.1033 13.6507 20.8768C13.5911 20.8327 13.5316 20.7885 13.4703 20.743C13.3576 20.659 13.2455 20.5742 13.1342 20.4884C12.9112 20.3229 12.7481 20.2131 12.4741 20.1536C12.1762 20.2219 11.9878 20.3854 11.7597 20.5772C11.1747 21.0448 10.5627 21.4663 9.93908 21.8808C9.83257 21.9516 9.7262 22.0226 9.61998 22.0939C7.73671 23.3562 7.73671 23.3562 6.82733 23.1982C6.59547 23.1097 6.44313 22.9913 6.30456 22.7813C5.88716 21.6975 6.50669 20.2267 6.82762 19.1942C6.84736 19.1306 6.8671 19.0671 6.88744 19.0017C6.98804 18.679 7.0898 18.3568 7.19332 18.035C7.21265 17.9741 7.23199 17.9133 7.25191 17.8506C7.28845 17.7356 7.32549 17.6207 7.36311 17.506C7.45853 17.204 7.51991 16.9434 7.48804 16.6228C7.30418 16.3876 7.07369 16.2428 6.82275 16.0839C5.759 15.3893 4.75635 14.6033 3.74632 13.8345C3.46173 13.6181 3.1758 13.4036 2.88876 13.1904C2.69981 13.0501 2.51135 12.9091 2.32306 12.7679C2.21663 12.6882 2.10987 12.6089 2.00306 12.5296C1.18838 11.9068 0.281471 11.1632 0 10.1478C0 9.77787 0.125556 9.52544 0.334943 9.22537C1.43304 8.44076 3.45482 8.72728 4.72977 8.73294C5.96299 8.7379 7.19567 8.71762 8.42864 8.69568C8.47821 8.6948 8.52779 8.69392 8.57887 8.69301C9.1941 8.6821 9.80932 8.67082 10.4245 8.65915C10.4436 8.60086 10.4436 8.60086 10.4632 8.54139C10.6057 8.1108 10.7588 7.68483 10.9166 7.25958C10.9427 7.1891 10.9687 7.11862 10.9956 7.04601C11.0804 6.81655 11.1654 6.58714 11.2504 6.35773C11.3696 6.03592 11.4887 5.71409 11.6077 5.39225C11.6527 5.27062 11.6527 5.27062 11.6987 5.14653C11.8965 4.61153 12.0927 4.07599 12.2879 3.54005C12.338 3.40286 12.3881 3.26569 12.4381 3.12851C12.509 2.93447 12.5797 2.74039 12.65 2.54616C12.7144 2.3682 12.7793 2.1904 12.8443 2.01262C12.8626 1.96148 12.881 1.91034 12.9 1.85764C13.0721 1.38865 13.2529 0.903717 13.6226 0.553976C13.665 0.512631 13.7075 0.471286 13.7513 0.428688C14.0308 0.206062 14.2804 0.234369 14.609 0.330227ZM14.0217 2.30287C13.5809 3.39819 13.1875 4.50877 12.7967 5.62256C12.7037 5.88689 12.6107 6.1512 12.5176 6.41549C12.4603 6.57843 12.403 6.7414 12.3458 6.9044C12.3195 6.97908 12.2933 7.05376 12.2662 7.1307C12.2411 7.20264 12.216 7.27459 12.1902 7.34871C12.1376 7.49488 12.0826 7.64021 12.0255 7.7847C11.9979 7.85515 11.9703 7.92561 11.9419 7.99819C11.904 8.0916 11.904 8.0916 11.8653 8.1869C11.8123 8.3947 11.8359 8.5275 11.8928 8.73221C12.2018 8.80326 12.5084 8.82702 12.8242 8.84437C12.8784 8.84751 12.9327 8.85065 12.9886 8.85388C13.1033 8.86045 13.2181 8.86689 13.3329 8.87321C13.5053 8.88275 13.6776 8.89285 13.85 8.90301C14.9224 9.04209 14.9224 9.04209 15.9304 8.87833C15.8878 8.49126 15.8234 8.12624 15.7253 7.74833C15.7122 7.69728 15.699 7.64623 15.6855 7.59364C15.6424 7.42672 15.5988 7.25995 15.5551 7.09319C15.5246 6.97603 15.4941 6.85886 15.4637 6.74169C15.3999 6.49679 15.3359 6.25196 15.2717 6.00718C15.1898 5.69506 15.1089 5.38272 15.0281 5.07031C14.9655 4.82845 14.9023 4.58672 14.839 4.34503C14.8089 4.23 14.779 4.11492 14.7493 3.9998C14.5975 3.41197 14.4409 2.84937 14.1686 2.30287C14.1201 2.30287 14.0716 2.30287 14.0217 2.30287ZM1.46824 10.1204C1.53156 10.4569 1.73341 10.6337 1.97295 10.8647C2.01611 10.9068 2.05927 10.949 2.10374 10.9925C2.48445 11.3601 2.88551 11.6951 3.30355 12.0199C3.38105 12.0817 3.45847 12.1435 3.53583 12.2054C4.2234 12.7531 4.9346 13.2664 5.65274 13.7734C5.71516 13.8175 5.77758 13.8616 5.8419 13.907C6.86927 14.6311 6.86927 14.6311 7.92852 15.3077C8.18767 15.144 8.27506 15.0124 8.37098 14.7244C8.39623 14.6502 8.42148 14.576 8.44749 14.4995C8.47373 14.4191 8.49997 14.3388 8.527 14.256C8.56907 14.1312 8.56907 14.1312 8.61198 14.0038C8.70168 13.7371 8.79001 13.4699 8.87829 13.2026C8.96643 12.9389 9.05484 12.6752 9.14327 12.4116C9.20003 12.242 9.25657 12.0725 9.31289 11.9028C9.48443 11.3869 9.66409 10.8756 9.86091 10.3687C9.93081 10.1852 9.93081 10.1852 9.83723 9.97424C9.57146 9.88607 9.32822 9.8904 9.05155 9.89056C8.96517 9.8902 8.96517 9.8902 8.87705 9.88982C8.68581 9.88912 8.49457 9.88898 8.30332 9.88891C8.16925 9.88867 8.03517 9.88842 7.9011 9.88817C7.61888 9.88773 7.33666 9.8876 7.05444 9.88764C6.76788 9.88764 6.48133 9.88715 6.19478 9.88614C3.81801 9.83159 3.81801 9.83159 1.46824 10.1204ZM11.2037 10.1322C11.1397 10.2587 11.1397 10.2587 11.0852 10.4126C11.0587 10.4801 11.0322 10.5477 11.0048 10.6173C10.9088 10.8738 10.82 11.1324 10.7322 11.3918C10.699 11.4885 10.6658 11.5851 10.6324 11.6818C10.545 11.9359 10.4583 12.1903 10.3718 12.4448C10.2849 12.7001 10.1972 12.9551 10.1095 13.2102C9.87069 13.9058 9.87069 13.9058 9.6348 14.6025C9.56989 14.7924 9.50322 14.9808 9.43422 15.1692C9.4165 15.2187 9.39878 15.2683 9.38053 15.3194C9.33096 15.458 9.28037 15.5962 9.22973 15.7344C9.15813 15.956 9.15813 15.956 9.22909 16.1326C9.37238 16.3224 9.54596 16.4481 9.73629 16.5908C9.77796 16.6221 9.81963 16.6534 9.86256 16.6856C10.2918 17.0048 10.7334 17.3059 11.177 17.6048C11.4669 17.8003 11.7501 18.0046 12.0313 18.2124C12.2183 18.3218 12.3352 18.3704 12.5535 18.3762C12.7182 18.286 12.8478 18.1987 12.994 18.084C13.0401 18.0493 13.0863 18.0147 13.1338 17.979C13.2933 17.8586 13.4512 17.7364 13.6088 17.6136C13.6666 17.5688 13.7244 17.5239 13.7839 17.4777C14.2155 17.1416 14.642 16.7996 15.0663 16.4543C15.3837 16.1963 15.7039 15.9423 16.0268 15.6912C16.7745 15.1259 16.7745 15.1259 17.4721 14.504C17.492 13.985 17.3322 13.4685 17.1905 12.9746C17.1597 12.865 17.1597 12.865 17.1282 12.7532C17.0849 12.6002 17.0414 12.4473 16.9975 12.2944C16.9304 12.0602 16.8648 11.8255 16.7993 11.5908C16.757 11.4417 16.7146 11.2926 16.672 11.1435C16.6428 11.0384 16.6428 11.0384 16.6129 10.9311C16.5941 10.8662 16.5752 10.8013 16.5558 10.7344C16.5395 10.6774 16.5233 10.6204 16.5066 10.5616C16.4363 10.3934 16.3659 10.3075 16.2241 10.1934C16.0123 10.1232 15.8622 10.1069 15.6412 10.0987C15.5674 10.0957 15.4936 10.0928 15.4176 10.0898C15.3378 10.087 15.2579 10.0842 15.1757 10.0813C15.0932 10.0781 15.0107 10.075 14.9257 10.0717C14.7507 10.0652 14.5756 10.0587 14.4006 10.0524C14.1349 10.0428 13.8693 10.0328 13.6036 10.0226C13.4333 10.0163 13.2629 10.0099 13.0926 10.0036C12.9746 9.99918 12.9746 9.99918 12.8543 9.99464C12.7043 9.98931 12.5542 9.98477 12.4041 9.98112C12.2562 9.97644 12.1084 9.96828 11.9608 9.95703C11.5437 9.92404 11.5437 9.92404 11.2037 10.1322ZM17.8392 10.3395C17.8149 10.3637 17.7907 10.3878 17.7658 10.4126C17.8139 10.9598 17.9607 11.4712 18.1149 11.9968C18.1605 12.153 18.2049 12.3096 18.2492 12.4661C18.2782 12.566 18.3073 12.6659 18.3364 12.7657C18.3625 12.8557 18.3885 12.9457 18.4154 13.0385C18.4939 13.2461 18.548 13.3458 18.7201 13.4812C18.7796 13.4308 18.8392 13.3804 18.9005 13.3285C18.9826 13.2591 19.0647 13.1898 19.1468 13.1204C19.19 13.0839 19.2332 13.0475 19.2776 13.0099C19.5492 12.7811 19.8238 12.5568 20.1012 12.335C20.4008 12.0928 20.675 11.8372 20.9428 11.5607C21.0693 11.4355 21.0693 11.4355 21.2849 11.2711C21.4494 11.1322 21.4871 11.0613 21.5098 10.851C21.2275 10.6787 20.9191 10.6426 20.5979 10.5921C20.5377 10.5824 20.4776 10.5727 20.4157 10.5627C20.2886 10.5424 20.1615 10.5223 20.0344 10.5025C19.8412 10.4722 19.6483 10.4405 19.4554 10.4087C19.3315 10.3891 19.2076 10.3696 19.0837 10.3501C19.0267 10.3406 18.9696 10.3311 18.9108 10.3213C18.5343 10.2643 18.2147 10.2719 17.8392 10.3395ZM17.1693 16.3077C17.0629 16.3956 16.9564 16.4834 16.8498 16.5711C16.7675 16.6388 16.7675 16.6388 16.6834 16.7079C16.4249 16.9171 16.1596 17.117 15.8937 17.3168C15.1303 17.8926 14.3896 18.4956 13.6547 19.1068C13.6825 19.2878 13.7083 19.3797 13.8412 19.5099C13.8899 19.5447 13.9386 19.5795 13.9888 19.6154C14.0439 19.6553 14.099 19.6952 14.1557 19.7364C14.216 19.7788 14.2762 19.8212 14.3383 19.8648C14.4009 19.9097 14.4635 19.9546 14.5279 20.0008C14.7256 20.1421 14.9241 20.2822 15.1229 20.4219C15.1836 20.4648 15.2442 20.5076 15.3067 20.5518C15.6683 20.807 16.0316 21.0597 16.3963 21.3106C16.5314 21.4036 16.6664 21.4969 16.8012 21.5904C17.0153 21.7387 17.2299 21.8863 17.4446 22.0338C17.5098 22.0791 17.5749 22.1243 17.6421 22.1709C18.336 22.6988 18.336 22.6988 19.1407 22.8832C19.3034 22.8484 19.3034 22.8484 19.3808 22.7599C19.5062 21.0703 19.026 19.4434 18.573 17.8326C18.5041 17.5877 18.4365 17.3424 18.3691 17.0971C18.3302 16.9572 18.2912 16.8174 18.2521 16.6776C18.2346 16.6141 18.2171 16.5506 18.1991 16.4852C18.1117 16.1584 18.1117 16.1584 17.9126 15.8922C17.5834 15.8922 17.4097 16.1049 17.1693 16.3077ZM8.73605 17.4995C7.89213 19.5976 7.89213 19.5976 7.48804 21.8101C7.87583 21.775 8.1495 21.6288 8.46993 21.4219C8.5462 21.3735 8.5462 21.3735 8.62401 21.3242C9.197 20.955 9.73794 20.5448 10.2777 20.1297C10.373 20.057 10.4683 19.9843 10.5636 19.9116C10.7869 19.7413 11.0096 19.5704 11.2321 19.3991C11.2074 19.1892 11.1913 19.0671 11.0407 18.9132C10.9904 18.8786 10.9401 18.844 10.8882 18.8083C10.8326 18.7692 10.7769 18.7301 10.7195 18.6898C10.66 18.6496 10.6005 18.6094 10.5392 18.568C10.4791 18.5263 10.419 18.4846 10.3571 18.4416C10.238 18.3591 10.1186 18.2769 9.9989 18.1952C9.86404 18.1024 9.7311 18.0079 9.59922 17.911C9.53695 17.8656 9.47468 17.8202 9.41053 17.7735C9.35857 17.7354 9.30662 17.6974 9.25309 17.6582C9.08168 17.5603 8.93055 17.5279 8.73605 17.4995Z" fill="#94C5E8"/>
</svg>
