<svg width="24" height="25" viewBox="0 0 24 25" fill="none" xmlns="http://www.w3.org/2000/svg">
<path fill-rule="evenodd" clip-rule="evenodd" d="M12 22.2585C17.5228 22.2585 22 17.7814 22 12.2585C22 6.7357 17.5228 2.25854 12 2.25854C6.47715 2.25854 2 6.7357 2 12.2585C2 17.7814 6.47715 22.2585 12 22.2585ZM9.75 9.25854C9.75 8.84433 10.0858 8.50854 10.5 8.50854H15C15.4142 8.50854 15.75 8.84433 15.75 9.25854V13.7585C15.75 14.1728 15.4142 14.5085 15 14.5085C14.5858 14.5085 14.25 14.1728 14.25 13.7585V11.0692L9.53033 15.7889C9.23744 16.0818 8.76256 16.0818 8.46967 15.7889C8.17678 15.496 8.17678 15.0211 8.46967 14.7282L13.1893 10.0085H10.5C10.0858 10.0085 9.75 9.67276 9.75 9.25854Z" fill="#94C5E8"/>
</svg>
