<svg width="82" height="197" viewBox="0 0 82 197" fill="none" xmlns="http://www.w3.org/2000/svg">
<g clip-path="url(#clip0_741_5726)">
<path d="M59.5462 87.2116C59.5831 87.295 59.62 87.3783 59.658 87.4642C59.7243 87.8184 59.6458 87.954 59.4759 88.2706C59.2053 88.5544 59.2053 88.5544 58.8607 88.8621C58.7976 88.9189 58.7345 88.9757 58.6695 89.0342C58.4593 89.223 58.248 89.4104 58.0367 89.5978C57.8873 89.7315 57.7379 89.8652 57.5886 89.9991C57.1879 90.3579 56.7861 90.7156 56.3841 91.073C56.0519 91.3686 55.7204 91.6648 55.3888 91.9611C53.1678 93.9461 50.9386 95.9219 48.6983 97.8851C48.6033 97.9685 48.5082 98.0518 48.4103 98.1376C48.2375 98.2889 48.0648 98.44 47.8918 98.5911C47.7416 98.7225 47.5917 98.8545 47.4424 98.987C47.2978 99.1143 47.1516 99.2397 47.004 99.3635C46.5671 99.7397 46.2582 100.028 46.1528 100.618C46.2057 101.064 46.3182 101.488 46.4347 101.922C46.4672 102.049 46.4997 102.177 46.5332 102.308C46.6029 102.581 46.6737 102.853 46.7453 103.126C46.857 103.551 46.9663 103.976 47.0748 104.402C47.2177 104.963 47.3614 105.523 47.5061 106.083C49.4131 113.474 49.4131 113.474 48.4018 115.613C48.043 116.168 47.5578 116.437 46.9272 116.601C43.7934 116.887 40.2803 114.026 37.7474 112.495C37.4801 112.334 37.2124 112.173 36.9444 112.013C36.3887 111.681 35.8369 111.348 35.2986 110.988C35.2178 110.936 35.1369 110.885 35.0536 110.831C34.8504 110.702 34.6502 110.567 34.4504 110.432C33.7937 110.294 33.3622 110.708 32.8178 111.055C32.4012 111.334 31.9933 111.623 31.5865 111.916C31.3546 112.081 31.1228 112.246 30.891 112.411C30.5321 112.667 30.1733 112.924 29.8146 113.181C25.1686 116.505 25.1686 116.505 23.2055 116.605C22.6298 116.498 22.3008 116.393 21.952 115.907C21.1679 114.63 21.2574 113.332 21.5864 111.899C21.6444 111.685 21.7042 111.472 21.7657 111.259C21.8479 110.962 21.9085 110.668 21.9633 110.365C22.0868 109.701 22.2654 109.054 22.4464 108.404C22.5389 108.058 22.6095 107.712 22.6747 107.359C22.8389 106.495 23.0872 105.653 23.3286 104.808C23.3628 104.684 23.397 104.56 23.4323 104.432C23.4639 104.32 23.4955 104.208 23.528 104.093C23.5843 103.767 23.5927 103.618 23.445 103.322C23.2085 103.102 23.2085 103.102 22.9042 102.901C22.7883 102.821 22.6724 102.74 22.553 102.656C22.3616 102.525 22.3616 102.525 22.1664 102.392C22.0319 102.299 21.8975 102.205 21.7631 102.112C20.8925 101.508 20.0149 100.915 19.1378 100.321C18.3782 99.8058 17.62 99.2892 16.863 98.7707C16.788 98.7194 16.713 98.6681 16.6358 98.6153C14.9309 97.4476 13.2841 96.2485 11.7502 94.8596C11.659 94.7775 11.659 94.7775 11.566 94.6937C10.7614 93.9645 10.0867 93.3222 9.94039 92.2055C9.91595 91.6422 10.0576 91.2656 10.3889 90.8191C11.8672 89.6071 14.0896 89.541 15.9196 89.3889C16.2209 89.3639 16.5222 89.3382 16.8234 89.3119C22.4904 88.8161 22.4904 88.8161 25.2302 88.7546C25.3484 88.7517 25.4666 88.7488 25.5884 88.7458C25.8043 88.7411 26.0203 88.7382 26.2362 88.7374C26.6233 88.7297 26.9252 88.7147 27.2685 88.5277C27.5076 88.1876 27.5674 87.881 27.6562 87.4732C27.7078 87.272 27.7602 87.0709 27.8134 86.8701C27.8419 86.7613 27.8704 86.6526 27.8998 86.5405C27.929 86.4292 27.9582 86.318 27.9882 86.2033C28.0167 86.0935 28.0451 85.9837 28.0744 85.8706C28.1032 85.7614 28.1319 85.6521 28.1615 85.5395C28.1869 85.4425 28.2122 85.3455 28.2383 85.2455C28.3229 84.9568 28.417 84.6784 28.5175 84.3953C28.8207 83.5067 29.0482 82.5961 29.2864 81.6881C29.3752 81.3497 29.4645 81.0115 29.554 80.6733C29.7437 79.9554 29.9329 79.2373 30.1219 78.5192C30.3412 77.6863 30.5607 76.8535 30.7809 76.0208C30.8684 75.6894 30.9554 75.3579 31.0424 75.0264C31.521 73.211 31.521 73.211 31.8236 72.3704C31.9363 72.0499 32.0129 71.7224 32.0914 71.392C32.4442 70.0391 32.9448 68.6945 33.7332 67.5346C33.7811 67.4618 33.829 67.3889 33.8784 67.3139C34.3257 66.977 34.6819 66.7876 35.2476 66.763C35.8062 66.8687 36.1884 66.9906 36.5308 67.4592C37.0224 68.1864 37.2989 69.0122 37.5939 69.8325C37.6254 69.9187 37.6569 70.0049 37.6893 70.0938C38.3508 71.9099 38.8841 73.7529 39.3822 75.6191C39.4989 76.0546 39.6179 76.4894 39.7365 76.9244C40.1919 78.5974 40.6372 80.273 41.0796 81.9494C41.1451 82.1974 41.2106 82.4454 41.2762 82.6934C41.48 83.4651 41.6827 84.237 41.883 85.0097C41.955 85.2846 42.027 85.5596 42.099 85.8345C42.1307 85.9587 42.1625 86.0828 42.1952 86.2107C42.3991 87.0316 42.3991 87.0316 42.8176 87.7563C43.1516 87.9072 43.4393 87.8965 43.7991 87.8641C43.9025 87.8554 44.006 87.8468 44.1126 87.8378C44.2873 87.8222 44.2873 87.8222 44.4655 87.8062C44.736 87.7837 45.0066 87.7616 45.2771 87.7397C45.3537 87.7335 45.4302 87.7273 45.5091 87.7209C46.6124 87.6326 47.7171 87.5621 48.8216 87.4888C49.2111 87.4629 49.6006 87.4368 49.9901 87.4105C52.1164 87.267 52.1164 87.267 53.0834 87.206C54.6812 87.1048 56.2606 86.9923 57.8343 86.6879C59.2245 86.428 59.2245 86.428 59.5462 87.2116ZM55.2876 89.0456C53.5399 89.0804 51.8053 89.2101 50.0648 89.3592C49.1015 89.4416 48.1383 89.5206 47.1737 89.5874C47.0812 89.5938 46.9887 89.6003 46.8934 89.6069C46.4534 89.6372 46.0134 89.6668 45.5733 89.6957C44.7972 89.7478 44.0354 89.8122 43.2712 89.959C43.1626 90.3679 43.2447 90.5789 43.3567 90.9873C43.3963 91.133 43.4359 91.2787 43.4767 91.4289C43.5209 91.5882 43.5652 91.7474 43.6096 91.9067C43.6546 92.0697 43.6995 92.2327 43.7444 92.3957C43.8388 92.7373 43.9338 93.0787 44.0292 93.4201C44.1515 93.858 44.2717 94.2964 44.3912 94.735C44.4834 95.0718 44.577 95.4082 44.6709 95.7445C44.7158 95.906 44.7602 96.0677 44.8041 96.2295C44.8656 96.4554 44.9292 96.6808 44.9929 96.9061C45.0286 97.0346 45.0642 97.1631 45.1009 97.2955C45.2041 97.6356 45.2041 97.6356 45.6073 97.7837C46.4199 97.2304 47.158 96.6009 47.8979 95.9552C48.0263 95.8437 48.1546 95.7322 48.283 95.6207C48.5522 95.3867 48.8211 95.1524 49.0898 94.918C49.425 94.6256 49.7607 94.334 50.0967 94.0426C51.8985 92.4791 53.6656 90.8826 55.4062 89.251C55.3671 89.1832 55.328 89.1155 55.2876 89.0456ZM35.2257 69.4113C34.7735 69.7369 34.6666 70.0441 34.5164 70.5738C34.3563 71.1309 34.1741 71.6657 33.9639 72.2059C33.6633 73.0025 33.426 73.8051 33.2071 74.6277C33.1671 74.7756 33.1271 74.9236 33.0858 75.076C32.9776 75.4761 32.8705 75.8764 32.7636 76.2769C32.6967 76.5274 32.6296 76.778 32.5625 77.0285C32.3279 77.9033 32.0942 78.7783 31.8614 79.6536C31.6445 80.4687 31.4255 81.2832 31.2055 82.0975C31.0162 82.7987 30.8284 83.5004 30.6418 84.2024C30.5306 84.6209 30.4187 85.0391 30.3052 85.4569C30.1792 85.921 30.0564 86.3859 29.934 86.851C29.8959 86.9894 29.8578 87.1278 29.8186 87.2704C29.7859 87.3965 29.7533 87.5226 29.7196 87.6526C29.6756 87.8172 29.6756 87.8172 29.6307 87.9851C29.5819 88.266 29.5819 88.266 29.7565 88.4735C30.0353 88.6742 30.2254 88.6433 30.5646 88.6233C30.6885 88.617 30.8124 88.6107 30.9401 88.6043C31.0737 88.5957 31.2073 88.5871 31.3449 88.5782C31.6279 88.5631 31.9109 88.5481 32.1939 88.5331C32.3343 88.525 32.4748 88.517 32.6194 88.5088C33.0446 88.4858 33.4694 88.4707 33.895 88.458C36.0314 88.3937 38.1651 88.2446 40.2981 88.1156C40.5 87.5588 40.436 87.1474 40.2876 86.59C40.2653 86.5013 40.243 86.4127 40.22 86.3214C40.1437 86.0206 40.065 85.7205 39.9862 85.4204C39.9305 85.2039 39.8748 84.9874 39.8192 84.7708C39.2834 82.6976 38.7227 80.6306 38.1623 78.5639C38.0917 78.3035 38.0212 78.043 37.9508 77.7826C37.3119 75.4239 36.6503 73.0731 35.8842 70.7517C35.8549 70.6631 35.8257 70.5745 35.7956 70.4832C35.6479 70.0966 35.4454 69.7614 35.2257 69.4113ZM40.7802 90.0759C40.1374 90.0071 39.5211 90.0401 38.8777 90.0851C38.7384 90.0937 38.5992 90.1023 38.4558 90.1112C38.0106 90.139 37.5656 90.1686 37.1205 90.1984C36.5393 90.2358 35.9581 90.2726 35.3769 90.3092C35.1644 90.3228 35.1644 90.3228 34.9477 90.3366C33.6922 90.4152 32.4366 90.4662 31.1792 90.5052C30.9893 90.5114 30.7994 90.5177 30.6095 90.5241C30.3035 90.5343 29.9975 90.5442 29.6915 90.5538C29.2775 90.622 29.1626 90.7089 28.8805 91.0108C28.7618 91.275 28.7618 91.275 28.6945 91.5723C28.666 91.6822 28.6375 91.7921 28.6082 91.9053C28.5663 92.0771 28.5663 92.0771 28.5236 92.2523C28.4949 92.3636 28.4662 92.4749 28.4366 92.5895C28.3043 93.1099 28.1871 93.6292 28.0893 94.1572C27.9395 94.9306 27.7296 95.6849 27.5199 96.4435C27.4574 96.6735 27.3948 96.9034 27.3324 97.1334C27.18 97.6947 27.0268 98.2559 26.8717 98.8165C26.7842 99.1331 26.6976 99.45 26.6119 99.7671C26.5315 100.064 26.45 100.361 26.367 100.657C26.0805 101.668 26.0805 101.668 26.2119 102.683C26.4536 102.915 26.6515 103.054 26.9337 103.225C27.1542 103.375 27.3744 103.525 27.5942 103.675C27.8575 103.852 28.1208 104.028 28.3845 104.204C28.4884 104.273 28.4884 104.273 28.5944 104.344C28.9601 104.588 29.326 104.832 29.6921 105.075C29.9942 105.276 30.2958 105.478 30.5971 105.68C30.9625 105.925 31.3286 106.17 31.6953 106.413C31.8344 106.506 31.9732 106.599 32.1118 106.692C32.3055 106.822 32.5001 106.951 32.6948 107.08C32.8051 107.153 32.9154 107.227 33.029 107.303C33.3536 107.477 33.558 107.548 33.9247 107.541C34.1583 107.443 34.1583 107.443 34.3748 107.266C34.4675 107.196 34.5602 107.126 34.6557 107.054C35.41 106.455 36.1575 105.849 36.9013 105.237C37.0854 105.086 37.2695 104.935 37.4536 104.784C37.8374 104.468 38.221 104.153 38.6045 103.837C39.0956 103.432 39.5877 103.029 40.0801 102.626C40.4598 102.315 40.8387 102.003 41.2175 101.691C41.3987 101.542 41.5802 101.393 41.7619 101.245C42.0154 101.038 42.2679 100.829 42.5201 100.621C42.6325 100.529 42.6325 100.529 42.747 100.436C43.143 100.106 43.4371 99.8206 43.6377 99.3316C43.6135 98.9465 43.6135 98.9465 43.4936 98.5248C43.4732 98.4425 43.4527 98.3602 43.4317 98.2754C43.3573 97.9806 43.279 97.687 43.2004 97.3934C43.1698 97.2766 43.1392 97.1598 43.1076 97.0395C42.8955 96.2307 42.6777 95.4236 42.457 94.6171C42.3403 94.1901 42.2248 93.7628 42.1092 93.3355C42.0346 93.0615 41.9598 92.7875 41.885 92.5135C41.8509 92.387 41.8167 92.2605 41.7816 92.1302C41.6889 91.7934 41.5914 91.4586 41.4898 91.1243C41.4638 91.0339 41.4378 90.9435 41.4109 90.8503C41.2718 90.4409 41.1713 90.2704 40.7802 90.0759ZM44.3285 101.945C43.7687 101.908 43.555 102.152 43.1488 102.493C43.0361 102.585 43.0361 102.585 42.9211 102.679C42.6725 102.884 42.4252 103.09 42.178 103.296C42.0056 103.438 41.8332 103.58 41.6607 103.722C41.299 104.021 40.9379 104.32 40.5773 104.62C40.1154 105.004 39.6524 105.387 39.1889 105.769C38.8325 106.063 38.4767 106.357 38.121 106.652C37.9504 106.793 37.7798 106.934 37.609 107.075C37.3701 107.273 37.1317 107.471 36.8936 107.669C36.8231 107.727 36.7526 107.785 36.68 107.845C36.3251 108.142 36.0195 108.436 35.7507 108.814C36.146 109.182 36.5499 109.481 37.0066 109.769C37.0734 109.811 37.1402 109.853 37.2091 109.897C37.4272 110.034 37.6459 110.17 37.8648 110.306C37.9401 110.353 38.0154 110.4 38.0929 110.449C41.9059 113.079 41.9059 113.079 46.1668 114.575C46.5114 114.456 46.5114 114.456 46.7804 114.221C47.2972 112.76 46.5695 110.448 46.2408 108.962C46.222 108.876 46.2033 108.79 46.1841 108.701C45.8633 107.23 45.4972 105.772 45.1103 104.317C45.0848 104.221 45.0594 104.125 45.0332 104.026C44.9608 103.754 44.8875 103.482 44.8136 103.21C44.7813 103.089 44.7813 103.089 44.7483 102.966C44.6428 102.583 44.5292 102.292 44.3285 101.945ZM26.7538 90.8695C26.1707 90.7368 25.6091 90.7537 25.0176 90.7893C24.8732 90.797 24.8732 90.797 24.7259 90.8049C24.4085 90.8222 24.0912 90.8407 23.7739 90.8593C23.5505 90.8719 23.3272 90.8845 23.1039 90.8971C22.635 90.9238 22.1661 90.951 21.6972 90.9787C21.2213 91.0067 20.7454 91.0337 20.2693 91.0598C17.1893 91.2073 17.1893 91.2073 14.1284 91.5546C14.0304 91.5693 13.9324 91.584 13.8313 91.5992C13.2278 91.7061 12.7919 91.9122 12.2772 92.2448C12.6666 93.5763 14.3391 94.4863 15.4233 95.2291C15.5634 95.3261 15.7035 95.4233 15.8435 95.5205C16.1327 95.7213 16.4223 95.9217 16.712 96.1218C17.3225 96.5438 17.9291 96.9714 18.5359 97.3986C18.7324 97.5368 18.9292 97.6747 19.126 97.8124C19.7719 98.2646 20.4163 98.7186 21.0573 99.1777C21.3728 99.4034 21.6889 99.628 22.0052 99.8526C22.1573 99.9609 22.309 100.07 22.4604 100.179C22.6706 100.331 22.8819 100.481 23.0936 100.631C23.2141 100.717 23.3347 100.804 23.4589 100.893C23.8074 101.087 23.929 101.085 24.3104 101.043C24.6219 99.8779 24.933 98.7128 25.2436 97.5476C25.3878 97.0065 25.5322 96.4654 25.6769 95.9244C25.8167 95.4019 25.9561 94.8793 26.0952 94.3566C26.1482 94.1576 26.2014 93.9587 26.2547 93.7598C26.3296 93.4803 26.404 93.2007 26.4782 92.921C26.5002 92.8396 26.5221 92.7582 26.5447 92.6743C26.8471 91.7588 26.8471 91.7588 26.7538 90.8695ZM31.1505 108.28C31.0311 108.201 30.9118 108.122 30.7888 108.041C30.5945 107.913 30.5945 107.913 30.3964 107.784C30.2629 107.695 30.1295 107.607 29.9961 107.519C29.6451 107.287 29.2935 107.056 28.9418 106.825C28.583 106.589 28.2247 106.353 27.8663 106.116C27.1632 105.652 26.4596 105.189 25.7556 104.727C25.3027 105.094 25.1982 105.364 25.0517 105.934C25.0206 106.052 25.0206 106.052 24.9889 106.173C24.9231 106.426 24.8597 106.679 24.7962 106.932C24.7528 107.099 24.7093 107.266 24.6657 107.433C24.4627 108.216 24.2789 109 24.1314 109.796C24.0285 110.301 23.8814 110.794 23.7413 111.289C23.3029 112.819 23.3029 112.819 23.5433 114.356C24.408 114.337 24.9448 113.998 25.6641 113.542C25.8162 113.45 25.9684 113.358 26.1207 113.266C27.443 112.455 28.7052 111.563 29.9637 110.658C30.0487 110.597 30.1337 110.536 30.2212 110.474C30.4646 110.299 30.7071 110.124 30.9494 109.948C31.0601 109.869 31.0601 109.869 31.173 109.788C31.5194 109.534 31.7026 109.379 31.8959 108.986C31.6867 108.624 31.4984 108.509 31.1505 108.28Z" fill="#94C5E8"/>
<path d="M24.8853 141.239C24.6331 141.957 24.1276 142.581 23.66 143.17C23.5918 143.256 23.5237 143.342 23.4535 143.431C22.6855 144.385 21.8318 145.245 20.9627 146.105C20.7959 146.272 20.6292 146.438 20.4627 146.605C20.0532 147.015 19.6426 147.423 19.2316 147.832C18.8353 148.225 18.4404 148.621 18.0454 149.016C17.7793 149.282 17.513 149.548 17.2461 149.814C17.0608 149.998 16.8761 150.183 16.692 150.369C16.4891 150.572 16.2834 150.772 16.0761 150.97C15.9665 151.078 15.8568 151.185 15.7438 151.296C15.6433 151.393 15.5428 151.489 15.4393 151.589C15.1629 151.959 15.1459 152.121 15.2065 152.577C15.3348 152.967 15.3348 152.967 15.5234 153.369C15.5566 153.444 15.5897 153.519 15.6238 153.596C15.6947 153.755 15.7662 153.915 15.8381 154.074C16.0261 154.492 16.2091 154.912 16.3922 155.331C16.4287 155.415 16.4651 155.498 16.5026 155.584C16.8157 156.304 17.1091 157.029 17.3832 157.764C17.4214 157.864 17.4596 157.964 17.4989 158.066C17.8428 159.009 18.0246 159.907 17.6775 160.872C17.4424 161.229 17.0985 161.402 16.7142 161.565C15.8107 161.696 15.0837 161.516 14.2135 161.263C14.0895 161.229 13.9656 161.194 13.8379 161.159C13.0692 160.943 12.3134 160.7 11.5611 160.433C11.4732 160.402 11.3854 160.371 11.2949 160.339C11.1249 160.279 10.9551 160.219 10.7853 160.158C10.6116 160.096 10.4379 160.035 10.264 159.974C9.88327 159.839 9.50407 159.704 9.12705 159.559C9.02439 159.52 8.92174 159.482 8.81597 159.442C8.7307 159.408 8.64542 159.375 8.55756 159.34C8.22745 159.279 8.05108 159.358 7.74325 159.488C7.49618 159.682 7.49618 159.682 7.26543 159.926C7.12968 160.063 7.12968 160.063 6.9912 160.202C6.89446 160.301 6.79773 160.401 6.69806 160.503C6.54517 160.658 6.54517 160.658 6.38919 160.815C6.06224 161.146 5.73659 161.478 5.41107 161.81C2.95242 164.309 2.95242 164.309 1.8139 165.366C1.7359 165.438 1.6579 165.511 1.57753 165.585C0.261605 166.793 -1.54396 168.177 -3.4248 168.143C-3.92765 168.044 -4.27384 167.883 -4.61226 167.49C-5.14624 166.607 -5.25203 165.832 -5.27187 164.811C-5.27368 164.734 -5.2755 164.656 -5.27737 164.576C-5.30082 163.312 -5.18695 162.069 -5.05124 160.815C-4.96197 159.985 -4.89371 159.155 -4.82666 158.324C-4.77658 157.715 -4.71906 157.108 -4.64657 156.502C-4.63282 156.383 -4.61907 156.264 -4.6049 156.141C-4.57837 155.916 -4.55017 155.69 -4.52002 155.465C-4.46846 155.02 -4.44648 154.703 -4.58458 154.272C-4.92068 153.91 -5.30159 153.779 -5.75425 153.615C-6.88128 153.174 -7.96551 152.659 -9.04917 152.121C-9.2343 152.03 -9.41962 151.938 -9.60513 151.847C-12.8928 150.233 -12.8928 150.233 -13.4061 148.833C-13.4694 148.437 -13.4267 148.129 -13.2447 147.765C-12.065 146.305 -9.50602 145.983 -7.80164 145.598C-7.69679 145.574 -7.59195 145.551 -7.48393 145.526C-6.95107 145.406 -6.41786 145.288 -5.88392 145.173C-5.78312 145.151 -5.68232 145.129 -5.57847 145.106C-5.38797 145.064 -5.19729 145.023 -5.00641 144.983C-4.5066 144.872 -4.09228 144.748 -3.66926 144.444C-3.48854 143.997 -3.47203 143.557 -3.45239 143.078C-3.33918 141.029 -3.04877 138.991 -2.78843 136.957C-2.71536 136.384 -2.64606 135.811 -2.57953 135.237C-2.53569 134.859 -2.49059 134.482 -2.445 134.104C-2.41938 133.891 -2.39461 133.677 -2.36998 133.464C-2.15612 131.821 -1.84779 129.952 -0.653843 128.737C-0.136131 128.438 0.318575 128.41 0.907669 128.461C2.89265 129.363 4.12439 132.422 5.14611 134.21C6.13509 135.939 7.15898 137.647 8.18542 139.354C8.22669 139.422 8.26796 139.491 8.31048 139.562C8.8226 140.414 9.33524 141.265 9.84842 142.116C9.94544 142.096 9.94544 142.096 10.0444 142.075C10.7622 141.926 11.4821 141.796 12.2047 141.674C12.3244 141.653 12.4441 141.633 12.5674 141.611C12.9571 141.545 13.3468 141.478 13.7365 141.412C14.2832 141.318 14.8298 141.225 15.3764 141.131C15.583 141.096 15.583 141.096 15.7938 141.06C16.7023 140.904 17.6104 140.746 18.5182 140.586C18.7506 140.545 18.983 140.504 19.2155 140.464C19.5443 140.406 19.873 140.348 20.2017 140.289C20.5028 140.236 20.804 140.183 21.1053 140.13C21.1917 140.114 21.2782 140.099 21.3672 140.083C22.1627 139.944 22.9874 139.805 23.7754 140.04C23.8676 140.066 23.9598 140.092 24.0548 140.119C24.5921 140.33 24.754 140.702 24.8853 141.239ZM21.65 142.011C19.7609 142.28 17.8888 142.627 16.0143 142.98C15.5692 143.064 15.1241 143.147 14.6791 143.231C14.4047 143.282 14.1303 143.334 13.856 143.386C13.7303 143.409 13.6046 143.433 13.475 143.457C13.3541 143.48 13.2331 143.503 13.1085 143.527C12.8614 143.572 12.6136 143.612 12.3653 143.649C12.2444 143.667 12.1235 143.686 11.9989 143.704C11.8376 143.727 11.8376 143.727 11.673 143.75C11.3393 143.844 11.1725 143.984 10.9319 144.229C11.082 144.719 11.2964 145.167 11.5271 145.622C11.5665 145.701 11.6059 145.779 11.6466 145.86C11.73 146.026 11.8137 146.192 11.8976 146.357C12.0234 146.606 12.1485 146.855 12.2734 147.105C12.9449 148.717 12.9449 148.717 13.9882 149.995C14.4954 149.622 14.9543 149.237 15.4041 148.795C15.4649 148.735 15.5258 148.676 15.5884 148.614C15.7873 148.419 15.9854 148.223 16.1836 148.027C16.3229 147.89 16.4623 147.753 16.6017 147.615C16.893 147.328 17.184 147.041 17.4747 146.753C17.8455 146.387 18.2172 146.021 18.5893 145.656C18.8772 145.372 19.1645 145.089 19.4517 144.805C19.5884 144.67 19.7253 144.535 19.8625 144.4C20.5626 143.713 21.2236 143.039 21.7686 142.217C21.7294 142.149 21.6903 142.081 21.65 142.011ZM0.570241 130.769C0.150368 131.13 0.0659535 131.555 -0.0639213 132.076C-0.0881043 132.171 -0.112289 132.265 -0.137205 132.363C-0.344232 133.192 -0.489241 134.024 -0.606312 134.871C-0.630153 135.03 -0.654179 135.188 -0.678366 135.346C-0.889594 136.75 -1.03365 138.16 -1.16334 139.574C-1.17464 139.697 -1.18593 139.82 -1.19757 139.947C-1.38137 141.969 -1.38137 141.969 -1.47288 143.997C-1.03456 144.228 -0.779806 144.244 -0.299155 144.145C-0.174901 144.12 -0.0506481 144.096 0.0773719 144.07C0.211036 144.042 0.3447 144.014 0.482414 143.985C0.691087 143.943 0.691087 143.943 0.903974 143.9C1.34981 143.81 1.79513 143.717 2.24047 143.625C2.68081 143.535 3.12123 143.446 3.56166 143.356C3.84475 143.299 4.12776 143.241 4.41069 143.182C5.27129 143.005 6.13203 142.844 7.00042 142.709C7.31381 142.659 7.31381 142.659 7.53347 142.357C7.44223 141.914 7.23974 141.578 7.01607 141.191C6.94683 141.07 6.94683 141.07 6.87618 140.946C6.72271 140.678 6.56847 140.41 6.41413 140.143C6.30618 139.955 6.19825 139.767 6.09033 139.58C5.86303 139.184 5.6353 138.79 5.40731 138.395C5.17589 137.994 4.94517 137.593 4.71516 137.191C2.87207 133.822 2.87207 133.822 0.570241 130.769ZM8.41586 144.396C8.18718 144.409 8.18718 144.409 7.92779 144.457C7.81183 144.475 7.69587 144.492 7.5764 144.51C7.1398 144.583 6.70613 144.668 6.2722 144.755C6.11005 144.786 5.94788 144.818 5.7857 144.85C5.35938 144.933 4.93333 145.017 4.50732 145.102C4.07978 145.186 3.65199 145.27 3.22422 145.353C2.05766 145.581 2.05766 145.581 0.892083 145.814C0.573934 145.877 0.25632 145.936 -0.0630368 145.992C-0.146712 146.007 -0.230388 146.022 -0.3166 146.038C-0.55064 146.08 -0.784995 146.121 -1.01936 146.162C-1.38733 146.241 -1.38733 146.241 -1.57709 146.483C-1.72713 146.837 -1.7629 147.181 -1.80886 147.563C-1.81901 147.646 -1.82917 147.73 -1.83963 147.816C-1.93968 148.674 -2.00447 149.536 -2.06459 150.398C-2.10413 150.961 -2.16139 151.522 -2.22511 152.083C-2.2272 152.433 -2.20072 152.636 -2.03267 152.946C-1.77335 153.104 -1.54644 153.215 -1.26791 153.326C-1.18215 153.363 -1.09638 153.399 -1.00801 153.437C-0.710755 153.563 -0.412184 153.685 -0.113097 153.806C-0.00363299 153.851 0.105831 153.895 0.218609 153.941C1.03762 154.273 1.86076 154.594 2.6866 154.908C3.30405 155.144 3.9181 155.386 4.53035 155.635C5.92545 156.224 5.92545 156.224 7.35926 156.697C8.1017 156.306 8.69557 155.665 9.27248 155.068C9.40093 154.936 9.40093 154.936 9.53198 154.802C9.71122 154.617 9.89008 154.433 10.0686 154.248C10.3423 153.965 10.6177 153.683 10.8933 153.402C11.0679 153.222 11.2423 153.043 11.4166 152.863C11.5401 152.737 11.5401 152.737 11.6662 152.608C11.7418 152.529 11.8174 152.451 11.8953 152.369C11.962 152.301 12.0287 152.232 12.0974 152.161C12.2761 151.927 12.3395 151.759 12.3846 151.468C12.312 151.115 12.2134 150.892 12.0466 150.576C11.9911 150.471 11.9356 150.365 11.8784 150.256C11.8178 150.143 11.7573 150.029 11.6949 149.911C11.6327 149.793 11.5705 149.675 11.5063 149.554C11.3742 149.304 11.2419 149.054 11.1094 148.804C10.9082 148.424 10.7078 148.045 10.5075 147.665C10.3788 147.421 10.2501 147.178 10.1213 146.935C10.0323 146.766 10.0323 146.766 9.94145 146.594C9.82776 146.38 9.71293 146.166 9.59683 145.953C9.48392 145.743 9.37596 145.529 9.27255 145.314C8.98183 144.704 8.98183 144.704 8.41586 144.396ZM13.4844 153.846C13.4311 153.831 13.3778 153.817 13.3229 153.802C12.5958 154.311 11.9987 154.93 11.3875 155.57C11.2058 155.761 11.0225 155.949 10.8391 156.138C10.7228 156.259 10.6065 156.38 10.4903 156.502C10.3854 156.611 10.2804 156.72 10.1723 156.832C9.94501 157.11 9.84922 157.266 9.79876 157.616C9.91736 157.659 10.0359 157.702 10.1581 157.745C10.3215 157.804 10.4849 157.863 10.6483 157.922C10.7342 157.953 10.8201 157.984 10.9086 158.016C11.4482 158.21 11.9839 158.413 12.5183 158.622C13.0993 158.846 13.6785 159.022 14.2817 159.174C14.5592 159.249 14.5592 159.249 14.9634 159.418C15.2906 159.536 15.4203 159.532 15.733 159.393C15.7461 158.859 15.5476 158.399 15.3588 157.908C15.3238 157.817 15.2889 157.725 15.2528 157.63C15.1787 157.436 15.1041 157.242 15.0292 157.048C14.9156 156.753 14.8041 156.458 14.6928 156.162C14.6203 155.973 14.5476 155.784 14.4748 155.595C14.442 155.507 14.4092 155.42 14.3754 155.33C14.1512 154.757 13.8824 154.316 13.4844 153.846ZM4.59019 157.731C4.38119 157.654 4.17229 157.576 3.96351 157.497C3.80221 157.437 3.80221 157.437 3.63765 157.375C3.1361 157.182 2.64202 156.973 2.14763 156.763C0.725174 156.16 -0.716896 155.611 -2.16595 155.077C-2.39681 155.262 -2.50455 155.373 -2.57952 155.664C-2.58891 155.76 -2.59829 155.856 -2.60797 155.955C-2.61935 156.065 -2.63073 156.174 -2.64245 156.287C-2.65312 156.405 -2.66379 156.524 -2.67478 156.646C-2.68707 156.77 -2.69935 156.893 -2.71202 157.021C-2.75015 157.412 -2.78581 157.802 -2.82087 158.193C-2.83188 158.313 -2.84288 158.432 -2.85422 158.556C-2.91944 159.268 -2.97961 159.98 -3.03631 160.693C-3.05742 160.957 -3.07899 161.221 -3.10091 161.485C-3.13561 161.905 -3.16897 162.324 -3.20201 162.744C-3.2127 162.871 -3.22338 162.999 -3.23439 163.131C-3.41283 164.528 -3.41283 164.528 -3.02103 165.802C-2.84087 166.002 -2.84087 166.002 -2.65451 166.039C-0.188421 164.849 1.70087 162.862 3.58947 160.927C3.87668 160.633 4.16529 160.34 4.45429 160.047C4.61863 159.88 4.78287 159.712 4.94699 159.545C5.02172 159.469 5.09645 159.393 5.17345 159.315C5.5602 158.929 5.5602 158.929 5.77207 158.435C5.50621 157.975 5.06822 157.904 4.59019 157.731ZM-3.88848 146.898C-7.50657 147.413 -7.50657 147.413 -10.9296 148.636C-10.5674 149.15 -10.1418 149.414 -9.59341 149.695C-9.4641 149.763 -9.4641 149.763 -9.33217 149.832C-8.35265 150.335 -7.34176 150.76 -6.32477 151.18C-6.14605 151.254 -5.96736 151.329 -5.7887 151.404C-5.37005 151.578 -4.95092 151.752 -4.53146 151.924C-4.25762 151.72 -4.09975 151.599 -4.00602 151.264C-3.99818 151.166 -3.99035 151.067 -3.98227 150.966C-3.9725 150.857 -3.96272 150.747 -3.95265 150.634C-3.94444 150.519 -3.93624 150.403 -3.92778 150.284C-3.91796 150.166 -3.90815 150.048 -3.89803 149.927C-3.87869 149.694 -3.86012 149.46 -3.84238 149.227C-3.82142 148.963 -3.79654 148.701 -3.7674 148.438C-3.75416 148.314 -3.74091 148.19 -3.72726 148.063C-3.71596 147.959 -3.70466 147.856 -3.69302 147.75C-3.69449 147.431 -3.77112 147.193 -3.88848 146.898Z" fill="#94C5E8"/>
</g>
<defs>
<clipPath id="clip0_741_5726">
<rect width="143" height="145" fill="white" transform="translate(9.53516 0.587891) rotate(60)"/>
</clipPath>
</defs>
</svg>
