<svg width="91" height="92" viewBox="0 0 91 92" fill="none" xmlns="http://www.w3.org/2000/svg">
<g clip-path="url(#clip0_741_5723)">
<path d="M11.1242 79.2986C11.1102 79.2085 11.0961 79.1185 11.0817 79.0256C11.1093 78.6664 11.2202 78.5557 11.4663 78.2939C11.801 78.0898 11.801 78.0898 12.2136 77.8818C12.2892 77.8432 12.3649 77.8047 12.4428 77.765C12.6947 77.637 12.9473 77.5107 13.1999 77.3844C13.3789 77.294 13.5577 77.2034 13.7366 77.1128C14.2165 76.8699 14.6972 76.6284 15.178 76.3872C15.5754 76.1877 15.9723 75.9873 16.3692 75.7869C19.0284 74.4445 21.693 73.1129 24.365 71.7964C24.4784 71.7405 24.5918 71.6847 24.7086 71.6271C24.9146 71.5257 25.1206 71.4244 25.3267 71.3233C25.5059 71.2352 25.6848 71.1465 25.8633 71.0572C26.0359 70.9716 26.2096 70.8883 26.3842 70.807C26.9036 70.5567 27.2766 70.3583 27.531 69.8157C27.5954 69.3713 27.5967 68.932 27.5962 68.4834C27.5978 68.3518 27.5994 68.2203 27.6011 68.0848C27.6043 67.8032 27.6065 67.5217 27.6078 67.2401C27.6099 66.8005 27.6146 66.361 27.62 65.9214C27.6271 65.3431 27.6332 64.7647 27.6384 64.1863C27.7093 56.5537 27.7093 56.5537 29.2396 54.7498C29.73 54.306 30.2684 54.1715 30.9197 54.1769C34.0209 54.7113 36.6738 58.384 38.7241 60.5187C38.9405 60.7438 39.1574 60.9684 39.3749 61.1924C39.8257 61.657 40.2725 62.1215 40.6993 62.6084C40.7641 62.6791 40.8288 62.7499 40.8956 62.8228C41.0583 63.0008 41.2168 63.1826 41.3748 63.3649C41.9734 63.6681 42.4973 63.3801 43.113 63.1854C43.5875 63.0241 44.0565 62.8501 44.5252 62.6727C44.7918 62.5733 45.0585 62.4739 45.3251 62.3745C45.7382 62.2196 46.1512 62.0644 46.5642 61.9091C51.9122 59.9008 51.9122 59.9008 53.8342 60.3126C54.3626 60.5649 54.6531 60.7518 54.8643 61.3112C55.2911 62.7479 54.869 63.9777 54.1802 65.2769C54.0688 65.4686 53.9558 65.6594 53.8412 65.8492C53.685 66.1148 53.5505 66.3827 53.419 66.6615C53.1279 67.271 52.7881 67.8491 52.4451 68.43C52.266 68.7405 52.1081 69.0571 51.9539 69.3806C51.5716 70.1732 51.114 70.9216 50.6621 71.6755C50.5969 71.7867 50.5316 71.8979 50.4644 72.0124C50.405 72.1121 50.3457 72.2117 50.2845 72.3144C50.1456 72.6152 50.0991 72.7563 50.1652 73.0804C50.3367 73.3542 50.3367 73.3542 50.5786 73.627C50.6695 73.7352 50.7605 73.8434 50.8543 73.9549C51.0053 74.1307 51.0053 74.1307 51.1594 74.3101C51.2651 74.4349 51.3708 74.5599 51.4764 74.6849C52.1611 75.4934 52.8552 76.2938 53.5486 77.0948C54.1491 77.7886 54.7478 78.4839 55.3448 79.1807C55.4039 79.2496 55.4631 79.3185 55.524 79.3896C56.8686 80.9587 58.1489 82.5431 59.2711 84.2818C59.3379 84.3847 59.3379 84.3847 59.4061 84.4897C59.9946 85.4022 60.48 86.1973 60.3323 87.3138C60.2101 87.8642 59.9758 88.1914 59.5403 88.5368C57.7986 89.325 55.6348 88.8136 53.8279 88.4869C53.5303 88.4331 53.2327 88.3799 52.9349 88.3274C47.3327 87.3396 47.3327 87.3396 44.6703 86.6898C44.5554 86.662 44.4404 86.6343 44.322 86.6056C44.1123 86.5542 43.9029 86.5012 43.6941 86.446C43.3183 86.3533 43.0227 86.2897 42.6427 86.3815C42.3238 86.648 42.1867 86.9287 41.9953 87.2996C41.8934 87.4807 41.7907 87.6613 41.6874 87.8415C41.6317 87.9392 41.576 88.0369 41.5186 88.1375C41.4617 88.2375 41.4047 88.3374 41.346 88.4403C41.2901 88.539 41.2342 88.6377 41.1766 88.7394C41.1205 88.8375 41.0645 88.9356 41.0067 89.0366C40.9572 89.1238 40.9076 89.211 40.8565 89.3008C40.7001 89.5577 40.5372 89.8023 40.3668 90.0497C39.8439 90.8297 39.3885 91.6503 38.9233 92.4657C38.75 92.7696 38.5762 93.0732 38.4023 93.3767C38.0332 94.021 37.6646 94.6657 37.2962 95.3104C36.8688 96.0582 36.4412 96.8058 36.013 97.5531C35.8427 97.8505 35.6729 98.1482 35.5031 98.4459C34.5709 100.076 34.5709 100.076 34.061 100.809C33.8693 101.09 33.7104 101.386 33.5491 101.685C32.8582 102.9 32.0267 104.07 30.965 104.986C30.8998 105.044 30.8347 105.102 30.7676 105.162C30.2483 105.371 29.8552 105.462 29.3024 105.339C28.7902 105.093 28.4526 104.876 28.2431 104.335C27.9565 103.505 27.9032 102.636 27.8305 101.767C27.8224 101.676 27.8143 101.584 27.806 101.49C27.6371 99.5647 27.5989 97.6464 27.6008 95.7149C27.6008 95.2641 27.5984 94.8132 27.5964 94.3624C27.5896 92.6286 27.5931 90.8948 27.5997 89.161C27.6006 88.9045 27.6015 88.648 27.6024 88.3915C27.6052 87.5933 27.6092 86.7952 27.6157 85.9971C27.6174 85.7129 27.619 85.4286 27.6206 85.1444C27.622 85.0163 27.6235 84.8882 27.625 84.7562C27.6405 83.9105 27.6405 83.9105 27.4238 83.1021C27.1402 82.87 26.8596 82.8058 26.5037 82.744C26.4015 82.7256 26.2993 82.7072 26.1941 82.6882C26.0213 82.6582 26.0213 82.6582 25.845 82.6275C25.5779 82.5792 25.3108 82.5305 25.0438 82.4816C24.9683 82.4678 24.8927 82.454 24.8149 82.4398C23.7263 82.2395 22.641 82.0217 21.5552 81.8066C21.1723 81.7308 20.7893 81.6552 20.4063 81.5798C18.3152 81.1681 18.3152 81.1681 17.3654 80.9767C15.7958 80.6609 14.2412 80.3608 12.6422 80.2475C11.2322 80.1388 11.2322 80.1388 11.1242 79.2986ZM15.7124 78.6293C17.4096 79.048 19.1187 79.3717 20.8384 79.6781C21.7902 79.8479 22.7411 80.0209 23.6901 80.206C23.7811 80.2237 23.8721 80.2415 23.9659 80.2598C24.3988 80.3443 24.8314 80.4296 25.264 80.5156C26.0271 80.6662 26.7796 80.8011 27.5558 80.8572C27.7665 80.4903 27.7419 80.2652 27.7394 79.8418C27.7388 79.6907 27.7383 79.5397 27.7377 79.3841C27.7362 79.2188 27.7346 79.0535 27.733 78.8882C27.7318 78.7192 27.7305 78.5501 27.7293 78.381C27.7266 78.0266 27.7232 77.6722 27.7194 77.3178C27.7146 76.8632 27.712 76.4086 27.71 75.9539C27.7082 75.6048 27.7049 75.2556 27.7011 74.9065C27.6996 74.7388 27.6985 74.5712 27.698 74.4036C27.6971 74.1694 27.694 73.9353 27.6908 73.7011C27.6896 73.5678 27.6884 73.4344 27.6872 73.2971C27.6756 72.9419 27.6756 72.9419 27.3245 72.6944C26.3964 73.0185 25.5205 73.4355 24.6386 73.8677C24.4858 73.9423 24.333 74.0168 24.1801 74.0912C23.8595 74.2475 23.5391 74.4042 23.2189 74.5612C22.8195 74.7568 22.4197 74.9516 22.0198 75.1461C19.8747 76.19 17.7546 77.2747 15.651 78.4002C15.6713 78.4758 15.6915 78.5514 15.7124 78.6293ZM30.009 102.787C30.5301 102.59 30.7128 102.32 30.995 101.848C31.2938 101.351 31.6083 100.882 31.9511 100.414C32.4476 99.7226 32.8846 99.0087 33.3089 98.2708C33.3859 98.1383 33.4628 98.0057 33.5421 97.8692C33.7501 97.5107 33.9573 97.1517 34.1641 96.7926C34.2936 96.5679 34.4232 96.3433 34.553 96.1187C35.0059 95.3344 35.4581 94.5496 35.9096 93.7644C36.3301 93.0332 36.7524 92.3032 37.1756 91.5736C37.54 90.9452 37.903 90.3161 38.2649 89.6863C38.4807 89.3109 38.697 88.9358 38.9148 88.5616C39.1566 88.146 39.3955 87.7287 39.6341 87.3112C39.7067 87.1873 39.7793 87.0635 39.8541 86.9359C39.9183 86.8225 39.9825 86.7091 40.0487 86.5923C40.1338 86.4447 40.1338 86.4447 40.2206 86.2941C40.3405 86.0355 40.3405 86.0355 40.2255 85.7899C40.0082 85.5238 39.8165 85.5045 39.4837 85.436C39.3624 85.41 39.2411 85.384 39.1161 85.3572C38.9848 85.3309 38.8536 85.3047 38.7183 85.2776C38.4411 85.2189 38.1638 85.1602 37.8866 85.1015C37.7489 85.0729 37.6111 85.0443 37.4692 85.0148C37.0527 84.9269 36.6384 84.8316 36.224 84.7337C34.1438 84.2429 32.0442 83.8347 29.9504 83.4072C29.6113 83.8928 29.5667 84.3067 29.5658 84.8836C29.5644 84.975 29.563 85.0663 29.5615 85.1605C29.5574 85.4707 29.5557 85.781 29.5542 86.0912C29.552 86.3148 29.5497 86.5384 29.5474 86.762C29.5283 88.9032 29.5349 91.0449 29.5413 93.1862C29.5421 93.456 29.5428 93.7259 29.5434 93.9957C29.5501 96.4394 29.5807 98.8812 29.7199 101.322C29.7252 101.415 29.7305 101.508 29.7359 101.604C29.7785 102.016 29.8874 102.392 30.009 102.787ZM29.9922 81.3889C30.5952 81.6218 31.1991 81.7494 31.8322 81.8725C31.969 81.9002 32.1057 81.9279 32.2465 81.9564C32.6837 82.0448 33.1213 82.1314 33.5588 82.2178C34.1299 82.332 34.7008 82.447 35.2717 82.562C35.4805 82.6039 35.4805 82.6039 35.6934 82.6467C36.9265 82.8957 38.1525 83.1714 39.3771 83.4592C39.5622 83.5023 39.7472 83.5454 39.9323 83.5884C40.2305 83.6577 40.5286 83.7274 40.8267 83.7972C41.2442 83.8386 41.3777 83.7843 41.7283 83.5657C41.9114 83.3413 41.9114 83.3413 42.0533 83.0715C42.1093 82.9727 42.1652 82.874 42.2229 82.7722C42.3078 82.6171 42.3078 82.6171 42.3944 82.4589C42.451 82.3589 42.5075 82.2588 42.5658 82.1557C42.8282 81.6873 43.0758 81.2161 43.3069 80.7313C43.6518 80.0231 44.0498 79.3488 44.4487 78.6703C44.5686 78.4644 44.6885 78.2584 44.8084 78.0525C45.1009 77.5497 45.3941 77.0473 45.689 76.5459C45.8554 76.2627 46.0211 75.9791 46.186 75.695C46.3405 75.4288 46.4961 75.1632 46.653 74.8984C47.1911 73.9966 47.1911 73.9966 47.3271 72.9815C47.1536 72.6951 46.9984 72.51 46.7701 72.2715C46.5958 72.0701 46.422 71.8682 46.2485 71.666C46.04 71.4273 45.8312 71.1888 45.6221 70.9507C45.5397 70.8568 45.5397 70.8568 45.4556 70.761C45.1655 70.4306 44.8751 70.1005 44.5846 69.7706C44.3448 69.4982 44.1056 69.2254 43.8669 68.952C43.5775 68.6205 43.287 68.2899 42.9959 67.9599C42.8855 67.8345 42.7754 67.7087 42.6657 67.5826C42.5124 67.4066 42.3577 67.2319 42.203 67.0571C42.1155 66.9575 42.028 66.8579 41.9379 66.7552C41.6696 66.5026 41.4904 66.3814 41.1343 66.2935C40.8832 66.3278 40.8832 66.3278 40.6285 66.4422C40.5208 66.4858 40.4132 66.5293 40.3023 66.5742C39.4187 66.9574 38.5397 67.3497 37.6629 67.7482C37.446 67.8466 37.229 67.9449 37.0121 68.0433C36.5597 68.2485 36.1074 68.4542 35.6553 68.66C35.0763 68.9236 34.4966 69.1857 33.9167 69.4474C33.4694 69.6495 33.0227 69.8527 32.576 70.0562C32.3624 70.1533 32.1486 70.2501 31.9347 70.3464C31.6362 70.4809 31.3383 70.6169 31.0406 70.7533C30.9086 70.8122 30.9086 70.8122 30.7739 70.8723C30.306 71.0887 29.9479 71.2886 29.6275 71.7091C29.5513 72.0872 29.5513 72.0872 29.5579 72.5256C29.5564 72.6104 29.5548 72.6952 29.5532 72.7825C29.5488 73.0865 29.5484 73.3904 29.5483 73.6944C29.5477 73.8151 29.547 73.9358 29.5464 74.0602C29.5419 74.8963 29.5434 75.7323 29.5478 76.5685C29.55 77.0111 29.5511 77.4537 29.5521 77.8964C29.5533 78.1804 29.5546 78.4644 29.5559 78.7484C29.5561 78.8794 29.5564 79.0104 29.5566 79.1454C29.559 79.4948 29.5665 79.8433 29.5781 80.1925C29.5798 80.2866 29.5815 80.3807 29.5833 80.4777C29.6117 80.9091 29.6647 81.0998 29.9922 81.3889ZM29.6367 69.006C30.1678 69.1868 30.4373 69.0065 30.918 68.7821C31.0508 68.7221 31.0508 68.7221 31.1862 68.6608C31.4792 68.5278 31.7714 68.3929 32.0635 68.2579C32.2669 68.165 32.4702 68.0722 32.6737 67.9795C33.1003 67.7848 33.5265 67.5891 33.9525 67.3928C34.498 67.1414 35.0443 66.8917 35.5909 66.6426C36.0112 66.4509 36.4311 66.2586 36.8509 66.0661C37.0522 65.9738 37.2536 65.8817 37.455 65.7897C37.7369 65.6608 38.0184 65.5311 38.2998 65.4011C38.3829 65.3633 38.466 65.3255 38.5516 65.2865C38.9712 65.0916 39.3427 64.8861 39.7001 64.5909C39.4136 64.1328 39.1008 63.7396 38.7341 63.3435C38.6805 63.2855 38.6269 63.2275 38.5716 63.1677C38.3964 62.9787 38.2204 62.7905 38.0442 62.6025C37.9836 62.5376 37.9231 62.4728 37.8607 62.406C34.8584 58.8784 34.8584 58.8784 31.13 56.3302C30.7663 56.356 30.7663 56.356 30.4457 56.5135C29.5683 57.7909 29.6726 60.213 29.6057 61.7333C29.6015 61.8211 29.5973 61.909 29.593 61.9996C29.5222 63.5033 29.4984 65.0065 29.4956 66.5119C29.4953 66.6113 29.495 66.7107 29.4947 66.8131C29.4942 67.0947 29.4947 67.3763 29.4956 67.6579C29.4955 67.7833 29.4955 67.7833 29.4954 67.9112C29.4983 68.3081 29.5328 68.6183 29.6367 69.006ZM43.746 84.2527C44.2749 84.5318 44.8217 84.6607 45.4023 84.7795C45.5438 84.8094 45.5438 84.8094 45.6881 84.8399C45.9992 84.9053 46.3105 84.9696 46.6218 85.0338C46.8408 85.0794 47.0597 85.125 47.2787 85.1706C47.7385 85.2663 48.1985 85.3613 48.6585 85.4559C49.1255 85.552 49.5922 85.6491 50.0588 85.7471C53.072 86.4018 53.072 86.4018 56.1185 86.8585C56.217 86.8697 56.3155 86.8809 56.417 86.8924C57.0277 86.9454 57.502 86.859 58.0853 86.671C58.0537 85.2841 56.6738 83.9723 55.8188 82.9742C55.7086 82.8442 55.5984 82.7141 55.4883 82.5839C55.2609 82.3151 55.0331 82.0466 54.805 81.7783C54.3246 81.2127 53.8493 80.6427 53.3738 80.073C53.2197 79.8886 53.0653 79.7045 52.9109 79.5205C52.404 78.9166 51.8991 78.3113 51.3987 77.7019C51.1524 77.4023 50.9052 77.1035 50.6578 76.8047C50.539 76.6607 50.4206 76.5162 50.3026 76.3714C50.1389 76.1704 49.9736 75.9707 49.808 75.7712C49.7139 75.6566 49.6198 75.542 49.5229 75.4239C49.2366 75.1455 49.1185 75.1166 48.7393 75.0583C48.1368 76.1029 47.5347 77.1478 46.9332 78.193C46.6538 78.6783 46.3743 79.1636 46.0945 79.6487C45.8243 80.1172 45.5544 80.586 45.2847 81.0548C45.182 81.2333 45.0792 81.4117 44.9762 81.59C44.8315 81.8406 44.6873 82.0914 44.5432 82.3423C44.5009 82.4153 44.4586 82.4883 44.4151 82.5634C43.8861 83.3695 43.8861 83.3695 43.746 84.2527ZM44.0054 66.2972C44.1002 66.4045 44.195 66.5118 44.2927 66.6223C44.4474 66.7955 44.4474 66.7955 44.6052 66.9722C44.7114 67.0918 44.8174 67.2115 44.9234 67.3312C45.2025 67.6461 45.4823 67.9603 45.7622 68.2744C46.0477 68.595 46.3326 68.9163 46.6175 69.2375C47.1766 69.8675 47.7365 70.4969 48.2968 71.1259C48.8291 70.8889 49.0001 70.6547 49.2891 70.1422C49.3498 70.0356 49.3498 70.0356 49.4117 69.927C49.5406 69.7 49.6674 69.472 49.7942 69.2439C49.8794 69.0938 49.9646 68.9438 50.05 68.7939C50.4488 68.0898 50.8291 67.3808 51.1776 66.6499C51.4077 66.1886 51.6773 65.7507 51.9409 65.3082C52.7603 63.9441 52.7603 63.9441 52.9259 62.3974C52.0856 62.1924 51.4795 62.3803 50.6668 62.6344C50.4959 62.6842 50.3251 62.7338 50.1542 62.7833C48.6671 63.224 47.2169 63.7594 45.767 64.3079C45.6692 64.3446 45.5714 64.3813 45.4707 64.4191C45.1905 64.5244 44.9108 64.6312 44.6313 64.7383C44.5039 64.7861 44.5039 64.7861 44.3739 64.8348C43.9737 64.9902 43.7565 65.0931 43.468 65.4226C43.5763 65.8267 43.7287 65.9859 44.0054 66.2972Z" fill="#94C5E8"/>
<path d="M58.5868 36.0831C59.0161 35.455 59.666 34.9827 60.2702 34.5349C60.3583 34.4693 60.4464 34.4037 60.5372 34.3361C61.5258 33.6138 62.5731 33.0038 63.6352 32.398C63.8394 32.2802 64.0435 32.1623 64.2476 32.0443C64.7492 31.7546 65.2515 31.4663 65.7541 31.1784C66.2389 30.9005 66.7226 30.621 67.2064 30.3414C67.5324 30.1531 67.8584 29.9651 68.1849 29.7778C68.4117 29.6476 68.638 29.5166 68.8639 29.3849C69.1124 29.2413 69.3629 29.1012 69.6145 28.9632C69.7482 28.8878 69.8819 28.8124 70.0197 28.7347C70.1418 28.6674 70.2639 28.6001 70.3896 28.5308C70.7526 28.2444 70.8109 28.0924 70.8704 27.636C70.8473 27.2265 70.8473 27.2265 70.7691 26.7894C70.7565 26.7086 70.7438 26.6278 70.7308 26.5446C70.7037 26.3718 70.676 26.1991 70.6478 26.0266C70.5742 25.5746 70.5061 25.1218 70.4378 24.6691C70.4242 24.5791 70.4106 24.4892 70.3965 24.3965C70.2804 23.6204 70.1847 22.8436 70.1104 22.0624C70.0993 21.9563 70.0882 21.8502 70.0767 21.7408C69.9884 20.7417 70.0453 19.827 70.6304 18.9846C70.9499 18.7003 71.3268 18.6226 71.7402 18.5644C72.6468 18.6717 73.3024 19.034 74.0776 19.5033C74.1884 19.5685 74.2993 19.6338 74.4135 19.701C75.1001 20.1083 75.7673 20.5387 76.4247 20.9919C76.5015 21.0446 76.5784 21.0972 76.6575 21.1514C76.8061 21.2534 76.9546 21.3555 77.103 21.4579C77.2547 21.5626 77.4066 21.667 77.5587 21.7711C77.8918 21.9993 78.2229 22.2286 78.5497 22.4658C78.6388 22.5297 78.7279 22.5936 78.8198 22.6595C78.8935 22.714 78.9672 22.7685 79.0431 22.8246C79.3462 22.9687 79.5369 22.9384 79.8679 22.8927C80.1568 22.7692 80.1568 22.7692 80.4428 22.5933C80.6093 22.4964 80.6093 22.4964 80.7792 22.3975C80.8983 22.3265 81.0175 22.2556 81.1402 22.1826C81.3279 22.0729 81.3279 22.0729 81.5193 21.961C81.9207 21.7262 82.3212 21.4899 82.7216 21.2534C85.7434 19.4754 85.7434 19.4754 87.1166 18.7495C87.2106 18.6997 87.3047 18.65 87.4017 18.5987C88.9853 17.7729 91.0874 16.9037 92.8956 17.4225C93.3556 17.6488 93.6484 17.8935 93.8734 18.3612C94.1608 19.3519 94.0623 20.1283 93.8174 21.1191C93.799 21.1947 93.7806 21.2703 93.7616 21.3482C93.4572 22.575 93.0256 23.7459 92.5698 24.9227C92.269 25.7004 91.9881 26.485 91.7082 27.2705C91.5022 27.8457 91.2897 28.4167 91.0627 28.9838C91.0186 29.0951 90.9745 29.2065 90.9291 29.3212C90.8451 29.5321 90.7596 29.7425 90.6722 29.952C90.5071 30.3691 90.4038 30.6695 90.4256 31.122C90.6566 31.5581 90.9906 31.7836 91.3853 32.0593C92.36 32.7764 93.2738 33.5549 94.1815 34.3544C94.3366 34.491 94.4919 34.6272 94.6476 34.7631C97.4054 37.1733 97.4054 37.1733 97.539 38.6581C97.4977 39.0569 97.3765 39.3441 97.1066 39.6481C95.5893 40.7527 93.0342 40.4013 91.2881 40.3326C91.1807 40.3283 91.0733 40.3241 90.9626 40.3197C90.4169 40.2978 89.8713 40.2738 89.3257 40.2469C89.2226 40.2422 89.1195 40.2375 89.0133 40.2326C88.8185 40.2237 88.6237 40.214 88.4289 40.2032C87.9175 40.1807 87.4851 40.194 86.9979 40.3778C86.7075 40.763 86.5779 41.1832 86.4348 41.6411C85.7951 43.5913 84.9872 45.4844 84.2092 47.3818C83.9904 47.9163 83.7751 48.4521 83.5623 48.9891C83.4222 49.3426 83.2809 49.6956 83.1392 50.0484C83.0592 50.2478 82.9801 50.4475 82.901 50.6473C82.2693 52.1788 81.4876 53.9048 80.02 54.7687C79.4426 54.9234 78.9961 54.8331 78.4401 54.6319C76.7562 53.2469 76.3583 49.9728 75.8341 47.9814C75.3264 46.0553 74.7794 44.1406 74.2297 42.2262C74.2076 42.1492 74.1855 42.0722 74.1627 41.9929C73.8885 41.0376 73.6137 40.0825 73.3383 39.1276C73.2393 39.1221 73.2393 39.1221 73.1384 39.1166C72.4066 39.0743 71.6776 39.0136 70.9477 38.9453C70.8268 38.9341 70.7059 38.923 70.5813 38.9114C70.1877 38.8751 69.794 38.8384 69.4003 38.8018C68.8482 38.7505 68.296 38.6993 67.7438 38.6482C67.5351 38.6288 67.5351 38.6288 67.3222 38.6091C66.4043 38.5243 65.4862 38.4421 64.5679 38.3617C64.3329 38.341 64.0978 38.3203 63.8627 38.2995C63.5302 38.2702 63.1976 38.2411 62.865 38.2126C62.5603 38.1865 62.2556 38.1596 61.9509 38.1327C61.8634 38.1254 61.7759 38.1181 61.6857 38.1106C60.8816 38.0382 60.049 37.9589 59.3485 37.5286C59.2662 37.4796 59.1839 37.4306 59.0991 37.3801C58.6347 37.0372 58.5745 36.6359 58.5868 36.0831ZM61.9118 36.1742C63.806 36.4038 65.7042 36.5531 67.6063 36.6969C68.0578 36.7314 68.5093 36.766 68.9608 36.8006C69.2391 36.8219 69.5175 36.8431 69.7958 36.8642C69.9234 36.8739 70.0509 36.8836 70.1824 36.8936C70.3052 36.9027 70.428 36.9118 70.5545 36.9211C70.8047 36.942 71.0545 36.967 71.304 36.9956C71.4255 37.0092 71.547 37.0228 71.6722 37.0368C71.8339 37.0568 71.8339 37.0568 71.9988 37.0773C72.3454 37.0731 72.5428 36.9808 72.8386 36.8064C72.8203 36.2945 72.7292 35.8062 72.6243 35.3063C72.6065 35.2204 72.5888 35.1344 72.5704 35.0459C72.5327 34.8641 72.4948 34.6823 72.4567 34.5006C72.3995 34.2277 72.3432 33.9546 72.2871 33.6814C72.0558 31.9501 72.0558 31.9501 71.3788 30.4459C70.7924 30.6744 70.2495 30.9276 69.7005 31.2386C69.6263 31.2805 69.5521 31.3223 69.4757 31.3654C69.2331 31.5025 68.991 31.6403 68.7489 31.7783C68.5788 31.8748 68.4086 31.9714 68.2384 32.0679C67.8828 32.2698 67.5273 32.4721 67.172 32.6746C66.719 32.9329 66.2653 33.1899 65.8113 33.4465C65.4599 33.6455 65.109 33.8451 64.7582 34.045C64.5912 34.14 64.424 34.2348 64.2567 34.3293C63.4025 34.8121 62.5897 35.2917 61.8504 35.9452C61.8707 36.0208 61.8909 36.0964 61.9118 36.1742ZM79.3635 52.4895C79.8624 52.2499 80.0539 51.8611 80.3144 51.3907C80.3622 51.3057 80.41 51.2207 80.4593 51.1332C80.874 50.3855 81.2293 49.6196 81.5617 48.8315C81.6257 48.6848 81.6899 48.5381 81.7542 48.3916C82.3217 47.0898 82.8256 45.7655 83.3169 44.433C83.3597 44.3172 83.4024 44.2013 83.4464 44.082C84.1474 42.1763 84.1474 42.1763 84.7607 40.2407C84.3969 39.9048 84.155 39.8235 83.6652 39.7944C83.5388 39.786 83.4124 39.7777 83.2822 39.7691C83.1457 39.7617 83.0093 39.7544 82.8688 39.7469C82.6563 39.7335 82.6563 39.7335 82.4396 39.7198C81.9856 39.6914 81.5316 39.6654 81.0775 39.6394C80.6289 39.6123 80.1804 39.5846 79.7318 39.5569C79.4435 39.5393 79.1551 39.522 78.8667 39.5051C77.9896 39.4533 77.1163 39.3869 76.2428 39.2918C75.927 39.2595 75.927 39.2595 75.6368 39.4938C75.6103 39.9453 75.7187 40.323 75.8346 40.7545C75.8702 40.8895 75.8702 40.8895 75.9064 41.0271C75.9853 41.3258 76.065 41.6242 76.1448 41.9226C76.2005 42.1319 76.2562 42.3411 76.3118 42.5504C76.4291 42.9909 76.5469 43.4313 76.6649 43.8716C76.7847 44.3186 76.9038 44.7659 77.022 45.2134C77.9304 48.9443 77.9304 48.9443 79.3635 52.4895ZM75.3122 37.2959C75.5364 37.3428 75.5364 37.3428 75.7994 37.3633C75.916 37.3765 76.0325 37.3896 76.1525 37.4032C76.5932 37.4456 77.034 37.4761 77.4756 37.5045C77.6404 37.5159 77.8052 37.5273 77.97 37.5389C78.4033 37.569 78.8367 37.5978 79.2701 37.6263C79.705 37.6552 80.1398 37.6854 80.5746 37.7154C81.7604 37.797 81.7604 37.797 82.9466 37.8736C83.2701 37.8955 83.5922 37.9206 83.9151 37.9495C83.9998 37.9564 84.0846 37.9633 84.172 37.9705C84.4091 37.9898 84.6461 38.0109 84.883 38.0321C85.2589 38.0511 85.2589 38.0511 85.5048 37.8666C85.7413 37.5636 85.865 37.2402 86.0081 36.8836C86.0395 36.8055 86.071 36.7274 86.1034 36.6469C86.4221 35.8438 86.7076 35.0287 86.9888 34.2117C87.1728 33.6776 87.3734 33.1504 87.5802 32.6248C87.6728 32.2873 87.6997 32.0845 87.6176 31.7415C87.4079 31.5223 87.2174 31.3566 86.9773 31.1766C86.9039 31.119 86.8305 31.0615 86.7549 31.0023C86.5003 30.8038 86.2435 30.6087 85.986 30.4141C85.8918 30.3427 85.7976 30.2713 85.7006 30.1977C84.9954 29.6649 84.2832 29.1426 83.5669 28.6251C83.0314 28.2379 82.5011 27.8445 81.9741 27.4458C80.779 26.5158 80.779 26.5158 79.5165 25.6875C78.6981 25.8735 77.9585 26.339 77.2467 26.7666C77.0885 26.8605 77.0885 26.8605 76.9272 26.9564C76.7064 27.0879 76.4859 27.2198 76.2656 27.3522C75.9279 27.5548 75.5891 27.7553 75.2501 27.9557C75.0349 28.0841 74.8199 28.2127 74.6049 28.3414C74.453 28.4311 74.453 28.4311 74.2981 28.5225C74.2046 28.5791 74.1112 28.6356 74.0149 28.6939C73.9327 28.7431 73.8505 28.7923 73.7658 28.843C73.5326 29.0229 73.4278 29.1687 73.309 29.4377C73.2879 29.7974 73.3253 30.0384 73.4047 30.3866C73.431 30.503 73.4573 30.6194 73.4844 30.7393C73.5134 30.865 73.5424 30.9907 73.5722 31.1203C73.6018 31.2503 73.6314 31.3803 73.6619 31.5143C73.7247 31.7901 73.7879 32.0658 73.8512 32.3415C73.9473 32.76 74.0426 33.1787 74.1378 33.5974C74.1991 33.8658 74.2605 34.1342 74.3218 34.4026C74.3642 34.5885 74.3642 34.5885 74.4074 34.7782C74.4618 35.0145 74.5175 35.2505 74.5745 35.4862C74.629 35.7189 74.6781 35.9529 74.7222 36.1879C74.8451 36.8525 74.8451 36.8525 75.3122 37.2959ZM72.862 26.8568C72.9097 26.8845 72.9575 26.9122 73.0067 26.9408C73.8409 26.6367 74.5778 26.1938 75.3339 25.7334C75.5586 25.5969 75.7845 25.4621 76.0104 25.3275C76.1542 25.2405 76.2979 25.1534 76.4415 25.0662C76.5712 24.9879 76.7008 24.9096 76.8343 24.8289C77.1257 24.6195 77.2587 24.4933 77.3981 24.1683C77.2945 24.0965 77.191 24.0247 77.0843 23.9507C76.9417 23.8517 76.7991 23.7526 76.6565 23.6535C76.5815 23.6014 76.5065 23.5493 76.4293 23.4956C75.9586 23.1677 75.4937 22.833 75.0315 22.4931C74.5281 22.1269 74.0144 21.8061 73.4709 21.5038C73.2225 21.3589 73.2225 21.3589 72.8757 21.0912C72.5902 20.8928 72.4637 20.8636 72.1259 20.9162C71.975 21.4286 72.0475 21.9248 72.103 22.4472C72.113 22.545 72.123 22.6429 72.1333 22.7437C72.1547 22.9504 72.1765 23.1571 72.1987 23.3638C72.2321 23.6779 72.2633 23.9921 72.2944 24.3063C72.3155 24.5078 72.3368 24.7093 72.3582 24.9107C72.3672 25.0037 72.3762 25.0967 72.3855 25.1925C72.4538 25.8037 72.5994 26.2992 72.862 26.8568ZM82.4589 25.4055C82.6406 25.5346 82.8222 25.664 83.0036 25.7937C83.1438 25.8939 83.1438 25.8939 83.2868 25.9961C83.7214 26.312 84.1444 26.6422 84.5675 26.9734C85.7855 27.9236 87.0364 28.8269 88.2978 29.7179C88.5688 29.5987 88.7014 29.5201 88.8491 29.2584C88.8831 29.1678 88.9171 29.0773 88.9521 28.984C88.9914 28.8813 89.0307 28.7786 89.0712 28.6728C89.1121 28.5611 89.1531 28.4494 89.1954 28.3343C89.2393 28.2179 89.2832 28.1015 89.3284 27.9815C89.4664 27.614 89.602 27.2457 89.737 26.8771C89.7786 26.7646 89.8201 26.652 89.863 26.536C90.1102 25.8652 90.3527 25.1926 90.592 24.5188C90.6808 24.2691 90.77 24.0194 90.8595 23.7699C91.0016 23.3739 91.1423 22.9774 91.2828 22.5808C91.3262 22.4602 91.3696 22.3395 91.4143 22.2153C91.9482 20.9119 91.9482 20.9119 91.8997 19.5793C91.7773 19.34 91.7773 19.34 91.6068 19.2563C88.9168 19.7674 86.5778 21.1971 84.2526 22.5776C83.899 22.7875 83.5445 22.9956 83.1896 23.2034C82.9875 23.3226 82.7855 23.4419 82.5836 23.5614C82.4918 23.6153 82.4 23.6691 82.3054 23.7246C81.8319 23.9976 81.8319 23.9976 81.4994 24.4196C81.6371 24.9332 82.0418 25.1152 82.4589 25.4055ZM87.8448 38.064C91.4729 38.503 91.4729 38.503 95.0957 38.208C94.8789 37.6176 94.5363 37.2518 94.0794 36.8384C93.9719 36.7397 93.9719 36.7397 93.8624 36.6389C93.0464 35.8994 92.18 35.2271 91.3063 34.5586C91.1529 34.4404 90.9996 34.3221 90.8464 34.2038C90.4872 33.9267 90.1273 33.6507 89.7668 33.3753C89.4495 33.5015 89.2656 33.5778 89.0883 33.8771C89.0553 33.9701 89.0223 34.063 88.9883 34.1588C88.9505 34.262 88.9127 34.3653 88.8738 34.4716C88.8359 34.5812 88.7981 34.6909 88.759 34.8038C88.7191 34.915 88.6791 35.0263 88.6379 35.1408C88.5589 35.3612 88.4805 35.5818 88.403 35.8028C88.3145 36.052 88.2226 36.2989 88.1264 36.5452C88.0816 36.6613 88.0367 36.7775 87.9905 36.8971C87.9529 36.9941 87.9152 37.0911 87.8764 37.191C87.7953 37.4993 87.8078 37.7487 87.8448 38.064Z" fill="#94C5E8"/>
</g>
<defs>
<clipPath id="clip0_741_5723">
<rect width="143" height="145" fill="white" transform="translate(37.0117 175.915) rotate(-105)"/>
</clipPath>
</defs>
</svg>
