<svg width="85" height="144" viewBox="0 0 85 144" fill="none" xmlns="http://www.w3.org/2000/svg">
<g clip-path="url(#clip0_741_4998)">
<path d="M85.0016 100.283C84.9918 100.374 84.9821 100.464 84.9721 100.558C84.8524 100.898 84.7166 100.976 84.4112 101.165C84.035 101.276 84.035 101.276 83.5826 101.37C83.4996 101.387 83.4166 101.405 83.331 101.423C83.0546 101.482 82.7779 101.538 82.5012 101.595C82.3049 101.636 82.1087 101.677 81.9125 101.718C81.3861 101.829 80.8593 101.938 80.3324 102.046C79.897 102.136 79.4617 102.227 79.0264 102.318C76.1104 102.926 73.192 103.523 70.2703 104.103C70.1463 104.127 70.0223 104.152 69.8945 104.177C69.6693 104.222 69.4441 104.267 69.2189 104.311C69.023 104.35 68.8273 104.389 68.6317 104.429C68.4428 104.467 68.2535 104.503 68.0638 104.536C67.4973 104.643 67.0857 104.738 66.6995 105.197C66.5223 105.609 66.4074 106.033 66.2917 106.467C66.2561 106.593 66.2205 106.72 66.1838 106.85C66.1078 107.122 66.0328 107.393 65.9587 107.665C65.8429 108.089 65.7246 108.512 65.6056 108.935C65.4491 109.492 65.2935 110.049 65.1388 110.606C63.0948 117.961 63.0948 117.961 61.1498 119.307C60.5613 119.609 60.0064 119.599 59.3786 119.425C56.5215 118.107 54.9095 113.872 53.4816 111.28C53.3308 111.006 53.1794 110.733 53.0273 110.461C52.7121 109.895 52.4007 109.331 52.1145 108.75C52.0703 108.665 52.026 108.58 51.9804 108.492C51.8693 108.278 51.7633 108.061 51.6579 107.845C51.1581 107.397 50.5775 107.539 49.9324 107.568C49.4323 107.601 48.9343 107.648 48.4356 107.698C48.1523 107.725 47.8691 107.752 47.5858 107.779C47.1467 107.822 46.7076 107.864 46.2685 107.908C40.5829 108.463 40.5829 108.463 38.833 107.568C38.3879 107.188 38.1557 106.932 38.0964 106.337C38.056 104.839 38.782 103.76 39.7836 102.683C39.9408 102.527 40.0993 102.372 40.2592 102.218C40.4789 102.002 40.6781 101.778 40.8772 101.543C41.3162 101.03 41.794 100.559 42.2757 100.087C42.529 99.8333 42.7635 99.5683 42.9962 99.2957C43.5706 98.6291 44.2063 98.0246 44.8379 97.4133C44.9297 97.3229 45.0215 97.2324 45.1161 97.1391C45.1992 97.0583 45.2824 96.9774 45.3681 96.894C45.58 96.6394 45.6615 96.5151 45.6815 96.185C45.5868 95.8762 45.5868 95.8762 45.4237 95.55C45.3638 95.4219 45.304 95.2939 45.2423 95.162C45.1419 94.953 45.1419 94.953 45.0395 94.7399C44.9696 94.5919 44.8999 94.4439 44.8303 94.2958C44.3782 93.3376 43.9149 92.3848 43.4524 91.4317C43.0519 90.6061 42.6536 89.7795 42.2573 88.952C42.218 88.8701 42.1787 88.7882 42.1382 88.7038C41.2456 86.8402 40.419 84.9784 39.785 83.0085C39.7471 82.8918 39.7471 82.8918 39.7084 82.7727C39.3762 81.739 39.1131 80.8454 39.5447 79.8051C39.8052 79.3051 40.1162 79.0497 40.6263 78.8288C42.5126 78.5182 44.4703 79.5722 46.1311 80.3555C46.4046 80.4845 46.6783 80.6129 46.9524 80.7406C52.1081 83.1448 52.1081 83.1448 54.5116 84.4615C54.6154 84.5181 54.7192 84.5746 54.8262 84.6329C55.0155 84.7369 55.2039 84.8423 55.3914 84.9496C55.7304 85.1365 55.9994 85.2744 56.3902 85.2841C56.7673 85.1092 56.9724 84.8735 57.2532 84.5648C57.3985 84.4162 57.5445 84.2684 57.6909 84.121C57.77 84.0411 57.8491 83.9612 57.9305 83.8788C58.0114 83.797 58.0923 83.7152 58.1757 83.631C58.2552 83.5501 58.3348 83.4693 58.4167 83.386C58.4962 83.3057 58.5757 83.2255 58.6577 83.1428C58.7281 83.0714 58.7986 83.0001 58.8712 82.9266C59.0888 82.7188 59.3094 82.5248 59.5381 82.3299C60.245 81.7119 60.8973 81.037 61.5576 80.3698C61.8037 80.1212 62.0501 79.8729 62.2967 79.6248C62.82 79.0979 63.3428 78.5706 63.8656 78.0432C64.4719 77.4315 65.0785 76.82 65.6855 76.209C65.927 75.9658 66.168 75.7222 66.4091 75.4786C67.7313 74.1457 67.7313 74.1457 68.4137 73.569C68.6715 73.3478 68.9017 73.1025 69.1348 72.8556C70.1168 71.8604 71.2226 70.9462 72.4853 70.3359C72.5632 70.2968 72.6412 70.2577 72.7214 70.2173C73.2772 70.1492 73.6804 70.1633 74.1827 70.4248C74.6136 70.7957 74.8836 71.0924 74.9458 71.6694C75.008 72.545 74.8345 73.3984 74.6799 74.2563C74.664 74.3467 74.6482 74.4371 74.6318 74.5302C74.2966 76.4338 73.837 78.2966 73.3353 80.1618C73.2186 80.5973 73.1042 81.0334 72.9895 81.4694C72.5473 83.1459 72.0952 84.8197 71.6401 86.4927C71.5728 86.7402 71.5056 86.9877 71.4384 87.2353C71.2291 88.0055 71.0186 88.7754 70.8057 89.5446C70.7306 89.8188 70.6555 90.0929 70.5804 90.367C70.5458 90.4904 70.5112 90.6138 70.4756 90.7409C70.2417 91.5538 70.2417 91.5538 70.2418 92.3906C70.4557 92.6883 70.7101 92.8229 71.0379 92.9747C71.1318 93.0189 71.2258 93.0631 71.3226 93.1087C71.4817 93.1825 71.4817 93.1825 71.644 93.2577C71.8895 93.3735 72.1349 93.4897 72.3801 93.606C72.4495 93.6389 72.5189 93.6718 72.5904 93.7057C73.5901 94.1809 74.5821 94.6721 75.5752 95.161C75.9254 95.3333 76.2758 95.5054 76.6263 95.6773C78.5395 96.6162 78.5395 96.6162 79.4074 97.0469C80.8417 97.7582 82.2658 98.4505 83.7809 98.9737C85.1147 99.4437 85.1147 99.4437 85.0016 100.283ZM80.3965 99.7422C78.8655 98.8985 77.2985 98.1435 75.7166 97.4024C74.8412 96.992 73.9675 96.5788 73.0987 96.1544C73.0154 96.1137 72.9321 96.073 72.8462 96.0311C72.45 95.8374 72.0542 95.643 71.6586 95.448C70.9605 95.1051 70.2686 94.78 69.5333 94.525C69.2348 94.8248 69.2004 95.0486 69.0932 95.4582C69.0546 95.6043 69.0161 95.7503 68.9763 95.9007C68.935 96.0608 68.8937 96.2208 68.8525 96.3809C68.81 96.5446 68.7674 96.7082 68.7248 96.8718C68.6357 97.2149 68.5472 97.5581 68.4592 97.9014C68.3462 98.3418 68.231 98.7815 68.1153 99.2212C68.0267 99.5589 67.9395 99.897 67.8528 100.235C67.8109 100.398 67.7685 100.56 67.7256 100.722C67.6659 100.948 67.6083 101.175 67.5508 101.402C67.5174 101.531 67.484 101.66 67.4497 101.793C67.369 102.14 67.369 102.14 67.6441 102.469C68.6244 102.397 69.5784 102.22 70.5421 102.031C70.709 101.999 70.8759 101.966 71.0428 101.934C71.3929 101.866 71.7429 101.798 72.0929 101.729C72.5293 101.643 72.9659 101.559 73.4025 101.474C75.7447 101.021 78.0733 100.522 80.3965 99.9794C80.3965 99.9011 80.3965 99.8228 80.3965 99.7422ZM72.8395 72.7074C72.2851 72.7633 72.039 72.9759 71.644 73.3595C71.2268 73.7619 70.8016 74.134 70.3495 74.4967C69.6909 75.0363 69.0841 75.6127 68.4832 76.2156C68.3746 76.3238 68.2659 76.4319 68.154 76.5432C67.8603 76.8356 67.5673 77.1288 67.2745 77.4221C67.0913 77.6057 66.9079 77.7891 66.7245 77.9724C66.084 78.6128 65.4441 79.2538 64.8048 79.8954C64.2094 80.4928 63.6125 81.0887 63.0149 81.6839C62.5003 82.1965 61.9868 82.7103 61.4742 83.225C61.1687 83.5317 60.8626 83.838 60.5554 84.1431C60.2143 84.482 59.8755 84.8232 59.5369 85.1647C59.4348 85.2656 59.3326 85.3664 59.2273 85.4703C59.136 85.5632 59.0446 85.6561 58.9505 85.7518C58.8301 85.8724 58.8301 85.8724 58.7072 85.9953C58.5245 86.2142 58.5245 86.2142 58.572 86.4812C58.7131 86.7944 58.8931 86.8627 59.1969 87.015C59.3073 87.0715 59.4178 87.128 59.5316 87.1862C59.6516 87.2455 59.7716 87.3049 59.8952 87.3661C60.1478 87.4945 60.4004 87.6229 60.653 87.7514C60.7787 87.8147 60.9043 87.878 61.0337 87.9432C61.4133 88.1359 61.7889 88.3352 62.1637 88.537C64.0461 89.5495 65.9685 90.4872 67.8802 91.442C68.3335 91.0607 68.4837 90.6725 68.6339 90.1155C68.6589 90.0276 68.6839 89.9397 68.7097 89.8491C68.794 89.5505 68.8759 89.2513 68.9577 88.952C69.0177 88.7366 69.0778 88.5212 69.1379 88.3059C69.7105 86.2425 70.2584 84.1721 70.8064 82.1021C70.8755 81.8413 70.9447 81.5805 71.0139 81.3197C71.6399 78.9575 72.2424 76.591 72.7396 74.1974C72.7586 74.1061 72.7776 74.0148 72.7972 73.9207C72.8626 73.512 72.8548 73.1205 72.8395 72.7074ZM67.3176 93.3808C66.7953 92.9997 66.2451 92.7201 65.6654 92.4374C65.5405 92.3753 65.4156 92.3131 65.2869 92.2491C64.8875 92.0506 64.4873 91.8537 64.087 91.657C63.5649 91.3988 63.0432 91.14 62.5215 90.8811C62.3307 90.7866 62.3307 90.7866 62.1361 90.6902C61.0095 90.1306 59.8966 89.547 58.7882 88.952C58.6206 88.8625 58.453 88.773 58.2854 88.6835C58.0153 88.5393 57.7454 88.3949 57.4755 88.2503C57.0829 88.1023 56.9399 88.1201 56.5447 88.2406C56.3097 88.41 56.3097 88.41 56.1029 88.6338C56.0233 88.7147 55.9437 88.7957 55.8616 88.879C55.7395 89.0069 55.7395 89.0069 55.6149 89.1373C55.5344 89.2193 55.4538 89.3013 55.3709 89.3858C54.9962 89.7703 54.635 90.1614 54.2863 90.5698C53.7699 91.1647 53.2109 91.713 52.65 92.2651C52.4809 92.433 52.3117 92.6008 52.1427 92.7688C51.73 93.1787 51.3168 93.5881 50.9022 93.9961C50.6681 94.2265 50.4346 94.4576 50.2018 94.6894C49.9837 94.9065 49.7647 95.1228 49.5446 95.3379C48.7914 96.0698 48.7914 96.0698 48.3973 97.015C48.4907 97.3366 48.5928 97.5556 48.7516 97.845C48.8678 98.0847 48.9835 98.3247 49.0986 98.5649C49.2383 98.8494 49.3783 99.1338 49.5186 99.418C49.5739 99.53 49.5739 99.53 49.6303 99.6443C49.825 100.038 50.0201 100.432 50.2154 100.826C50.3765 101.152 50.5369 101.477 50.6967 101.803C50.8905 102.198 51.0855 102.592 51.2813 102.987C51.3555 103.136 51.4292 103.286 51.5026 103.436C51.6051 103.646 51.7093 103.855 51.8135 104.064C51.8722 104.183 51.9309 104.302 51.9914 104.424C52.1852 104.737 52.327 104.901 52.6482 105.078C52.8995 105.11 52.8995 105.11 53.1752 105.065C53.2904 105.051 53.4057 105.037 53.5244 105.022C54.4771 104.881 55.4277 104.729 56.3778 104.571C56.6128 104.532 56.8477 104.494 57.0827 104.455C57.5729 104.374 58.0629 104.292 58.5529 104.21C59.1805 104.105 59.8082 104.002 60.4361 103.9C60.9204 103.82 61.4046 103.739 61.8887 103.659C62.1201 103.62 62.3517 103.582 62.5832 103.544C62.9064 103.492 63.2293 103.437 63.5521 103.383C63.6949 103.36 63.6949 103.36 63.8406 103.337C64.3486 103.249 64.7462 103.148 65.1644 102.825C65.336 102.48 65.336 102.48 65.443 102.054C65.4665 101.973 65.4899 101.891 65.5141 101.807C65.597 101.515 65.676 101.222 65.7548 100.928C65.7867 100.812 65.8186 100.695 65.8514 100.575C66.0721 99.7686 66.2871 98.9607 66.4992 98.1519C66.6116 97.7238 66.7251 97.296 66.8388 96.8682C66.9111 96.5935 66.9833 96.3189 67.0555 96.0442C67.0892 95.9176 67.1229 95.791 67.1577 95.6605C67.2458 95.3224 67.3287 94.9838 67.4079 94.6435C67.4306 94.5522 67.4533 94.4608 67.4766 94.3667C67.5609 93.9426 67.559 93.7447 67.3176 93.3808ZM64.456 105.434C63.9898 105.122 63.6828 105.226 63.1604 105.318C63.0166 105.342 63.0166 105.342 62.87 105.366C62.5525 105.419 62.2354 105.473 61.9182 105.528C61.6978 105.565 61.4773 105.602 61.2568 105.639C60.7943 105.717 60.332 105.796 59.8698 105.875C59.2777 105.977 58.6854 106.076 58.093 106.176C57.6374 106.252 57.182 106.329 56.7267 106.406C56.5084 106.443 56.29 106.48 56.0716 106.517C55.766 106.568 55.4605 106.621 55.1551 106.674C55.065 106.689 54.9749 106.704 54.8821 106.719C54.4264 106.799 54.0144 106.901 53.5928 107.094C53.751 107.61 53.9514 108.071 54.203 108.549C54.2398 108.619 54.2766 108.688 54.3145 108.761C54.4348 108.988 54.5561 109.216 54.6776 109.443C54.7193 109.521 54.7611 109.6 54.804 109.68C56.791 113.865 56.791 113.865 59.7328 117.291C60.0908 117.36 60.0908 117.36 60.4413 117.291C61.6194 116.284 62.1455 113.918 62.6036 112.467C62.6304 112.383 62.6572 112.299 62.6848 112.213C63.1424 110.779 63.5544 109.333 63.9468 107.879C63.9728 107.783 63.9988 107.687 64.0256 107.589C64.099 107.317 64.1714 107.045 64.2433 106.772C64.2759 106.651 64.2759 106.651 64.3091 106.528C64.409 106.144 64.456 105.835 64.456 105.434ZM54.7736 87.0548C54.335 86.6483 53.8401 86.3822 53.31 86.1172C53.1811 86.0518 53.1811 86.0518 53.0496 85.985C52.7661 85.8412 52.4821 85.6985 52.198 85.556C51.9983 85.4553 51.7986 85.3545 51.5989 85.2538C51.1794 85.0424 50.7597 84.8316 50.3399 84.6211C49.9137 84.4074 49.488 84.1928 49.0627 83.9774C46.3216 82.5651 46.3216 82.5651 43.4971 81.3355C43.4048 81.2992 43.3126 81.2629 43.2176 81.2255C42.6414 81.0163 42.1609 80.9769 41.5488 81.0076C41.2203 82.3554 42.2138 83.9797 42.7812 85.165C42.8541 85.3192 42.9268 85.4734 42.9994 85.6276C43.1495 85.9461 43.3001 86.2644 43.451 86.5825C43.7686 87.2533 44.0802 87.9268 44.3921 88.6003C44.4932 88.8182 44.5947 89.036 44.6962 89.2537C45.0295 89.9682 45.3606 90.6836 45.6862 91.4017C45.8465 91.7548 46.008 92.1075 46.1696 92.4601C46.2471 92.63 46.3241 92.8001 46.4005 92.9705C46.5067 93.2071 46.6146 93.4427 46.723 93.6783C46.7842 93.8134 46.8454 93.9484 46.9085 94.0876C47.1129 94.4306 47.2196 94.4891 47.5708 94.6435C48.4231 93.7904 49.2751 92.937 50.1266 92.0831C50.5221 91.6866 50.9177 91.2902 51.3135 90.894C51.6958 90.5114 52.0778 90.1285 52.4596 89.7454C52.605 89.5996 52.7505 89.4539 52.8962 89.3084C53.1008 89.1038 53.305 88.8988 53.5092 88.6937C53.5689 88.6342 53.6286 88.5747 53.6901 88.5133C54.4097 87.8716 54.4097 87.8716 54.7736 87.0548ZM49.8759 104.331C49.812 104.203 49.7482 104.075 49.6824 103.943C49.5778 103.736 49.5778 103.736 49.4711 103.524C49.3996 103.381 49.3281 103.238 49.2567 103.095C49.0686 102.719 48.8797 102.343 48.6906 101.967C48.4978 101.583 48.3058 101.199 48.1137 100.815C47.7367 100.062 47.3588 99.309 46.9804 98.5565C46.4049 98.6476 46.1791 98.8296 45.7673 99.2499C45.6811 99.337 45.6811 99.337 45.5931 99.426C45.4099 99.6118 45.2284 99.7993 45.0469 99.9868C44.9258 100.11 44.8047 100.233 44.6834 100.355C44.1159 100.932 43.5651 101.519 43.0393 102.134C42.6976 102.52 42.3239 102.874 41.9547 103.233C40.8102 104.338 40.8102 104.338 40.2499 105.789C41.0086 106.205 41.6426 106.18 42.4934 106.145C42.6713 106.141 42.8492 106.138 43.0271 106.134C44.5775 106.093 46.1169 105.951 47.6594 105.797C47.7633 105.787 47.8672 105.777 47.9743 105.766C48.2723 105.737 48.5701 105.706 48.8678 105.675C49.0032 105.662 49.0032 105.662 49.1414 105.648C49.5682 105.602 49.8046 105.559 50.1685 105.315C50.1685 104.897 50.0626 104.704 49.8759 104.331Z" fill="#94C5E8"/>
<path d="M27.9701 129.741C27.3928 130.237 26.6429 130.525 25.9434 130.801C25.8413 130.842 25.7392 130.882 25.634 130.924C24.4921 131.366 23.3226 131.684 22.14 131.994C21.9122 132.055 21.6845 132.116 21.4568 132.177C20.8974 132.327 20.3375 132.476 19.7775 132.624C19.2374 132.767 18.6978 132.912 18.1581 133.056C17.7945 133.154 17.4309 133.251 17.0671 133.348C16.8143 133.415 16.5618 133.483 16.3095 133.551C16.0323 133.626 15.7541 133.696 15.4754 133.764C15.3267 133.803 15.178 133.841 15.0248 133.88C14.8895 133.914 14.7542 133.947 14.6147 133.981C14.19 134.164 14.0944 134.296 13.9188 134.721C13.8351 135.123 13.8351 135.123 13.7975 135.565C13.7888 135.647 13.7801 135.728 13.7711 135.812C13.7526 135.986 13.7347 136.159 13.7172 136.333C13.6713 136.789 13.62 137.244 13.5687 137.699C13.5586 137.789 13.5484 137.88 13.538 137.973C13.4494 138.753 13.3407 139.528 13.2103 140.302C13.1936 140.407 13.1768 140.512 13.1596 140.621C12.9863 141.609 12.6946 142.478 11.9115 143.14C11.5292 143.332 11.145 143.309 10.7307 143.259C9.88273 142.92 9.34323 142.401 8.71596 141.747C8.62578 141.655 8.53559 141.563 8.44268 141.469C7.88483 140.898 7.35182 140.309 6.83409 139.701C6.7735 139.631 6.71291 139.56 6.65049 139.487C6.53332 139.35 6.41634 139.213 6.29954 139.076C6.18007 138.935 6.06034 138.795 5.9404 138.655C5.67776 138.349 5.41725 138.041 5.16301 137.728C5.09345 137.643 5.02389 137.558 4.95222 137.471C4.89514 137.399 4.83806 137.327 4.77925 137.254C4.52375 137.036 4.33169 137.016 4.00021 136.974C3.68918 137.019 3.68918 137.019 3.36742 137.115C3.18148 137.165 3.18148 137.165 2.9918 137.217C2.85835 137.254 2.72491 137.292 2.58743 137.331C2.37777 137.388 2.37777 137.388 2.16387 137.447C1.7154 137.57 1.26743 137.694 0.819483 137.819C-2.55955 138.754 -2.55955 138.754 -4.07384 139.1C-4.17759 139.124 -4.28134 139.148 -4.38824 139.172C-6.13163 139.56 -8.38712 139.855 -9.99943 138.886C-10.3851 138.549 -10.6046 138.236 -10.701 137.726C-10.7221 136.695 -10.426 135.971 -9.93301 135.077C-9.89568 135.009 -9.85835 134.94 -9.81989 134.87C-9.20831 133.764 -8.48834 132.745 -7.74349 131.726C-7.25166 131.053 -6.77723 130.367 -6.30358 129.681C-5.95577 129.179 -5.60269 128.682 -5.23663 128.193C-5.16525 128.097 -5.09386 128.001 -5.02031 127.902C-4.88459 127.72 -4.74751 127.539 -4.60888 127.359C-4.34145 126.999 -4.16394 126.735 -4.06785 126.293C-4.17816 125.812 -4.44235 125.507 -4.75233 125.139C-5.50813 124.194 -6.18939 123.206 -6.85919 122.198C-6.97364 122.026 -7.08843 121.855 -7.20358 121.683C-9.2437 118.641 -9.2437 118.641 -8.98838 117.172C-8.84528 116.798 -8.65389 116.552 -8.31451 116.328C-6.563 115.654 -4.18593 116.654 -2.51715 117.173C-2.41449 117.205 -2.31184 117.237 -2.20607 117.269C-1.68459 117.432 -1.16378 117.596 -0.64378 117.764C-0.545418 117.795 -0.447056 117.826 -0.345713 117.858C-0.159825 117.917 0.0258116 117.977 0.211145 118.038C0.6993 118.192 1.12048 118.291 1.63865 118.24C2.01878 117.943 2.25278 117.57 2.50948 117.165C3.63216 115.447 4.9025 113.827 6.14499 112.196C6.49475 111.736 6.8414 111.275 7.18591 110.811C7.41272 110.506 7.64055 110.201 7.86877 109.897C7.99761 109.725 8.12576 109.553 8.2538 109.38C9.26046 108.064 10.4622 106.6 12.1033 106.145C12.7011 106.145 13.1091 106.348 13.5941 106.686C14.8621 108.46 14.3991 111.725 14.3899 113.784C14.3819 115.776 14.4147 117.767 14.4501 119.759C14.4516 119.839 14.453 119.919 14.4544 120.001C14.4721 120.995 14.4903 121.989 14.5092 122.982C14.6034 123.013 14.6034 123.013 14.6995 123.045C15.3954 123.275 16.0838 123.522 16.7711 123.777C16.885 123.819 16.9989 123.861 17.1163 123.905C17.4871 124.042 17.8579 124.179 18.2286 124.316C18.7487 124.509 19.2689 124.701 19.789 124.894C19.9856 124.966 19.9856 124.966 20.1861 125.04C21.0508 125.36 21.9163 125.677 22.7825 125.992C23.0042 126.073 23.2259 126.154 23.4476 126.235C23.7612 126.349 24.0749 126.463 24.3888 126.577C24.6764 126.681 24.9637 126.786 25.2511 126.891C25.3337 126.92 25.4164 126.95 25.5015 126.981C26.2595 127.259 27.0432 127.551 27.6085 128.148C27.6753 128.216 27.7421 128.285 27.811 128.356C28.1708 128.807 28.125 129.21 27.9701 129.741ZM24.782 128.793C23.0118 128.081 21.2169 127.445 19.4168 126.814C18.9896 126.664 18.5624 126.514 18.1353 126.363C17.8719 126.271 17.6086 126.178 17.3451 126.086C17.2244 126.043 17.1037 126.001 16.9794 125.957C16.8631 125.917 16.7469 125.876 16.6271 125.834C16.3908 125.749 16.1559 125.661 15.9224 125.568C15.8086 125.524 15.6947 125.479 15.5774 125.433C15.4264 125.372 15.4264 125.372 15.2724 125.31C14.9366 125.224 14.7219 125.262 14.3911 125.354C14.2763 125.853 14.2379 126.348 14.2098 126.858C14.2048 126.946 14.1997 127.034 14.1944 127.124C14.1838 127.309 14.1734 127.495 14.1632 127.68C14.1478 127.958 14.1315 128.237 14.115 128.515C13.8903 130.247 13.8903 130.247 14.1549 131.876C14.7805 131.807 15.3704 131.703 15.9812 131.544C16.0637 131.523 16.1462 131.502 16.2312 131.48C16.501 131.41 16.7705 131.34 17.04 131.269C17.2294 131.22 17.4187 131.171 17.6081 131.122C18.0039 131.019 18.3996 130.915 18.7952 130.812C19.2996 130.679 19.8044 130.549 20.3093 130.418C20.7002 130.317 21.0909 130.215 21.4815 130.113C21.6674 130.064 21.8534 130.016 22.0394 129.968C22.9895 129.723 23.8987 129.47 24.782 129.03C24.782 128.952 24.782 128.873 24.782 128.793ZM12.1476 108.516C11.6037 108.619 11.318 108.945 10.9447 109.332C10.8765 109.401 10.8083 109.471 10.7381 109.543C10.144 110.158 9.60259 110.806 9.07758 111.481C8.97778 111.606 8.87784 111.731 8.77777 111.856C7.89269 112.967 7.06314 114.115 6.2437 115.275C6.17245 115.376 6.10119 115.477 6.02778 115.581C4.8575 117.24 4.8575 117.24 3.76406 118.951C4.02852 119.37 4.24119 119.511 4.70675 119.666C4.82668 119.706 4.94661 119.747 5.07018 119.789C5.20005 119.832 5.32993 119.874 5.46374 119.918C5.66547 119.986 5.66547 119.986 5.87127 120.055C6.30243 120.2 6.73427 120.342 7.16619 120.485C7.59245 120.627 8.01856 120.77 8.44466 120.913C8.71861 121.005 8.99268 121.096 9.26686 121.187C10.1006 121.464 10.927 121.754 11.7462 122.072C12.0429 122.185 12.0429 122.185 12.3838 122.034C12.5263 121.605 12.5193 121.212 12.519 120.765C12.5196 120.625 12.5196 120.625 12.5202 120.483C12.5213 120.174 12.5216 119.865 12.5217 119.556C12.5221 119.34 12.5225 119.123 12.5229 118.907C12.5236 118.451 12.5238 117.995 12.5237 117.539C12.5237 117.076 12.5245 116.614 12.5261 116.151C12.6143 112.312 12.6143 112.312 12.1476 108.516ZM12.1284 124.241C11.924 124.138 11.924 124.138 11.6753 124.05C11.5661 124.007 11.457 123.964 11.3445 123.92C10.9299 123.765 10.512 123.621 10.0928 123.479C9.93651 123.426 9.78028 123.372 9.62408 123.318C9.21334 123.177 8.8022 123.037 8.39096 122.897C7.97836 122.757 7.56619 122.615 7.15396 122.474C6.02965 122.088 6.02965 122.088 4.90374 121.707C4.59689 121.602 4.29231 121.494 3.9879 121.383C3.9078 121.354 3.8277 121.326 3.74518 121.296C3.52116 121.216 3.29772 121.134 3.07433 121.053C2.7162 120.937 2.7162 120.937 2.43091 121.052C2.12404 121.283 1.92087 121.563 1.69031 121.871C1.63973 121.938 1.58915 122.005 1.53703 122.075C1.02127 122.768 0.534568 123.481 0.0515148 124.198C-0.264495 124.666 -0.594684 125.124 -0.930472 125.578C-1.10726 125.88 -1.18575 126.069 -1.19523 126.421C-1.0494 126.687 -0.908252 126.897 -0.722913 127.133C-0.666919 127.207 -0.610923 127.282 -0.553233 127.358C-0.358701 127.616 -0.161149 127.871 0.0372152 128.126C0.109715 128.219 0.182216 128.312 0.256911 128.409C0.800136 129.106 1.35291 129.795 1.91087 130.48C2.32788 130.992 2.73832 131.51 3.14415 132.031C4.05785 133.239 4.05785 133.239 5.06292 134.366C5.90165 134.398 6.73645 134.14 7.53472 133.911C7.71179 133.861 7.71179 133.861 7.89244 133.81C8.13975 133.74 8.38692 133.67 8.63395 133.599C9.01255 133.491 9.39175 133.385 9.77106 133.279C10.0121 133.211 10.2531 133.142 10.4941 133.073C10.664 133.026 10.664 133.026 10.8373 132.978C10.9422 132.947 11.0471 132.917 11.1552 132.886C11.2474 132.859 11.3395 132.833 11.4344 132.806C11.7063 132.693 11.8452 132.579 12.0295 132.35C12.1431 132.008 12.1693 131.765 12.1827 131.408C12.1874 131.289 12.1921 131.17 12.197 131.047C12.2015 130.918 12.2061 130.789 12.2108 130.656C12.2159 130.523 12.2209 130.39 12.2262 130.253C12.2368 129.97 12.2472 129.687 12.2574 129.405C12.2729 128.975 12.2892 128.546 12.3056 128.117C12.3159 127.842 12.3261 127.567 12.3363 127.292C12.3435 127.101 12.3435 127.101 12.3508 126.907C12.3594 126.665 12.3667 126.422 12.3726 126.18C12.3802 125.941 12.3934 125.702 12.4116 125.464C12.4649 124.79 12.4649 124.79 12.1284 124.241ZM11.7934 134.958C11.7544 134.919 11.7154 134.88 11.6753 134.84C10.7909 134.918 9.96441 135.155 9.11497 135.404C8.86249 135.478 8.6095 135.549 8.35642 135.621C8.19503 135.668 8.03367 135.715 7.87235 135.762C7.72686 135.804 7.58138 135.846 7.43149 135.889C7.09584 136.016 6.93473 136.103 6.71601 136.381C6.79745 136.477 6.87888 136.574 6.96278 136.673C7.07488 136.805 7.18696 136.938 7.29902 137.071C7.35798 137.14 7.41693 137.21 7.47767 137.282C7.84745 137.72 8.20993 138.164 8.56836 138.612C8.95985 139.096 9.37298 139.539 9.81972 139.971C10.0222 140.176 10.0222 140.176 10.2879 140.524C10.5123 140.79 10.6269 140.851 10.9668 140.887C11.2452 140.431 11.3036 139.933 11.3852 139.414C11.4008 139.317 11.4165 139.22 11.4327 139.12C11.4655 138.915 11.4979 138.709 11.53 138.504C11.579 138.192 11.6302 137.881 11.6815 137.569C11.7133 137.369 11.7449 137.169 11.7763 136.969C11.7917 136.876 11.807 136.784 11.8229 136.689C11.915 136.081 11.9027 135.565 11.7934 134.958ZM2.14786 133.876C2.0057 133.705 1.8638 133.533 1.72214 133.36C1.61269 133.227 1.61269 133.227 1.50103 133.092C1.163 132.674 0.839869 132.246 0.516908 131.816C-0.413663 130.583 -1.38816 129.387 -2.37601 128.2C-2.66857 128.245 -2.81701 128.286 -3.02746 128.501C-3.08372 128.58 -3.13998 128.658 -3.19794 128.739C-3.26247 128.828 -3.327 128.917 -3.39348 129.009C-3.46198 129.106 -3.53049 129.204 -3.60107 129.304C-3.67361 129.405 -3.74614 129.506 -3.82088 129.61C-4.04924 129.929 -4.27556 130.25 -4.50141 130.571C-4.57069 130.669 -4.63996 130.767 -4.71134 130.868C-5.12383 131.452 -5.53211 132.039 -5.93761 132.628C-6.08801 132.846 -6.23879 133.064 -6.38986 133.282C-6.62957 133.628 -6.86817 133.974 -7.10652 134.321C-7.17964 134.426 -7.25277 134.532 -7.32811 134.64C-8.18118 135.761 -8.18118 135.761 -8.4792 137.061C-8.42295 137.324 -8.42295 137.324 -8.27992 137.449C-5.54924 137.651 -2.9199 136.875 -0.316673 136.144C0.079188 136.032 0.475537 135.923 0.872065 135.814C1.09811 135.752 1.32412 135.689 1.55009 135.625C1.6527 135.597 1.75531 135.569 1.86103 135.54C2.38907 135.399 2.38907 135.399 2.81943 135.077C2.81943 134.545 2.47563 134.265 2.14786 133.876ZM0.221713 120.255C-3.16912 118.892 -3.16912 118.892 -6.7449 118.24C-6.68828 118.866 -6.45197 119.308 -6.11761 119.825C-6.03941 119.949 -6.03941 119.949 -5.95963 120.074C-5.36291 121 -4.70007 121.874 -4.0291 122.745C-3.91157 122.899 -3.79411 123.053 -3.67671 123.207C-3.40149 123.568 -3.12524 123.928 -2.84832 124.287C-2.50912 124.247 -2.31178 124.221 -2.06311 123.978C-2.00716 123.896 -1.9512 123.815 -1.89355 123.731C-1.83034 123.642 -1.76714 123.552 -1.70202 123.459C-1.63706 123.363 -1.5721 123.267 -1.50518 123.168C-1.43779 123.071 -1.3704 122.974 -1.30097 122.874C-1.16756 122.681 -1.03478 122.488 -0.902682 122.295C-0.752717 122.077 -0.600024 121.862 -0.443398 121.649C-0.370034 121.549 -0.296668 121.448 -0.22108 121.345C-0.159587 121.261 -0.0980937 121.177 -0.0347373 121.09C0.123409 120.814 0.175853 120.569 0.221713 120.255Z" fill="#94C5E8"/>
</g>
<defs>
<clipPath id="clip0_741_4998">
<rect width="143" height="145" fill="white" transform="translate(85 0.258789) rotate(90)"/>
</clipPath>
</defs>
</svg>
