<svg width="784" height="739" viewBox="0 0 784 739" fill="none" xmlns="http://www.w3.org/2000/svg">
<path d="M683.106 502.822C624.889 502.822 601.415 530.992 542.259 530.992C527.236 530.992 497.658 522.541 504.231 499.066L501.883 498.597C477.939 529.114 500.475 583.574 555.405 583.574C602.354 583.574 627.237 555.874 684.984 555.874C713.623 555.874 744.609 577.471 744.609 608.457C744.609 682.636 676.063 732.402 580.288 732.402C510.804 732.402 445.545 692.965 413.15 630.993C406.108 607.518 408.455 583.105 408.455 559.161C408.455 542.259 407.516 525.358 412.68 508.926C417.375 493.902 428.174 480.756 439.441 469.958C463.855 446.953 498.127 430.99 531.931 430.99H533.339C585.452 430.99 598.128 442.258 646.955 442.258C672.308 442.258 700.477 430.99 700.477 405.638C700.477 313.149 431.46 393.431 431.46 173.711C431.46 87.7944 482.165 7.98133 568.551 7.98133C654.937 7.98133 706.58 89.6723 706.58 175.589C706.58 261.505 646.955 319.722 575.123 319.722V325.356C585.922 327.233 596.72 327.703 607.049 327.703C699.538 327.703 761.51 256.81 761.51 175.119C761.51 84.9774 689.679 0 569.02 0H212.209C91.5503 0 19.7185 84.9774 19.7185 175.119C19.7185 256.341 81.2215 327.703 174.18 327.703C184.509 327.703 195.307 327.233 206.105 325.356V319.722C134.274 319.722 74.6487 261.975 74.6487 175.589C74.6487 89.2028 126.292 7.98133 212.678 7.98133C299.064 7.98133 349.769 87.7944 349.769 173.711C349.769 393.431 80.752 312.679 80.752 405.638C80.752 430.99 108.452 442.258 134.274 442.258C183.101 442.258 195.777 430.99 247.89 430.99H249.298C284.98 430.99 322.539 447.892 347.891 472.775C358.689 483.573 368.079 496.249 372.304 510.803C376.53 525.827 375.121 543.198 375.121 558.691C375.121 582.635 374.652 607.518 368.548 630.993C336.154 692.965 270.895 732.402 201.411 732.402C105.635 732.402 37.0896 683.106 37.0896 608.457C37.0896 577.471 68.0758 555.874 96.7146 555.874C154.462 555.874 179.345 583.574 226.293 583.574C280.754 583.574 303.759 529.114 279.815 498.597L277.468 499.066C284.041 522.541 254.463 530.992 239.439 530.992C180.284 530.992 156.809 503.292 98.5926 503.292C49.2963 503.292 0 540.851 0 596.72C0 690.618 84.5079 738.975 200.472 738.975C285.449 738.975 351.177 709.397 391.553 663.387C431.929 709.397 497.658 738.975 582.635 738.975C699.068 738.975 783.107 690.618 783.107 596.72C781.698 540.381 732.872 502.822 683.106 502.822ZM266.2 6.57285L376.53 17.8406C377.469 17.8406 378.408 17.8406 379.347 17.8406C383.103 18.3101 386.389 18.3101 390.145 18.3101C394.37 18.3101 399.065 17.8406 403.291 17.3711L513.62 6.10336C453.056 21.127 410.333 60.564 389.675 108.921C369.487 61.0335 326.764 21.5965 266.2 6.57285ZM390.145 440.85C364.793 418.314 330.989 405.169 294.839 405.169C234.744 405.169 193.429 435.685 132.865 435.685C111.269 435.685 86.3859 424.887 86.3859 403.76C86.3859 334.745 329.581 389.206 389.675 247.42C449.77 388.737 692.965 334.745 692.965 403.76C692.965 424.887 668.082 435.685 646.486 435.685C585.922 435.685 545.076 405.169 484.512 405.169C449.301 405.169 415.497 418.784 390.145 440.85Z" fill="#494949"/>
</svg>
