<svg width="24" height="25" viewBox="0 0 24 25" fill="none" xmlns="http://www.w3.org/2000/svg">
<path d="M20.9414 8.38119C21.5215 8.95445 21.771 9.67624 21.8877 10.5335C22 11.3592 22 12.409 22 13.7115V13.816C22 15.1185 22 16.1683 21.8877 16.994C21.771 17.8513 21.5215 18.5731 20.9414 19.1463C20.3612 19.7196 19.6307 19.9662 18.7632 20.0814C17.9276 20.1924 16.8651 20.1924 15.547 20.1924H10.622C9.30387 20.1924 8.24141 20.1924 7.4058 20.0814C6.53824 19.9662 5.80777 19.7196 5.22762 19.1463C4.87566 18.7985 4.64535 18.3961 4.49261 17.9419C5.36407 18.0498 6.4422 18.0497 7.68787 18.0496H12.6974C13.979 18.0497 15.0833 18.0498 15.9676 17.9323C16.9154 17.8064 17.8238 17.5225 18.5607 16.7944C19.2975 16.0663 19.5848 15.1686 19.7123 14.2322C19.8312 13.3584 19.8311 12.2672 19.831 11.0008V10.8127C19.8311 9.5815 19.8311 8.51595 19.7219 7.65473C20.1818 7.80566 20.5893 8.03327 20.9414 8.38119Z" fill="#94C5E8"/>
<path d="M10.1926 9.24004C9.26108 9.24004 8.50591 9.98623 8.50591 10.9067C8.50591 11.8272 9.26108 12.5734 10.1926 12.5734C11.1242 12.5734 11.8793 11.8272 11.8793 10.9067C11.8793 9.98623 11.1242 9.24004 10.1926 9.24004Z" fill="#94C5E8"/>
<path fill-rule="evenodd" clip-rule="evenodd" d="M2.84691 6.02923C2 6.86607 2 8.21295 2 10.9067C2 13.6005 2 14.9474 2.84691 15.7842C3.69381 16.621 5.05688 16.621 7.78303 16.621H12.6022C15.3284 16.621 16.6914 16.621 17.5384 15.7842C18.3853 14.9474 18.3853 13.6005 18.3853 10.9067C18.3853 8.21295 18.3853 6.86607 17.5384 6.02923C16.6914 5.19238 15.3284 5.19238 12.6022 5.19238H7.78303C5.05688 5.19238 3.69381 5.19238 2.84691 6.02923ZM7.06015 10.9067C7.06015 9.19725 8.46261 7.81145 10.1926 7.81145C11.9226 7.81145 13.3251 9.19725 13.3251 10.9067C13.3251 12.6162 11.9226 14.002 10.1926 14.002C8.46261 14.002 7.06015 12.6162 7.06015 10.9067ZM15.4937 13.5258C15.0945 13.5258 14.7709 13.206 14.7709 12.8115V9.00194C14.7709 8.60745 15.0945 8.28765 15.4937 8.28765C15.893 8.28765 16.2166 8.60745 16.2166 9.00194V12.8115C16.2166 13.206 15.893 13.5258 15.4937 13.5258ZM4.16864 12.8115C4.16864 13.206 4.49228 13.5258 4.89152 13.5258C5.29075 13.5258 5.61439 13.206 5.61439 12.8115L5.61439 9.00194C5.61439 8.60745 5.29075 8.28765 4.89152 8.28765C4.49228 8.28765 4.16864 8.60745 4.16864 9.00194L4.16864 12.8115Z" fill="#94C5E8"/>
</svg>
