<svg width="24" height="25" viewBox="0 0 24 25" fill="none" xmlns="http://www.w3.org/2000/svg">
<path fill-rule="evenodd" clip-rule="evenodd" d="M7.24502 2.19238H16.755C17.9139 2.19238 18.4933 2.19238 18.9606 2.35499C19.8468 2.66334 20.5425 3.37957 20.842 4.29184C21 4.77293 21 5.36943 21 6.56244V20.5666C21 21.4248 20.015 21.8802 19.3919 21.31C19.0258 20.975 18.4742 20.975 18.1081 21.31L17.625 21.7521C16.9834 22.3392 16.0166 22.3392 15.375 21.7521C14.7334 21.165 13.7666 21.165 13.125 21.7521C12.4834 22.3392 11.5166 22.3392 10.875 21.7521C10.2334 21.165 9.26659 21.165 8.625 21.7521C7.98341 22.3392 7.01659 22.3392 6.375 21.7521L5.8919 21.31C5.52583 20.975 4.97417 20.975 4.6081 21.31C3.985 21.8802 3 21.4248 3 20.5666V6.56244C3 5.36943 3 4.77293 3.15795 4.29184C3.45748 3.37957 4.15322 2.66334 5.03939 2.35499C5.50671 2.19238 6.08614 2.19238 7.24502 2.19238ZM7 6.94238C6.58579 6.94238 6.25 7.27817 6.25 7.69238C6.25 8.1066 6.58579 8.44238 7 8.44238H7.5C7.91421 8.44238 8.25 8.1066 8.25 7.69238C8.25 7.27817 7.91421 6.94238 7.5 6.94238H7ZM10.5 6.94238C10.0858 6.94238 9.75 7.27817 9.75 7.69238C9.75 8.1066 10.0858 8.44238 10.5 8.44238H17C17.4142 8.44238 17.75 8.1066 17.75 7.69238C17.75 7.27817 17.4142 6.94238 17 6.94238H10.5ZM7 10.4424C6.58579 10.4424 6.25 10.7782 6.25 11.1924C6.25 11.6066 6.58579 11.9424 7 11.9424H7.5C7.91421 11.9424 8.25 11.6066 8.25 11.1924C8.25 10.7782 7.91421 10.4424 7.5 10.4424H7ZM10.5 10.4424C10.0858 10.4424 9.75 10.7782 9.75 11.1924C9.75 11.6066 10.0858 11.9424 10.5 11.9424H17C17.4142 11.9424 17.75 11.6066 17.75 11.1924C17.75 10.7782 17.4142 10.4424 17 10.4424H10.5ZM7 13.9424C6.58579 13.9424 6.25 14.2782 6.25 14.6924C6.25 15.1066 6.58579 15.4424 7 15.4424H7.5C7.91421 15.4424 8.25 15.1066 8.25 14.6924C8.25 14.2782 7.91421 13.9424 7.5 13.9424H7ZM10.5 13.9424C10.0858 13.9424 9.75 14.2782 9.75 14.6924C9.75 15.1066 10.0858 15.4424 10.5 15.4424H17C17.4142 15.4424 17.75 15.1066 17.75 14.6924C17.75 14.2782 17.4142 13.9424 17 13.9424H10.5Z" fill="#94C5E8"/>
</svg>
