<svg width="24" height="25" viewBox="0 0 24 25" fill="none" xmlns="http://www.w3.org/2000/svg">
<path d="M14 4.19238H10C6.22876 4.19238 4.34315 4.19238 3.17157 5.36396C2.32803 6.2075 2.09185 7.42121 2.02572 9.44238H21.9743C21.9082 7.42121 21.672 6.2075 20.8284 5.36396C19.6569 4.19238 17.7712 4.19238 14 4.19238Z" fill="#94C5E8"/>
<path d="M10 20.1924H14C17.7712 20.1924 19.6569 20.1924 20.8284 19.0208C22 17.8492 22 15.9636 22 12.1924C22 11.7505 22 11.3344 21.9981 10.9424H2.00189C2 11.3344 2 11.7505 2 12.1924C2 15.9636 2 17.8492 3.17157 19.0208C4.34315 20.1924 6.22876 20.1924 10 20.1924Z" fill="#94C5E8"/>
<path fill-rule="evenodd" clip-rule="evenodd" d="M5.25 16.1924C5.25 15.7782 5.58579 15.4424 6 15.4424H10C10.4142 15.4424 10.75 15.7782 10.75 16.1924C10.75 16.6066 10.4142 16.9424 10 16.9424H6C5.58579 16.9424 5.25 16.6066 5.25 16.1924Z" fill="white"/>
<path fill-rule="evenodd" clip-rule="evenodd" d="M11.75 16.1924C11.75 15.7782 12.0858 15.4424 12.5 15.4424H14C14.4142 15.4424 14.75 15.7782 14.75 16.1924C14.75 16.6066 14.4142 16.9424 14 16.9424H12.5C12.0858 16.9424 11.75 16.6066 11.75 16.1924Z" fill="white"/>
</svg>
