<svg width="141" height="30" viewBox="0 0 141 30" fill="none" xmlns="http://www.w3.org/2000/svg">
<g clip-path="url(#clip0_431_17547)">
<path d="M-0.101193 26.6421C-0.10378 26.4247 -0.10378 26.4247 -0.10642 26.2028C-0.111025 25.7223 -0.110042 25.2418 -0.108618 24.7612C-0.109766 24.4222 -0.111101 24.0832 -0.11261 23.7442C-0.11486 23.0303 -0.114244 22.3163 -0.111747 21.6024C-0.109468 20.8814 -0.111102 20.1605 -0.116901 19.4396C-0.144386 16.0017 -0.169594 12.5722 0.431364 9.15359C0.486722 8.82813 0.486722 8.82813 0.543199 8.4961C0.905728 6.69338 1.5556 4.53547 3.77041 3.33716C6.52877 2.07504 10.7805 2.26891 13.9702 2.26823C14.3443 2.26692 14.7184 2.26547 15.0925 2.26388C16.1008 2.26 17.1091 2.25809 18.1174 2.25654C19.1931 2.25452 20.2688 2.25056 21.3444 2.24681C23.1743 2.24065 25.0042 2.23557 26.8342 2.23126C29.682 2.22451 32.5299 2.21537 35.3777 2.20567C35.6124 2.20487 35.8471 2.20407 36.089 2.20325C37.0328 2.20005 37.9766 2.19684 38.9204 2.19361C40.3238 2.18881 41.7272 2.18417 43.1306 2.17966C52.7314 2.14876 62.3315 2.09163 71.9313 1.99497C72.9972 1.98424 74.063 1.97423 75.1289 1.9647C86.872 1.85769 98.6195 1.54673 110.349 1.15566C110.527 1.14973 110.706 1.14379 110.89 1.13767C111.595 1.11419 112.301 1.09066 113.006 1.06713C118.138 0.896086 123.262 0.745829 128.402 0.7509C128.728 0.751097 128.728 0.751097 129.06 0.751299C131.308 0.755342 133.555 0.791155 135.802 0.855568C135.998 0.860102 136.195 0.864634 136.397 0.869305C137.938 0.920349 139.262 1.15395 140.498 1.81084C141.015 2.33397 141.188 2.67759 141.153 3.30735C140.741 4.30518 139.227 4.84261 137.975 5.33051C137.128 5.62369 136.274 5.90076 135.411 6.17142C134.615 6.42196 133.823 6.6778 133.03 6.93367C130.023 7.9006 127.003 8.84266 123.95 9.74119C123.719 9.80905 123.489 9.8769 123.251 9.94681C122.118 10.2801 120.983 10.6115 119.846 10.9405C117.766 11.5462 115.746 12.1489 113.856 13.0038C114.326 13.7131 115.026 14.0825 115.929 14.5407C116.25 14.707 116.571 14.8733 116.892 15.0396C117.056 15.124 117.22 15.2084 117.389 15.2954C118.144 15.6854 118.89 16.083 119.637 16.4804C119.93 16.6362 120.224 16.7918 120.517 16.9475C120.663 17.0244 120.808 17.1014 120.957 17.1807C121.394 17.4119 121.83 17.6428 122.267 17.8736C123.944 18.7608 125.614 19.6543 127.276 20.5542C128.179 21.0425 129.086 21.5273 129.997 22.0082C130.577 22.3144 131.156 22.6219 131.734 22.9298C132.065 23.1056 132.396 23.2809 132.728 23.4559C133.272 23.7437 133.814 24.0336 134.356 24.324C134.523 24.412 134.691 24.5 134.864 24.5906C135.956 25.1805 136.75 25.7626 137.482 26.5711C137.499 27.2728 137.404 27.6097 136.759 28.161C135.97 28.5684 135.322 28.6278 134.359 28.636C134.13 28.6384 133.902 28.6407 133.666 28.6431C133.415 28.6449 133.164 28.6467 132.905 28.6485C132.639 28.651 132.372 28.6535 132.098 28.6561C131.514 28.6616 130.929 28.6667 130.345 28.6714C129.4 28.6792 128.454 28.6879 127.509 28.6969C126.321 28.7082 125.133 28.7193 123.945 28.73C120.151 28.7644 116.356 28.8028 112.562 28.8433C112.287 28.8463 112.287 28.8463 112.006 28.8493C104.677 28.9277 97.351 29.0418 90.0246 29.1836C89.2109 29.1994 88.3971 29.2149 87.5834 29.2304C87.0609 29.2405 86.5384 29.2505 86.016 29.2606C85.796 29.2648 85.576 29.269 85.3493 29.2733C84.5513 29.2888 83.7533 29.3051 82.9553 29.3216C82.7484 29.3258 82.5415 29.3301 82.3284 29.3344C79.5331 29.392 76.7387 29.4562 73.9449 29.5397C66.2823 29.7661 58.6353 29.8445 50.9659 29.8389C49.3925 29.838 47.8191 29.8388 46.2457 29.8393C43.6182 29.8399 40.9906 29.8392 38.363 29.8375C35.6743 29.8359 32.9857 29.8359 30.2969 29.8375C27.3339 29.8393 24.3708 29.84 21.4077 29.839C19.8509 29.8385 18.2941 29.8384 16.7373 29.8395C15.2817 29.8405 13.8262 29.8398 12.3706 29.8379C11.84 29.8374 11.3094 29.8375 10.7788 29.8383C3.07643 29.8482 3.07643 29.8482 0.754371 28.9453C-0.135326 28.2472 -0.10854 27.5229 -0.101193 26.6421ZM4.52442 26.7407C6.57809 27.2737 9.0548 27.2018 11.232 27.2706C11.4537 27.2776 11.6755 27.2847 11.904 27.2919C30.5303 27.8515 49.2379 27.2633 67.8613 26.9103C68.0762 26.9062 68.2912 26.9021 68.5126 26.8979C71.351 26.8441 74.1894 26.7902 77.0277 26.7362C78.5222 26.7077 80.0167 26.6793 81.5111 26.651C82.7654 26.6272 84.0197 26.6033 85.274 26.5795C85.523 26.5747 85.772 26.57 86.0285 26.5651C88.9791 26.5091 91.9296 26.4523 94.88 26.3945C97.4307 26.3446 99.9814 26.2953 102.532 26.2465C102.755 26.2422 102.977 26.2379 103.206 26.2335C108.037 26.1408 112.868 26.0558 117.7 26.0055C117.89 26.0035 118.081 26.0015 118.276 25.9995C120.221 25.9795 122.165 25.9621 124.11 25.9474C124.419 25.9448 124.729 25.9422 125.048 25.9395C125.62 25.9348 126.192 25.9307 126.765 25.9275C127.013 25.9254 127.261 25.9233 127.517 25.9211C127.732 25.9197 127.947 25.9183 128.169 25.9168C128.701 25.9144 128.701 25.9144 129.188 25.7231C129.046 25.1315 128.788 24.8967 128.101 24.5247C127.927 24.4294 127.753 24.334 127.574 24.2358C127.386 24.1355 127.198 24.0352 127.004 23.9318C126.811 23.8268 126.618 23.7218 126.419 23.6136C125.836 23.2974 125.25 22.9836 124.663 22.6705C124.421 22.5406 124.421 22.5406 124.174 22.408C123.31 21.9457 122.442 21.4869 121.572 21.03C120.842 20.6456 120.114 20.2588 119.385 19.8722C119.092 19.717 118.8 19.5618 118.507 19.4065C117.917 19.0937 117.327 18.7806 116.738 18.4672C115.027 17.5583 113.309 16.6572 111.578 15.7663C111.213 15.5741 111.213 15.5741 110.84 15.3781C110.704 15.3076 110.568 15.2372 110.429 15.1646C109.487 14.6602 108.932 14.2951 108.745 13.4874C108.721 12.5554 108.854 12.0154 109.835 11.3079C114.1 8.99005 120.067 7.73973 125.048 6.28292C128.464 5.34985 128.464 5.34985 131.701 4.18511C131.784 4.01722 131.867 3.84932 131.952 3.67634C129.077 2.70634 122.928 3.51036 119.62 3.56637C119.315 3.5715 119.315 3.5715 119.004 3.57673C112.347 3.69208 105.695 3.92035 99.0426 4.12945C97.1992 4.18738 95.3557 4.24461 93.5122 4.30097C92.6779 4.32672 91.8437 4.3534 91.0095 4.38014C81.437 4.67891 71.8589 4.72183 62.2778 4.73974C60.6984 4.74289 59.119 4.747 57.5396 4.75104C53.2114 4.76194 48.8832 4.77148 44.5549 4.78088C43.5389 4.78309 42.5228 4.78531 41.5067 4.78754C41.256 4.78809 41.256 4.78809 41.0001 4.78865C38.196 4.79481 35.3918 4.80159 32.5877 4.80879C30.7226 4.81354 28.8576 4.81756 26.9926 4.82099C25.8291 4.82328 24.6656 4.82623 23.502 4.82935C22.97 4.83064 22.4379 4.83168 21.9059 4.83242C19.1454 4.83638 16.3899 4.86431 13.6315 4.93968C13.3895 4.94621 13.1475 4.95274 12.8981 4.95947C9.25984 4.94352 9.25984 4.94352 6.03244 5.88102C2.64338 9.06265 3.88479 15.0838 3.92342 18.7838C3.92893 19.4521 3.92868 20.1205 3.92838 20.7888C3.92851 21.4348 3.93126 22.0807 3.93491 22.7267C3.93651 23.0339 3.9375 23.3412 3.93787 23.6484C3.93896 24.0735 3.94335 24.4985 3.94873 24.9235C3.9485 25.0493 3.94827 25.1751 3.94804 25.3046C3.95971 25.9327 3.9941 26.2039 4.52442 26.7407Z" fill="#494949"/>
<path d="M134.414 2.28467L6.07078 4.21627L2.25388 8.07948L1.29965 19.991L1.29965 27.3955L4.63944 28.6833L42.3314 28.6833L132.506 27.3955L134.414 26.4297L111.036 13.5524V12.2646L137.754 3.25047L134.414 2.28467Z" fill="#494949"/>
<path d="M32.3147 11.0145H34.1347V20.8145H32.3147V11.0145ZM27.2467 20.8145H25.4267L25.4267 11.0145H27.2467L27.2467 20.8145ZM32.4547 16.6145H27.0927V15.0605H32.4547V16.6145ZM41.4337 20.9545C40.6684 20.9545 39.9637 20.8285 39.3197 20.5765C38.6757 20.3245 38.1157 19.9745 37.6397 19.5265C37.1637 19.0691 36.7951 18.5371 36.5337 17.9305C36.2724 17.3145 36.1417 16.6425 36.1417 15.9145C36.1417 15.1865 36.2724 14.5191 36.5337 13.9125C36.7951 13.2965 37.1637 12.7645 37.6397 12.3165C38.1157 11.8591 38.6757 11.5045 39.3197 11.2525C39.9637 11.0005 40.6637 10.8745 41.4197 10.8745C42.1851 10.8745 42.8851 11.0005 43.5197 11.2525C44.1637 11.5045 44.7237 11.8591 45.1997 12.3165C45.6757 12.7645 46.0444 13.2965 46.3057 13.9125C46.5671 14.5191 46.6977 15.1865 46.6977 15.9145C46.6977 16.6425 46.5671 17.3145 46.3057 17.9305C46.0444 18.5465 45.6757 19.0785 45.1997 19.5265C44.7237 19.9745 44.1637 20.3245 43.5197 20.5765C42.8851 20.8285 42.1897 20.9545 41.4337 20.9545ZM41.4197 19.3585C41.9144 19.3585 42.3717 19.2745 42.7917 19.1065C43.2117 18.9385 43.5757 18.7005 43.8837 18.3925C44.1917 18.0751 44.4297 17.7111 44.5977 17.3005C44.7751 16.8805 44.8637 16.4185 44.8637 15.9145C44.8637 15.4105 44.7751 14.9531 44.5977 14.5425C44.4297 14.1225 44.1917 13.7585 43.8837 13.4505C43.5757 13.1331 43.2117 12.8905 42.7917 12.7225C42.3717 12.5545 41.9144 12.4705 41.4197 12.4705C40.9251 12.4705 40.4677 12.5545 40.0477 12.7225C39.6371 12.8905 39.2731 13.1331 38.9557 13.4505C38.6477 13.7585 38.4051 14.1225 38.2277 14.5425C38.0597 14.9531 37.9757 15.4105 37.9757 15.9145C37.9757 16.4091 38.0597 16.8665 38.2277 17.2865C38.4051 17.7065 38.6477 18.0751 38.9557 18.3925C39.2637 18.7005 39.6277 18.9385 40.0477 19.1065C40.4677 19.2745 40.9251 19.3585 41.4197 19.3585ZM48.7239 20.8145V11.0145H53.1059C54.2072 11.0145 55.0659 11.2338 55.6819 11.6725C56.2979 12.1018 56.6059 12.7225 56.6059 13.5345C56.6059 14.3371 56.3119 14.9578 55.7239 15.3965C55.1359 15.8258 54.3612 16.0405 53.3999 16.0405L53.6519 15.5365C54.7439 15.5365 55.5886 15.7558 56.1859 16.1945C56.7832 16.6331 57.0819 17.2678 57.0819 18.0985C57.0819 18.9478 56.7692 19.6151 56.1439 20.1005C55.5186 20.5765 54.5946 20.8145 53.3719 20.8145H48.7239ZM50.5159 19.4145H53.3159C53.9506 19.4145 54.4312 19.2978 54.7579 19.0645C55.0846 18.8218 55.2479 18.4531 55.2479 17.9585C55.2479 17.4638 55.0846 17.1045 54.7579 16.8805C54.4312 16.6471 53.9506 16.5305 53.3159 16.5305H50.5159V19.4145ZM50.5159 15.2005H52.9519C53.5399 15.2005 53.9879 15.0838 54.2959 14.8505C54.6039 14.6078 54.7579 14.2625 54.7579 13.8145C54.7579 13.3478 54.6039 12.9978 54.2959 12.7645C53.9879 12.5311 53.5399 12.4145 52.9519 12.4145H50.5159V15.2005ZM59.1692 20.8145V11.0145H60.9612V17.9725L66.2252 11.0145H67.9192V20.8145H66.1272V13.8705L60.8632 20.8145H59.1692ZM77.5549 11.0145H79.3749V20.8145H77.5549V11.0145ZM72.4869 20.8145H70.6669V11.0145H72.4869V20.8145ZM77.6949 16.6145L72.3329 16.6145V15.0605L77.6949 15.0605V16.6145ZM88.606 20.8145L85.288 16.0405L86.758 15.1305L90.664 20.8145H88.606ZM82.124 20.8145V11.0145H83.916V20.8145H82.124ZM83.37 16.6845V15.1165H86.674V16.6845H83.37ZM86.926 16.1245L85.26 15.9005L88.606 11.0145H90.538L86.926 16.1245ZM90.4893 20.8145L94.8993 11.0145H96.6913L101.115 20.8145H99.2113L95.4173 11.9805H96.1453L92.3653 20.8145H90.4893ZM92.5193 18.5465L93.0093 17.1185H98.3013L98.7913 18.5465H92.5193Z" fill="white"/>
</g>
<defs>
<clipPath id="clip0_431_17547">
<rect width="29" height="141" fill="white" transform="matrix(0 -1 1 0 0 29.793)"/>
</clipPath>
</defs>
</svg>
