<svg width="106" height="20" viewBox="0 0 106 20" fill="none" xmlns="http://www.w3.org/2000/svg">
<g clip-path="url(#clip0_431_23291)">
<path d="M-0.0760529 17.827C-0.0779981 17.677 -0.0779981 17.677 -0.0799826 17.524C-0.0834446 17.1926 -0.0827055 16.8612 -0.0816346 16.5298C-0.0824982 16.296 -0.0835012 16.0622 -0.084636 15.8284C-0.0863271 15.336 -0.085864 14.8437 -0.0839873 14.3513C-0.0822735 13.8541 -0.0835019 13.3569 -0.0878622 12.8597C-0.108525 10.4887 -0.127475 8.12358 0.324309 5.76592C0.365926 5.54146 0.365926 5.54146 0.408384 5.31248C0.680923 4.06922 1.16948 2.58101 2.83452 1.75459C4.90818 0.884165 8.10454 1.01787 10.5025 1.0174C10.7837 1.01649 11.065 1.01549 11.3462 1.0144C12.1042 1.01172 12.8622 1.01041 13.6202 1.00934C14.4289 1.00794 15.2375 1.00521 16.0462 1.00262C17.4219 0.998375 18.7975 0.994871 20.1732 0.991898C22.3142 0.98724 24.4551 0.98094 26.5961 0.974251C26.7725 0.973701 26.9489 0.97315 27.1307 0.972586C27.8403 0.970375 28.5498 0.968163 29.2593 0.965933C30.3144 0.962624 31.3694 0.959423 32.4245 0.956312C39.6421 0.935005 46.8591 0.895599 54.0761 0.828941C54.8773 0.821543 55.6786 0.814636 56.4799 0.808064C65.308 0.734266 74.1395 0.51981 82.9575 0.250109C83.0916 0.246014 83.2258 0.24192 83.364 0.2377C83.8943 0.221504 84.4246 0.205278 84.9549 0.189051C88.8134 0.0710888 92.6653 -0.0325356 96.5293 -0.0290394C96.7739 -0.028904 96.7739 -0.028904 97.0236 -0.0287647C98.7141 -0.0259762 100.403 -0.00127602 102.092 0.0431461C102.24 0.0462723 102.388 0.0493984 102.54 0.0526199C103.698 0.087822 104.694 0.248928 105.622 0.701954C106.011 1.06273 106.142 1.29971 106.115 1.73403C105.805 2.42219 104.667 2.79283 103.726 3.12931C103.089 3.33151 102.447 3.52259 101.798 3.70925C101.2 3.88203 100.604 4.05847 100.009 4.23494C97.7482 4.90179 95.4774 5.55149 93.1821 6.17116C93.0088 6.21796 92.8356 6.26476 92.6571 6.31297C91.8048 6.54282 90.9517 6.77137 90.0973 6.99827C88.5336 7.41599 87.0145 7.83167 85.5939 8.42125C85.9473 8.9104 86.4734 9.16514 87.1527 9.48119C87.3938 9.59585 87.6349 9.71052 87.876 9.82522C87.9994 9.88343 88.1228 9.94165 88.2499 10.0016C88.8175 10.2706 89.3784 10.5448 89.9397 10.8189C90.1603 10.9263 90.381 11.0337 90.6018 11.141C90.7109 11.1941 90.82 11.2472 90.9325 11.3019C91.2605 11.4613 91.5887 11.6205 91.917 11.7797C93.1781 12.3916 94.4332 13.0078 95.6831 13.6284C96.3618 13.9651 97.0431 14.2995 97.7283 14.6312C98.1645 14.8423 98.5994 15.0544 99.0341 15.2667C99.2829 15.388 99.532 15.5089 99.7814 15.6296C100.191 15.8281 100.598 16.028 101.005 16.2283C101.131 16.2889 101.257 16.3496 101.387 16.4121C102.208 16.8189 102.805 17.2204 103.355 17.778C103.368 18.2619 103.297 18.4942 102.812 18.8745C102.218 19.1554 101.732 19.1964 101.007 19.2021C100.836 19.2037 100.664 19.2053 100.487 19.207C100.298 19.2082 100.109 19.2094 99.9145 19.2107C99.7142 19.2124 99.514 19.2142 99.3077 19.216C98.8684 19.2197 98.4291 19.2232 97.9899 19.2265C97.2791 19.2318 96.5684 19.2379 95.8577 19.2441C94.9646 19.2518 94.0716 19.2595 93.1785 19.2669C90.326 19.2906 87.4735 19.3171 84.6211 19.345C84.4142 19.3471 84.4142 19.3471 84.2031 19.3491C78.6937 19.4033 73.1859 19.4819 67.6781 19.5798C67.0664 19.5906 66.4546 19.6013 65.8428 19.612C65.4501 19.6189 65.0573 19.6259 64.6645 19.6328C64.4991 19.6357 64.3338 19.6386 64.1634 19.6416C63.5634 19.6523 62.9635 19.6635 62.3636 19.6749C62.2081 19.6778 62.0525 19.6807 61.8923 19.6837C59.7909 19.7234 57.6901 19.7677 55.5898 19.8253C49.8293 19.9814 44.0805 20.0355 38.3148 20.0316C37.132 20.031 35.9491 20.0316 34.7663 20.0319C32.791 20.0324 30.8157 20.0318 28.8403 20.0307C26.819 20.0296 24.7977 20.0296 22.7765 20.0307C20.5489 20.032 18.3213 20.0324 16.0938 20.0317C14.9234 20.0314 13.753 20.0313 12.5827 20.0321C11.4884 20.0328 10.3942 20.0323 9.29989 20.0309C8.90102 20.0306 8.50214 20.0307 8.10326 20.0312C2.3128 20.0381 2.3128 20.0381 0.567137 19.4154C-0.101713 18.9339 -0.0815764 18.4344 -0.0760529 17.827ZM3.40136 17.8949C4.94525 18.2626 6.80717 18.213 8.44392 18.2604C8.61064 18.2653 8.77736 18.2701 8.94913 18.2751C22.9519 18.661 37.0157 18.2554 51.0163 18.0119C51.1779 18.0091 51.3395 18.0063 51.506 18.0034C53.6398 17.9663 55.7736 17.9291 57.9074 17.8918C59.0309 17.8722 60.1544 17.8526 61.2779 17.8331C62.2208 17.8167 63.1638 17.8002 64.1067 17.7838C64.2939 17.7805 64.4811 17.7772 64.674 17.7739C66.8921 17.7352 69.1102 17.6961 71.3283 17.6562C73.2458 17.6218 75.1633 17.5878 77.0809 17.5541C77.2482 17.5512 77.4154 17.5482 77.5878 17.5452C81.2196 17.4812 84.8511 17.4226 88.484 17.3879C88.6269 17.3866 88.7698 17.3852 88.917 17.3838C90.3788 17.37 91.8407 17.358 93.3026 17.3478C93.5352 17.3461 93.7679 17.3443 94.0076 17.3424C94.4378 17.3392 94.868 17.3364 95.2982 17.3341C95.4848 17.3327 95.6714 17.3312 95.8637 17.3297C96.0254 17.3288 96.1871 17.3278 96.3537 17.3268C96.7541 17.3251 96.7541 17.3251 97.1197 17.1932C97.0132 16.7852 96.8194 16.6232 96.3027 16.3667C96.172 16.3009 96.0412 16.2352 95.9066 16.1674C95.7652 16.0982 95.6239 16.0291 95.4782 15.9578C95.3331 15.8854 95.188 15.813 95.0385 15.7384C94.6002 15.5203 94.1598 15.3038 93.7187 15.0879C93.5364 14.9983 93.5364 14.9983 93.3504 14.9069C92.7011 14.588 92.0489 14.2717 91.3949 13.9565C90.8456 13.6914 90.2983 13.4247 89.7507 13.1581C89.5306 13.051 89.3104 12.944 89.0902 12.8369C88.6466 12.6212 88.2032 12.4052 87.7601 12.1891C86.4744 11.5623 85.1828 10.9408 83.8815 10.3264C83.6068 10.1939 83.6068 10.1939 83.3265 10.0587C83.2244 10.0101 83.1224 9.96151 83.0173 9.91145C82.3091 9.56359 81.8921 9.31178 81.7514 8.75477C81.7332 8.11198 81.8339 7.73958 82.5707 7.25166C85.7774 5.65313 90.263 4.79084 94.0081 3.78615C96.5757 3.14265 96.5757 3.14265 99.0092 2.33938C99.0716 2.22359 99.1339 2.1078 99.1982 1.9885C97.0367 1.31954 92.4137 1.87404 89.9271 1.91266C89.698 1.9162 89.698 1.9162 89.4643 1.91981C84.4593 1.99936 79.4586 2.15679 74.4576 2.301C73.0718 2.34095 71.6859 2.38041 70.3 2.41928C69.6728 2.43704 69.0456 2.45544 68.4185 2.47389C61.2222 2.67993 54.0216 2.70954 46.8188 2.72188C45.6315 2.72406 44.4441 2.72689 43.2568 2.72968C40.0029 2.7372 36.7491 2.74377 33.4952 2.75026C32.7314 2.75178 31.9675 2.75331 31.2037 2.75485C31.0151 2.75523 31.0151 2.75523 30.8228 2.75562C28.7147 2.75986 26.6066 2.76454 24.4986 2.7695C23.0965 2.77278 21.6944 2.77555 20.2923 2.77792C19.4176 2.7795 18.5429 2.78154 17.6682 2.78368C17.2682 2.78458 16.8683 2.78529 16.4683 2.7858C14.393 2.78853 12.3215 2.80779 10.2478 2.85977C10.0659 2.86428 9.88392 2.86878 9.69646 2.87342C6.96132 2.86242 6.96132 2.86242 4.53505 3.50897C1.98725 5.7032 2.9205 9.85572 2.94954 12.4074C2.95368 12.8684 2.9535 13.3293 2.95327 13.7902C2.95337 14.2357 2.95544 14.6812 2.95818 15.1267C2.95938 15.3386 2.96013 15.5505 2.96041 15.7624C2.96123 16.0555 2.96452 16.3486 2.96857 16.6417C2.9684 16.7285 2.96823 16.8152 2.96805 16.9046C2.97682 17.3377 3.00268 17.5248 3.40136 17.8949Z" fill="#494949"/>
<path d="M101.049 1.02869L4.56386 2.36083L1.69441 5.02511L0.977051 13.24L0.977051 18.3465L3.48782 19.2346L31.8236 19.2346L99.6143 18.3465L101.049 17.6804L83.4736 8.79951V7.91141L103.56 1.69476L101.049 1.02869Z" fill="#494949"/>
<path d="M22.9 6.93018H24.2V13.9302H22.9V6.93018ZM19.28 13.9302H17.98L17.98 6.93018H19.28L19.28 13.9302ZM23 10.9302H19.17V9.82018H23V10.9302ZM29.4136 14.0302C28.8669 14.0302 28.3636 13.9402 27.9036 13.7602C27.4436 13.5802 27.0436 13.3302 26.7036 13.0102C26.3636 12.6835 26.1003 12.3035 25.9136 11.8702C25.7269 11.4302 25.6336 10.9502 25.6336 10.4302C25.6336 9.91018 25.7269 9.43351 25.9136 9.00018C26.1003 8.56018 26.3636 8.18018 26.7036 7.86018C27.0436 7.53351 27.4436 7.28018 27.9036 7.10018C28.3636 6.92018 28.8636 6.83018 29.4036 6.83018C29.9503 6.83018 30.4503 6.92018 30.9036 7.10018C31.3636 7.28018 31.7636 7.53351 32.1036 7.86018C32.4436 8.18018 32.7069 8.56018 32.8936 9.00018C33.0803 9.43351 33.1736 9.91018 33.1736 10.4302C33.1736 10.9502 33.0803 11.4302 32.8936 11.8702C32.7069 12.3102 32.4436 12.6902 32.1036 13.0102C31.7636 13.3302 31.3636 13.5802 30.9036 13.7602C30.4503 13.9402 29.9536 14.0302 29.4136 14.0302ZM29.4036 12.8902C29.7569 12.8902 30.0836 12.8302 30.3836 12.7102C30.6836 12.5902 30.9436 12.4202 31.1636 12.2002C31.3836 11.9735 31.5536 11.7135 31.6736 11.4202C31.8003 11.1202 31.8636 10.7902 31.8636 10.4302C31.8636 10.0702 31.8003 9.74351 31.6736 9.45018C31.5536 9.15018 31.3836 8.89018 31.1636 8.67018C30.9436 8.44351 30.6836 8.27018 30.3836 8.15018C30.0836 8.03018 29.7569 7.97018 29.4036 7.97018C29.0503 7.97018 28.7236 8.03018 28.4236 8.15018C28.1303 8.27018 27.8703 8.44351 27.6436 8.67018C27.4236 8.89018 27.2503 9.15018 27.1236 9.45018C27.0036 9.74351 26.9436 10.0702 26.9436 10.4302C26.9436 10.7835 27.0036 11.1102 27.1236 11.4102C27.2503 11.7102 27.4236 11.9735 27.6436 12.2002C27.8636 12.4202 28.1236 12.5902 28.4236 12.7102C28.7236 12.8302 29.0503 12.8902 29.4036 12.8902ZM34.6209 13.9302V6.93018H37.7509C38.5375 6.93018 39.1509 7.08684 39.5909 7.40018C40.0309 7.70684 40.2509 8.15018 40.2509 8.73018C40.2509 9.30351 40.0409 9.74684 39.6209 10.0602C39.2009 10.3668 38.6475 10.5202 37.9609 10.5202L38.1409 10.1602C38.9209 10.1602 39.5242 10.3168 39.9509 10.6302C40.3775 10.9435 40.5909 11.3968 40.5909 11.9902C40.5909 12.5968 40.3675 13.0735 39.9209 13.4202C39.4742 13.7602 38.8142 13.9302 37.9409 13.9302H34.6209ZM35.9009 12.9302H37.9009C38.3542 12.9302 38.6975 12.8468 38.9309 12.6802C39.1642 12.5068 39.2809 12.2435 39.2809 11.8902C39.2809 11.5368 39.1642 11.2802 38.9309 11.1202C38.6975 10.9535 38.3542 10.8702 37.9009 10.8702H35.9009V12.9302ZM35.9009 9.92018H37.6409C38.0609 9.92018 38.3809 9.83684 38.6009 9.67018C38.8209 9.49684 38.9309 9.25018 38.9309 8.93018C38.9309 8.59684 38.8209 8.34684 38.6009 8.18018C38.3809 8.01351 38.0609 7.93018 37.6409 7.93018H35.9009V9.92018ZM42.0818 13.9302V6.93018H43.3618V11.9002L47.1218 6.93018H48.3318V13.9302H47.0518V8.97018L43.2918 13.9302H42.0818ZM55.2145 6.93018L56.5145 6.93018V13.9302H55.2145V6.93018ZM51.5945 13.9302H50.2945V6.93018H51.5945V13.9302ZM55.3145 10.9302L51.4845 10.9302V9.82018L55.3145 9.82018V10.9302ZM63.108 13.9302L60.738 10.5202L61.788 9.87018L64.578 13.9302H63.108ZM58.478 13.9302V6.93018H59.758V13.9302L58.478 13.9302ZM59.368 10.9802V9.86018H61.728V10.9802H59.368ZM61.908 10.5802L60.718 10.4202L63.108 6.93018H64.488L61.908 10.5802ZM64.4533 13.9302L67.6033 6.93018H68.8833L72.0433 13.9302H70.6833L67.9733 7.62018H68.4933L65.7933 13.9302H64.4533ZM65.9033 12.3102L66.2533 11.2902H70.0333L70.3833 12.3102H65.9033Z" fill="white"/>
</g>
<defs>
<clipPath id="clip0_431_23291">
<rect width="20" height="106" fill="white" transform="matrix(0 -1 1 0 0 20)"/>
</clipPath>
</defs>
</svg>
