<svg width="109" height="29" viewBox="0 0 109 29" fill="none" xmlns="http://www.w3.org/2000/svg">
<g clip-path="url(#clip0_431_17385)">
<path d="M-0.0782261 25.3022C-0.0802263 25.0923 -0.0802263 25.0923 -0.082267 24.8781C-0.085827 24.4141 -0.085067 23.9502 -0.0839658 23.4862C-0.0848538 23.1589 -0.0858852 22.8316 -0.0870521 22.5043C-0.088791 21.8149 -0.0883149 21.1256 -0.086385 20.4362C-0.0846228 19.7401 -0.0858859 19.0441 -0.0903696 18.348C-0.111617 15.0287 -0.131103 11.7174 0.333467 8.41672C0.376262 8.10249 0.376262 8.10249 0.419921 7.78191C0.700173 6.04135 1.20256 3.95785 2.91472 2.80086C5.04707 1.58227 8.33389 1.76945 10.7997 1.76879C11.0889 1.76753 11.3781 1.76612 11.6673 1.76459C12.4468 1.76085 13.2262 1.759 14.0057 1.75751C14.8372 1.75555 15.6688 1.75173 16.5003 1.74811C17.9149 1.74216 19.3295 1.73726 20.7441 1.73309C22.9457 1.72657 25.1472 1.71775 27.3488 1.70839C27.5302 1.70762 27.7116 1.70685 27.8986 1.70605C28.6282 1.70296 29.3578 1.69987 30.0874 1.69674C31.1723 1.69211 32.2572 1.68763 33.3421 1.68327C40.764 1.65344 48.1853 1.59827 55.6065 1.50496C56.4304 1.4946 57.2544 1.48493 58.0783 1.47573C67.1563 1.37241 76.2378 1.07217 85.3053 0.69459C85.4432 0.688856 85.5812 0.683125 85.7233 0.677217C86.2686 0.654543 86.8139 0.631826 87.3592 0.609108C91.3269 0.44396 95.2878 0.298885 99.2612 0.303782C99.5128 0.303972 99.5128 0.303972 99.7695 0.304167C101.508 0.308069 103.245 0.342649 104.982 0.40484C105.133 0.409218 105.285 0.413593 105.442 0.418102C106.633 0.467388 107.657 0.692934 108.612 1.32717C109.011 1.83227 109.146 2.16403 109.118 2.77207C108.8 3.73549 107.629 4.2544 106.662 4.72547C106.007 5.00855 105.347 5.27606 104.679 5.53739C104.064 5.77928 103.451 6.0263 102.839 6.27335C100.515 7.20694 98.1795 8.11652 95.8193 8.98406C95.6411 9.04958 95.463 9.11509 95.2794 9.18259C94.403 9.50438 93.5257 9.82436 92.6472 10.142C91.0392 10.7268 89.4771 11.3088 88.0163 12.1342C88.3798 12.819 88.9207 13.1756 89.6193 13.6181C89.8672 13.7786 90.1151 13.9392 90.363 14.0997C90.4899 14.1812 90.6168 14.2627 90.7475 14.3467C91.3312 14.7233 91.908 15.1072 92.4851 15.4909C92.712 15.6413 92.9389 15.7916 93.1659 15.9418C93.2782 16.0162 93.3904 16.0905 93.506 16.1671C93.8433 16.3903 94.1808 16.6132 94.5184 16.836C95.8152 17.6926 97.1058 18.5553 98.391 19.4243C99.0889 19.8956 99.7896 20.3638 100.494 20.8281C100.943 21.1237 101.39 21.4207 101.837 21.7179C102.093 21.8876 102.349 22.0569 102.605 22.2259C103.026 22.5037 103.445 22.7837 103.864 23.064C103.993 23.149 104.123 23.2339 104.256 23.3214C105.1 23.8909 105.715 24.453 106.28 25.2336C106.294 25.9111 106.22 26.2364 105.722 26.7687C105.111 27.162 104.611 27.2194 103.866 27.2273C103.689 27.2296 103.513 27.2319 103.331 27.2342C103.136 27.2359 102.942 27.2376 102.742 27.2394C102.536 27.2418 102.33 27.2443 102.118 27.2468C101.667 27.252 101.215 27.2569 100.763 27.2615C100.032 27.269 99.3014 27.2774 98.5706 27.2861C97.6523 27.297 96.7339 27.3077 95.8156 27.3181C92.8823 27.3513 89.9492 27.3884 87.016 27.4275C86.8032 27.4303 86.8032 27.4303 86.5861 27.4332C80.9209 27.509 75.2572 27.6191 69.5935 27.7561C68.9644 27.7713 68.3354 27.7863 67.7063 27.8013C67.3024 27.811 66.8985 27.8207 66.4946 27.8304C66.3246 27.8344 66.1545 27.8385 65.9793 27.8427C65.3623 27.8577 64.7454 27.8734 64.1285 27.8893C63.9686 27.8934 63.8087 27.8975 63.6439 27.9017C61.483 27.9572 59.3229 28.0193 57.163 28.0998C51.2395 28.3184 45.328 28.3942 39.3992 28.3887C38.1829 28.3879 36.9665 28.3886 35.7502 28.3892C33.719 28.3897 31.6878 28.389 29.6565 28.3874C27.578 28.3858 25.4995 28.3858 23.421 28.3874C21.1304 28.3892 18.8398 28.3898 16.5492 28.3888C15.3457 28.3883 14.1423 28.3883 12.9388 28.3893C11.8135 28.3903 10.6883 28.3896 9.56308 28.3877C9.15291 28.3873 8.74274 28.3874 8.33258 28.3882C2.37824 28.3977 2.37824 28.3977 0.583167 27.526C-0.104613 26.8519 -0.0839059 26.1526 -0.0782261 25.3022ZM3.49761 25.3973C5.08519 25.912 6.99981 25.8426 8.68288 25.909C8.85431 25.9158 9.02575 25.9226 9.20238 25.9296C23.6015 26.4699 38.0633 25.902 52.4602 25.5611C52.6263 25.5572 52.7925 25.5532 52.9636 25.5492C55.1579 25.4972 57.3521 25.4452 59.5463 25.393C60.7016 25.3655 61.8568 25.3381 63.0121 25.3107C63.9818 25.2877 64.9514 25.2647 65.921 25.2417C66.1135 25.2372 66.306 25.2326 66.5043 25.2279C68.7852 25.1737 71.0661 25.1189 73.347 25.0632C75.3188 25.015 77.2906 24.9674 79.2624 24.9202C79.4344 24.9161 79.6064 24.9119 79.7836 24.9077C83.5182 24.8182 87.2526 24.7361 90.9883 24.6875C91.1352 24.6856 91.2821 24.6837 91.4335 24.6817C92.9367 24.6624 94.4399 24.6456 95.9432 24.6314C96.1824 24.6289 96.4217 24.6264 96.6682 24.6238C97.1105 24.6193 97.5529 24.6153 97.9953 24.6122C98.1872 24.6102 98.3791 24.6082 98.5768 24.6061C98.743 24.6047 98.9093 24.6033 99.0806 24.6019C99.4924 24.5996 99.4924 24.5996 99.8684 24.4149C99.7588 23.8437 99.5595 23.617 99.0282 23.2578C98.8938 23.1658 98.7594 23.0737 98.6209 22.9788C98.4755 22.882 98.3302 22.7851 98.1804 22.6854C98.0312 22.584 97.882 22.4826 97.7282 22.3781C97.2775 22.0728 96.8247 21.7698 96.371 21.4675C96.1836 21.3421 96.1836 21.3421 95.9923 21.2141C95.3247 20.7677 94.654 20.3248 93.9815 19.8836C93.4166 19.5124 92.8539 19.139 92.2908 18.7658C92.0644 18.6159 91.838 18.466 91.6115 18.3161C91.1554 18.0141 90.6995 17.7117 90.2439 17.4091C88.9218 16.5316 87.5936 15.6616 86.2555 14.8014C85.973 14.6159 85.973 14.6159 85.6848 14.4266C85.5798 14.3586 85.4749 14.2905 85.3668 14.2205C84.6386 13.7335 84.2098 13.3809 84.0651 12.6011C84.0464 11.7012 84.1499 11.1798 84.9076 10.4968C88.205 8.25882 92.8176 7.05161 96.6686 5.64505C99.309 4.74414 99.309 4.74414 101.811 3.61957C101.875 3.45746 101.94 3.29536 102.006 3.12834C99.783 2.19179 95.0292 2.96809 92.4722 3.02217C92.2366 3.02712 92.2366 3.02712 91.9963 3.03217C86.8496 3.14354 81.7074 3.36394 76.5649 3.56583C75.1398 3.62176 73.7147 3.67702 72.2896 3.73143C71.6446 3.75629 70.9997 3.78205 70.3548 3.80788C62.9548 4.09634 55.5505 4.13779 48.1438 4.15507C46.9229 4.15812 45.7019 4.16209 44.481 4.16599C41.1351 4.17651 37.7891 4.18572 34.4432 4.1948C33.6577 4.19693 32.8722 4.19908 32.0868 4.20123C31.8929 4.20176 31.8929 4.20176 31.6951 4.2023C29.5274 4.20824 27.3596 4.21479 25.1919 4.22174C23.7501 4.22633 22.3084 4.23021 20.8666 4.23352C19.9672 4.23574 19.0677 4.23859 18.1682 4.24159C17.7569 4.24284 17.3456 4.24385 16.9343 4.24456C14.8003 4.24838 12.6702 4.27535 10.5378 4.34812C10.3507 4.35442 10.1636 4.36073 9.97087 4.36723C7.15831 4.35183 7.15831 4.35183 4.66338 5.257C2.04347 8.32892 3.00314 14.1424 3.033 17.7148C3.03726 18.3601 3.03706 19.0054 3.03683 19.6507C3.03694 20.2744 3.03906 20.8981 3.04188 21.5218C3.04312 21.8184 3.04388 22.1151 3.04417 22.4117C3.04501 22.8221 3.0484 23.2325 3.05257 23.6429C3.05239 23.7643 3.05221 23.8857 3.05203 24.0108C3.06105 24.6172 3.08764 24.8791 3.49761 25.3973Z" fill="#940B0E"/>
<path d="M103.909 1.78491L4.69302 3.64991L1.74236 7.3799L1.0047 18.8807L1.0047 26.0299L3.58652 27.2732H32.7243L102.434 26.0299L103.909 25.0974L85.8361 12.6641V11.4207L106.491 2.71741L103.909 1.78491Z" fill="#940B0E"/>
<path d="M21.135 19.8965L25.86 9.39648H27.78L32.52 19.8965H30.48L26.415 10.4315H27.195L23.145 19.8965H21.135ZM23.31 17.4665L23.835 15.9365H29.505L30.03 17.4665H23.31ZM41.0752 19.8965L37.5202 14.7815L39.0952 13.8065L43.2802 19.8965H41.0752ZM34.1302 19.8965V9.39648H36.0502V19.8965H34.1302ZM35.4652 15.4715V13.7915H39.0052V15.4715H35.4652ZM39.2752 14.8715L37.4902 14.6315L41.0752 9.39648H43.1452L39.2752 14.8715ZM44.6188 19.8965V9.39648H46.5388V18.2465H51.8338V9.39648H53.7688V19.8965H44.6188ZM53.5288 22.2065V19.4165L53.9638 19.8965H51.8338V18.2465H55.3288V22.2065H53.5288ZM57.1286 19.8965V9.39648H59.0486V19.8965H57.1286ZM68.1111 19.8965V16.5365L68.5911 16.9715H65.5161C64.6361 16.9715 63.8761 16.8265 63.2361 16.5365C62.6061 16.2365 62.1211 15.8115 61.7811 15.2615C61.4411 14.7015 61.2711 14.0315 61.2711 13.2515C61.2711 12.4415 61.4511 11.7515 61.8111 11.1815C62.1711 10.6015 62.6811 10.1615 63.3411 9.86148C64.0011 9.55148 64.7761 9.39648 65.6661 9.39648H70.0311V19.8965H68.1111ZM61.3011 19.8965L63.8961 16.1465H65.8611L63.3561 19.8965H61.3011ZM68.1111 15.9065V10.5065L68.5911 11.0465H65.7261C64.9261 11.0465 64.3111 11.2315 63.8811 11.6015C63.4611 11.9615 63.2511 12.5015 63.2511 13.2215C63.2511 13.9115 63.4511 14.4465 63.8511 14.8265C64.2611 15.1965 64.8611 15.3815 65.6511 15.3815H68.5911L68.1111 15.9065Z" fill="white"/>
</g>
<defs>
<clipPath id="clip0_431_17385">
<rect width="28" height="109" fill="white" transform="matrix(0 -1 1 0 0 28.3447)"/>
</clipPath>
</defs>
</svg>
