<svg width="95" height="29" viewBox="0 0 95 29" fill="none" xmlns="http://www.w3.org/2000/svg">
<g clip-path="url(#clip0_431_17264)">
<path d="M-0.0680616 25.7567C-0.0698013 25.54 -0.0698013 25.54 -0.0715761 25.319C-0.0746724 24.8401 -0.0740114 24.3613 -0.0730536 23.8825C-0.073826 23.5447 -0.074723 23.2069 -0.0757379 22.8691C-0.0772503 22.1577 -0.0768362 21.4463 -0.0751577 20.7349C-0.073625 20.0165 -0.0747236 19.2982 -0.0786232 18.5798C-0.0971026 15.1542 -0.114051 11.7369 0.290002 8.33052C0.327222 8.00623 0.327222 8.00623 0.365194 7.67538C0.608939 5.87909 1.04588 3.72888 2.535 2.53484C4.38958 1.27723 7.24824 1.47041 9.39283 1.46973C9.64435 1.46842 9.89588 1.46698 10.1474 1.4654C10.8253 1.46153 11.5033 1.45963 12.1812 1.45808C12.9044 1.45606 13.6276 1.45212 14.3508 1.44838C15.5812 1.44225 16.8115 1.43718 18.0419 1.43289C19.9566 1.42616 21.8714 1.41706 23.7861 1.40739C23.9439 1.4066 24.1017 1.4058 24.2643 1.40499C24.8989 1.40179 25.5334 1.3986 26.168 1.39537C27.1116 1.39059 28.0552 1.38597 28.9987 1.38147C35.4538 1.35069 41.9084 1.29375 48.3628 1.19744C49.0794 1.18675 49.796 1.17678 50.5127 1.16728C58.4081 1.06066 66.3065 0.750803 74.1929 0.361132C74.3128 0.355215 74.4328 0.349298 74.5564 0.343203C75.0307 0.319803 75.505 0.296358 75.9793 0.272913C79.4301 0.102478 82.875 -0.0472431 86.3308 -0.0421906C86.5496 -0.0419941 86.5496 -0.0419941 86.7729 -0.0417938C88.2848 -0.0377636 89.7954 -0.00207901 91.306 0.0621052C91.4381 0.0666218 91.5702 0.0711384 91.7064 0.0757923C92.742 0.126656 93.6327 0.359425 94.4632 1.01397C94.8107 1.53524 94.9276 1.87763 94.9035 2.50514C94.6268 3.49941 93.6087 4.03492 92.7674 4.52108C92.1977 4.81322 91.6237 5.0893 91.0431 5.359C90.5078 5.60864 89.9752 5.86356 89.4425 6.11853C87.4209 7.08201 85.39 8.02071 83.3372 8.91603C83.1823 8.98365 83.0273 9.05126 82.8677 9.12092C82.1055 9.45302 81.3425 9.78324 80.5784 10.1111C79.1798 10.7146 77.8212 11.3152 76.5507 12.167C76.8668 12.8738 77.3373 13.2418 77.9449 13.6985C78.1605 13.8641 78.3762 14.0298 78.5918 14.1955C78.7021 14.2796 78.8124 14.3637 78.9261 14.4504C79.4338 14.8391 79.9354 15.2353 80.4374 15.6312C80.6347 15.7864 80.8321 15.9415 81.0295 16.0966C81.1271 16.1733 81.2248 16.25 81.3253 16.329C81.6187 16.5594 81.9122 16.7894 82.2058 17.0194C83.3337 17.9034 84.4562 18.7938 85.574 19.6905C86.181 20.177 86.7904 20.6601 87.4032 21.1393C87.7932 21.4444 88.1822 21.7508 88.571 22.0576C88.7935 22.2327 89.0163 22.4075 89.2394 22.5818C89.6054 22.8686 89.9696 23.1575 90.3336 23.4468C90.4464 23.5345 90.5591 23.6222 90.6752 23.7125C91.4093 24.3002 91.9436 24.8803 92.4354 25.6859C92.4472 26.3851 92.3833 26.7208 91.9496 27.2701C91.4187 27.6761 90.9837 27.7353 90.3359 27.7435C90.1822 27.7458 90.0285 27.7481 89.8702 27.7506C89.7013 27.7523 89.5324 27.7541 89.3583 27.7559C89.1793 27.7584 89.0002 27.7609 88.8157 27.7635C88.4228 27.7689 88.0299 27.774 87.6371 27.7787C87.0014 27.7865 86.3658 27.7952 85.7301 27.8041C84.9314 27.8154 84.1328 27.8264 83.334 27.8371C80.7829 27.8713 78.2318 27.9096 75.6807 27.95C75.4957 27.953 75.4957 27.953 75.3069 27.9559C70.3796 28.0341 65.4537 28.1478 60.5278 28.2891C59.9807 28.3048 59.4335 28.3203 58.8864 28.3358C58.5351 28.3458 58.1839 28.3558 57.8326 28.3658C57.6847 28.37 57.5368 28.3742 57.3844 28.3785C56.8478 28.394 56.3113 28.4102 55.7747 28.4266C55.6357 28.4308 55.4966 28.435 55.3533 28.4394C53.4739 28.4967 51.5951 28.5607 49.7166 28.6439C44.5647 28.8695 39.4233 28.9477 34.2668 28.942C33.2089 28.9411 32.151 28.942 31.0932 28.9425C29.3265 28.9431 27.5599 28.9423 25.7933 28.9407C23.9855 28.939 22.1778 28.939 20.37 28.9407C18.3778 28.9425 16.3856 28.9432 14.3934 28.9422C13.3467 28.9416 12.3 28.9415 11.2532 28.9427C10.2746 28.9437 9.29596 28.943 8.3173 28.941C7.96057 28.9406 7.60383 28.9407 7.2471 28.9414C2.06841 28.9513 2.06841 28.9513 0.507175 28.0517C-0.091011 27.356 -0.0730016 26.6343 -0.0680616 25.7567ZM3.04196 25.8549C4.42274 26.386 6.08794 26.3144 7.55177 26.383C7.70087 26.3899 7.84998 26.3969 8.0036 26.4041C20.527 26.9618 33.1049 26.3757 45.6264 26.0239C45.7709 26.0198 45.9154 26.0157 46.0643 26.0116C47.9726 25.958 49.881 25.9042 51.7894 25.8504C52.7942 25.8221 53.799 25.7938 54.8038 25.7655C55.6471 25.7418 56.4904 25.718 57.3337 25.6943C57.5011 25.6895 57.6685 25.6848 57.841 25.68C59.8248 25.6241 61.8086 25.5676 63.7923 25.51C65.5072 25.4602 67.2222 25.4111 68.9371 25.3624C69.0867 25.3582 69.2364 25.3539 69.3905 25.3495C72.6386 25.2571 75.8865 25.1724 79.1355 25.1223C79.2633 25.1204 79.3911 25.1184 79.5228 25.1163C80.8302 25.0964 82.1376 25.079 83.445 25.0644C83.6531 25.0618 83.8612 25.0592 84.0756 25.0566C84.4603 25.0519 84.845 25.0478 85.2298 25.0446C85.3967 25.0425 85.5636 25.0404 85.7355 25.0383C85.8801 25.0369 86.0247 25.0354 86.1737 25.034C86.5318 25.0315 86.5318 25.0315 86.8589 24.841C86.7636 24.2515 86.5902 24.0175 86.1281 23.6468C86.0112 23.5518 85.8943 23.4568 85.7739 23.3589C85.6475 23.259 85.521 23.159 85.3908 23.056C85.261 22.9514 85.1312 22.8468 84.9975 22.739C84.6055 22.4239 84.2117 22.1112 83.8171 21.7992C83.6541 21.6697 83.6541 21.6697 83.4877 21.5376C82.9071 21.077 82.3237 20.6199 81.7389 20.1646C81.2476 19.7815 80.7581 19.3961 80.2684 19.0109C80.0715 18.8563 79.8746 18.7016 79.6776 18.5469C79.2809 18.2352 78.8844 17.9232 78.4881 17.6109C77.3382 16.7053 76.1831 15.8073 75.0193 14.9196C74.7736 14.7282 74.7736 14.7282 74.5229 14.5328C74.4316 14.4626 74.3404 14.3924 74.2463 14.3201C73.613 13.8175 73.2401 13.4537 73.1143 12.6489C73.098 11.7202 73.188 11.1821 73.847 10.4772C76.7149 8.16757 80.7266 6.92171 84.076 5.4701C86.3724 4.54035 86.3724 4.54035 88.5487 3.37977C88.6045 3.21247 88.6603 3.04518 88.7177 2.87281C86.7846 1.90627 82.6501 2.70743 80.4262 2.76324C80.2213 2.76835 80.2213 2.76835 80.0122 2.77356C75.536 2.8885 71.0636 3.11596 66.591 3.32431C65.3516 3.38203 64.1121 3.43906 62.8726 3.49521C62.3117 3.52087 61.7508 3.54746 61.1899 3.57411C54.7539 3.87181 48.3141 3.91458 41.8723 3.93242C40.8104 3.93556 39.7485 3.93966 38.6866 3.94368C35.7765 3.95454 32.8665 3.96405 29.9564 3.97342C29.2732 3.97562 28.5901 3.97783 27.9069 3.98005C27.7383 3.9806 27.7383 3.9806 27.5663 3.98116C25.6809 3.98729 23.7956 3.99405 21.9102 4.00122C20.6563 4.00595 19.4023 4.00996 18.1484 4.01338C17.3661 4.01567 16.5838 4.01861 15.8015 4.02171C15.4438 4.023 15.0861 4.02404 14.7283 4.02477C12.8723 4.02871 11.0197 4.05655 9.16508 4.13165C9.00235 4.13815 8.83963 4.14466 8.67197 4.15137C6.2258 4.13548 6.2258 4.13548 4.05587 5.06963C1.77725 8.23991 2.6119 14.2396 2.63788 17.9264C2.64158 18.5923 2.64141 19.2583 2.64121 19.9243C2.6413 20.5679 2.64315 21.2115 2.6456 21.8552C2.64668 22.1613 2.64734 22.4675 2.64759 22.7737C2.64832 23.1972 2.65127 23.6207 2.65489 24.0442C2.65474 24.1695 2.65459 24.2949 2.65443 24.424C2.66228 25.0498 2.6854 25.32 3.04196 25.8549Z" fill="#94C5E8"/>
<path d="M90.3731 1.48633L4.0817 3.41104L1.51541 7.26047L0.87384 19.1295L0.87384 26.5076L3.11934 27.7908H28.4614L89.0899 26.5076L90.3731 25.5453L74.6546 12.7138V11.4307L92.6186 2.44869L90.3731 1.48633Z" fill="#94C5E8"/>
<path d="M24.675 20V10.67L25.14 11.15H21.21V9.5H30.09V11.15H26.16L26.61 10.67V20H24.675ZM36.5003 20.15C35.6803 20.15 34.9253 20.015 34.2353 19.745C33.5453 19.475 32.9453 19.1 32.4353 18.62C31.9253 18.13 31.5303 17.56 31.2503 16.91C30.9703 16.25 30.8303 15.53 30.8303 14.75C30.8303 13.97 30.9703 13.255 31.2503 12.605C31.5303 11.945 31.9253 11.375 32.4353 10.895C32.9453 10.405 33.5453 10.025 34.2353 9.755C34.9253 9.485 35.6753 9.35 36.4853 9.35C37.3053 9.35 38.0553 9.485 38.7353 9.755C39.4253 10.025 40.0253 10.405 40.5353 10.895C41.0453 11.375 41.4403 11.945 41.7203 12.605C42.0003 13.255 42.1403 13.97 42.1403 14.75C42.1403 15.53 42.0003 16.25 41.7203 16.91C41.4403 17.57 41.0453 18.14 40.5353 18.62C40.0253 19.1 39.4253 19.475 38.7353 19.745C38.0553 20.015 37.3103 20.15 36.5003 20.15ZM36.4853 18.44C37.0153 18.44 37.5053 18.35 37.9553 18.17C38.4053 17.99 38.7953 17.735 39.1253 17.405C39.4553 17.065 39.7103 16.675 39.8903 16.235C40.0803 15.785 40.1753 15.29 40.1753 14.75C40.1753 14.21 40.0803 13.72 39.8903 13.28C39.7103 12.83 39.4553 12.44 39.1253 12.11C38.7953 11.77 38.4053 11.51 37.9553 11.33C37.5053 11.15 37.0153 11.06 36.4853 11.06C35.9553 11.06 35.4653 11.15 35.0153 11.33C34.5753 11.51 34.1853 11.77 33.8453 12.11C33.5153 12.44 33.2553 12.83 33.0653 13.28C32.8853 13.72 32.7953 14.21 32.7953 14.75C32.7953 15.28 32.8853 15.77 33.0653 16.22C33.2553 16.67 33.5153 17.065 33.8453 17.405C34.1753 17.735 34.5653 17.99 35.0153 18.17C35.4653 18.35 35.9553 18.44 36.4853 18.44ZM44.3112 20V9.5H53.5962V20H51.6762V10.67L52.1262 11.15H45.7812L46.2312 10.67V20H44.3112Z" fill="white"/>
</g>
<defs>
<clipPath id="clip0_431_17264">
<rect width="28.8966" height="94.801" fill="white" transform="matrix(0 -1 1 0 0 28.8966)"/>
</clipPath>
</defs>
</svg>
