<svg width="106" height="20" viewBox="0 0 106 20" fill="none" xmlns="http://www.w3.org/2000/svg">
<g clip-path="url(#clip0_704_5288)">
<path d="M-0.0846851 17.8032C-0.0859305 17.6537 -0.0859305 17.6537 -0.087201 17.5011C-0.0894174 17.1707 -0.0889442 16.8404 -0.0882586 16.51C-0.0888115 16.2769 -0.0894536 16.0438 -0.0901801 15.8108C-0.0912628 15.3199 -0.0909664 14.829 -0.0897648 14.3381C-0.0886677 13.8424 -0.0894541 13.3468 -0.0922456 12.8511C-0.105474 10.4875 -0.117606 8.12956 0.171632 5.77914C0.198276 5.55538 0.198276 5.55538 0.225458 5.3271C0.399942 4.08766 0.712725 2.60402 1.7787 1.78013C3.10629 0.912378 5.15265 1.04567 6.68784 1.0452C6.86789 1.0443 7.04795 1.0433 7.228 1.04221C7.71329 1.03954 8.19858 1.03823 8.68388 1.03716C9.20159 1.03577 9.7193 1.03305 10.237 1.03047C11.1177 1.02624 11.9985 1.02275 12.8792 1.01978C14.2499 1.01514 15.6205 1.00886 16.9912 1.00219C17.1041 1.00164 17.2171 1.00109 17.3335 1.00053C17.7877 0.998323 18.242 0.996119 18.6963 0.993896C19.3717 0.990595 20.0472 0.987406 20.7226 0.984304C25.3434 0.963062 29.9639 0.923777 34.5843 0.857325C35.0973 0.849949 35.6103 0.843063 36.1232 0.83651C41.7752 0.762939 47.4292 0.549141 53.0746 0.28027C53.1605 0.276186 53.2463 0.272104 53.3348 0.267899C53.6743 0.251753 54.0138 0.235577 54.3534 0.219398C56.8236 0.101799 59.2896 -0.00150871 61.7634 0.00197792C61.9201 0.00211334 61.9201 0.00211334 62.0799 0.00225067C63.1622 0.00503159 64.2436 0.0296555 65.3249 0.0739422C65.4195 0.0770588 65.5141 0.0801754 65.6115 0.0833855C66.3529 0.118481 66.9905 0.279091 67.585 0.730728C67.8338 1.0904 67.9174 1.32665 67.9002 1.75963C67.7021 2.44568 66.9733 2.81518 66.3711 3.15063C65.9632 3.35221 65.5523 3.5427 65.1367 3.72879C64.7535 3.90104 64.3723 4.07694 63.9909 4.25287C62.5438 4.91767 61.09 5.56537 59.6205 6.18314C59.5096 6.2298 59.3987 6.27645 59.2844 6.32452C58.7388 6.55366 58.1926 6.78151 57.6456 7.00771C56.6445 7.42415 55.6719 7.83855 54.7624 8.42632C54.9887 8.91397 55.3255 9.16793 55.7604 9.48301C55.9148 9.59731 56.0692 9.71163 56.2235 9.82598C56.3025 9.88402 56.3815 9.94205 56.4628 10.0018C56.8263 10.27 57.1854 10.5434 57.5447 10.8166C57.686 10.9237 57.8272 11.0307 57.9686 11.1377C58.0384 11.1907 58.1083 11.2436 58.1803 11.2981C58.3903 11.457 58.6004 11.6158 58.8106 11.7745C59.618 12.3844 60.4215 12.9988 61.2217 13.6175C61.6562 13.9532 62.0924 14.2866 62.5311 14.6172C62.8103 14.8277 63.0888 15.0391 63.3671 15.2508C63.5263 15.3717 63.6858 15.4922 63.8455 15.6125C64.1075 15.8104 64.3683 16.0097 64.6289 16.2094C64.7095 16.2699 64.7902 16.3303 64.8734 16.3927C65.3989 16.7982 65.7813 17.1985 66.1334 17.7543C66.1419 18.2368 66.0961 18.4684 65.7856 18.8474C65.4056 19.1275 65.0942 19.1684 64.6305 19.174C64.5205 19.1757 64.4104 19.1773 64.2971 19.1789C64.1762 19.1802 64.0553 19.1814 63.9307 19.1826C63.8025 19.1844 63.6743 19.1861 63.5422 19.1879C63.261 19.1916 62.9798 19.1951 62.6985 19.1984C62.2435 19.2037 61.7885 19.2097 61.3335 19.2159C60.7617 19.2237 60.19 19.2313 59.6182 19.2387C57.792 19.2623 55.9658 19.2887 54.1397 19.3166C54.0072 19.3186 54.0072 19.3186 53.872 19.3207C50.3449 19.3746 46.8187 19.453 43.2925 19.5506C42.9009 19.5614 42.5092 19.5721 42.1175 19.5827C41.8661 19.5896 41.6146 19.5965 41.3632 19.6035C41.2573 19.6064 41.1514 19.6092 41.0423 19.6122C40.6582 19.6229 40.2741 19.6341 39.8901 19.6454C39.7905 19.6483 39.6909 19.6512 39.5884 19.6542C38.243 19.6938 36.8981 19.738 35.5534 19.7953C31.8654 19.951 28.185 20.005 24.4937 20.001C23.7364 20.0004 22.9792 20.001 22.2219 20.0014C20.9573 20.0018 19.6926 20.0012 18.428 20.0001C17.1339 19.999 15.8399 19.999 14.5458 20.0001C13.1197 20.0014 11.6936 20.0018 10.2675 20.0011C9.51819 20.0008 8.7689 20.0007 8.01961 20.0015C7.31905 20.0022 6.61849 20.0017 5.91793 20.0004C5.66256 20.0001 5.4072 20.0001 5.15183 20.0007C1.44469 20.0075 1.44469 20.0075 0.327094 19.3867C-0.101113 18.9067 -0.0882214 18.4088 -0.0846851 17.8032ZM2.14161 17.8709C3.13003 18.2374 4.32206 18.188 5.36993 18.2353C5.47666 18.2401 5.5834 18.2449 5.69337 18.2499C14.6581 18.6347 23.662 18.2303 32.6254 17.9875C32.7288 17.9847 32.8323 17.9819 32.9389 17.979C34.305 17.9421 35.6711 17.905 37.0372 17.8678C37.7564 17.8483 38.4757 17.8288 39.195 17.8092C39.7987 17.7929 40.4024 17.7765 41.0061 17.7601C41.1259 17.7568 41.2457 17.7536 41.3692 17.7502C42.7893 17.7117 44.2094 17.6727 45.6294 17.633C46.857 17.5986 48.0847 17.5647 49.3123 17.5311C49.4194 17.5282 49.5265 17.5253 49.6368 17.5222C51.962 17.4585 54.2869 17.4 56.6128 17.3655C56.7042 17.3641 56.7957 17.3627 56.89 17.3613C57.8258 17.3476 58.7617 17.3356 59.6977 17.3255C59.8466 17.3237 59.9956 17.3219 60.149 17.3201C60.4245 17.3168 60.6999 17.3141 60.9753 17.3118C61.0948 17.3104 61.2142 17.309 61.3373 17.3075C61.4408 17.3065 61.5444 17.3055 61.651 17.3045C61.9074 17.3028 61.9074 17.3028 62.1415 17.1713C62.0733 16.7646 61.9492 16.6031 61.6184 16.3474C61.5347 16.2818 61.451 16.2163 61.3648 16.1487C61.2743 16.0797 61.1838 16.0108 61.0906 15.9397C60.9977 15.8675 60.9047 15.7953 60.809 15.721C60.5284 15.5035 60.2465 15.2878 59.964 15.0725C59.8473 14.9832 59.8473 14.9832 59.7283 14.892C59.3126 14.5742 58.895 14.2588 58.4763 13.9446C58.1246 13.6803 57.7743 13.4144 57.4237 13.1486C57.2828 13.0419 57.1418 12.9352 57.0008 12.8284C56.7168 12.6134 56.433 12.398 56.1493 12.1826C55.3262 11.5577 54.4993 10.9381 53.6662 10.3256C53.4903 10.1935 53.4903 10.1935 53.3108 10.0587C53.2455 10.0103 53.1802 9.96185 53.1128 9.91195C52.6595 9.56516 52.3925 9.31412 52.3025 8.75882C52.2908 8.118 52.3552 7.74675 52.827 7.26033C54.8799 5.6667 57.7517 4.80706 60.1493 3.80545C61.7932 3.16393 61.7932 3.16393 63.3511 2.36313C63.3911 2.24769 63.431 2.13226 63.4721 2.01333C62.0883 1.34642 59.1286 1.89921 57.5367 1.93772C57.39 1.94125 57.39 1.94125 57.2403 1.94485C54.0361 2.02415 50.8345 2.1811 47.6328 2.32486C46.7456 2.36469 45.8583 2.40404 44.9711 2.44278C44.5695 2.46049 44.168 2.47883 43.7665 2.49722C39.1593 2.70263 34.5494 2.73215 29.9381 2.74445C29.1779 2.74662 28.4178 2.74945 27.6576 2.75223C25.5745 2.75972 23.4913 2.76628 21.4081 2.77275C20.9191 2.77426 20.4301 2.77579 19.941 2.77732C19.8204 2.7777 19.8203 2.7777 19.6972 2.77808C18.3476 2.78232 16.998 2.78698 15.6483 2.79193C14.7507 2.79519 13.8531 2.79796 12.9554 2.80032C12.3954 2.8019 11.8355 2.80392 11.2755 2.80606C11.0194 2.80696 10.7633 2.80767 10.5072 2.80817C9.17861 2.8109 7.85243 2.8301 6.52481 2.88192C6.40832 2.88641 6.29183 2.8909 6.17182 2.89553C4.42074 2.88457 4.42074 2.88456 2.86741 3.52913C1.23627 5.71662 1.83375 9.85639 1.85234 12.4003C1.855 12.8598 1.85488 13.3193 1.85473 13.7788C1.8548 14.2229 1.85612 14.667 1.85788 15.1111C1.85864 15.3224 1.85912 15.5336 1.8593 15.7449C1.85982 16.0371 1.86194 16.3293 1.86453 16.6216C1.86442 16.708 1.86431 16.7945 1.86419 16.8836C1.86981 17.3154 1.88636 17.5019 2.14161 17.8709Z" fill="#94C5E8"/>
<path d="M64.3114 1.00189L3.17507 2.31897L1.35689 4.95311L0.902344 13.0751L0.902344 18.1238L2.49325 19.0019L20.4478 19.0019L63.4023 18.1238L64.3114 17.4653L53.1751 8.68482V7.80677L65.9023 1.66043L64.3114 1.00189Z" fill="#94C5E8"/>
<path d="M19.45 13.9301L19.45 7.71011L19.76 8.03011H17.14V6.93011H23.06V8.03011H20.44L20.74 7.71011L20.74 13.9301H19.45ZM27.3335 14.0301C26.7868 14.0301 26.2835 13.9401 25.8235 13.7601C25.3635 13.5801 24.9635 13.3301 24.6235 13.0101C24.2835 12.6834 24.0202 12.3034 23.8335 11.8701C23.6468 11.4301 23.5535 10.9501 23.5535 10.4301C23.5535 9.91011 23.6468 9.43345 23.8335 9.00011C24.0202 8.56011 24.2835 8.18011 24.6235 7.86011C24.9635 7.53345 25.3635 7.28011 25.8235 7.10011C26.2835 6.92011 26.7835 6.83011 27.3235 6.83011C27.8702 6.83011 28.3702 6.92011 28.8235 7.10011C29.2835 7.28011 29.6835 7.53345 30.0235 7.86011C30.3635 8.18011 30.6268 8.56011 30.8135 9.00011C31.0002 9.43345 31.0935 9.91011 31.0935 10.4301C31.0935 10.9501 31.0002 11.4301 30.8135 11.8701C30.6268 12.3101 30.3635 12.6901 30.0235 13.0101C29.6835 13.3301 29.2835 13.5801 28.8235 13.7601C28.3702 13.9401 27.8735 14.0301 27.3335 14.0301ZM27.3235 12.8901C27.6768 12.8901 28.0035 12.8301 28.3035 12.7101C28.6035 12.5901 28.8635 12.4201 29.0835 12.2001C29.3035 11.9734 29.4735 11.7134 29.5935 11.4201C29.7202 11.1201 29.7835 10.7901 29.7835 10.4301C29.7835 10.0701 29.7202 9.74345 29.5935 9.45011C29.4735 9.15011 29.3035 8.89011 29.0835 8.67011C28.8635 8.44345 28.6035 8.27011 28.3035 8.15011C28.0035 8.03011 27.6768 7.97011 27.3235 7.97011C26.9702 7.97011 26.6435 8.03011 26.3435 8.15011C26.0502 8.27011 25.7902 8.44345 25.5635 8.67011C25.3435 8.89011 25.1702 9.15011 25.0435 9.45011C24.9235 9.74345 24.8635 10.0701 24.8635 10.4301C24.8635 10.7834 24.9235 11.1101 25.0435 11.4101C25.1702 11.7101 25.3435 11.9734 25.5635 12.2001C25.7835 12.4201 26.0435 12.5901 26.3435 12.7101C26.6435 12.8301 26.9702 12.8901 27.3235 12.8901ZM32.5408 13.9301V6.93011L38.7308 6.93011V13.9301H37.4508V7.71011L37.7508 8.03011H33.5208L33.8208 7.71011V13.9301H32.5408Z" fill="white"/>
</g>
<defs>
<clipPath id="clip0_704_5288">
<rect width="20" height="106" fill="white" transform="matrix(0 -1 1 0 0 20)"/>
</clipPath>
</defs>
</svg>
