<svg width="320" height="344" viewBox="0 0 320 344" fill="none" xmlns="http://www.w3.org/2000/svg">
<g clip-path="url(#clip0_610_6007)">
<path d="M21.7362 154.459C21.7088 154.283 21.6813 154.107 21.653 153.925C21.707 153.223 21.9238 153.007 22.4046 152.496C23.0588 152.097 23.0588 152.097 23.865 151.69C24.0128 151.615 24.1607 151.539 24.313 151.462C24.8051 151.212 25.2988 150.965 25.7925 150.718C26.1422 150.541 26.4917 150.364 26.8412 150.187C27.7791 149.713 28.7184 149.241 29.658 148.769C30.4345 148.38 31.2102 147.988 31.9859 147.596C37.1823 144.973 42.3895 142.371 47.6111 139.798C47.8327 139.689 48.0543 139.58 48.2826 139.467C48.6851 139.269 49.0877 139.071 49.4905 138.874C49.8406 138.701 50.1902 138.528 50.5392 138.354C50.8764 138.186 51.2158 138.023 51.5571 137.865C52.5721 137.375 53.3009 136.988 53.7982 135.927C53.9238 135.059 53.9264 134.2 53.9254 133.324C53.9286 133.067 53.9318 132.81 53.935 132.545C53.9413 131.995 53.9456 131.444 53.9482 130.894C53.9523 130.035 53.9614 129.176 53.9721 128.317C53.9858 127.187 53.9978 126.057 54.0079 124.927C54.1466 110.011 54.1466 110.011 57.137 106.486C58.0953 105.619 59.1474 105.356 60.4203 105.366C66.4805 106.411 71.6648 113.588 75.6714 117.759C76.0944 118.199 76.5183 118.638 76.9433 119.076C77.8242 119.984 78.6974 120.892 79.5314 121.843C79.658 121.981 79.7845 122.12 79.9149 122.262C80.2329 122.61 80.5426 122.965 80.8513 123.321C82.0213 123.914 83.045 123.351 84.2483 122.971C85.1755 122.655 86.092 122.315 87.0079 121.969C87.529 121.774 88.05 121.58 88.5711 121.386C89.3784 121.083 90.1854 120.78 90.9924 120.476C101.443 116.552 101.443 116.552 105.199 117.357C106.232 117.85 106.8 118.215 107.212 119.308C108.046 122.116 107.222 124.519 105.876 127.058C105.658 127.432 105.437 127.805 105.213 128.176C104.908 128.695 104.645 129.219 104.388 129.764C103.819 130.955 103.155 132.084 102.485 133.22C102.135 133.826 101.826 134.445 101.525 135.077C100.778 136.626 99.8836 138.089 99.0006 139.562C98.8731 139.779 98.7456 139.996 98.6143 140.22C98.4982 140.415 98.3821 140.61 98.2626 140.81C97.9913 141.398 97.9003 141.674 98.0294 142.307C98.3645 142.842 98.3645 142.842 98.8373 143.376C99.0151 143.587 99.1929 143.798 99.376 144.016C99.6712 144.36 99.6712 144.36 99.9723 144.71C100.179 144.954 100.386 145.199 100.592 145.443C101.93 147.023 103.286 148.587 104.641 150.152C105.815 151.508 106.985 152.867 108.151 154.228C108.267 154.363 108.383 154.498 108.502 154.637C111.129 157.703 113.631 160.799 115.824 164.197C115.955 164.398 115.955 164.398 116.088 164.603C117.238 166.386 118.187 167.94 117.898 170.122C117.659 171.198 117.201 171.837 116.35 172.512C112.947 174.052 108.718 173.053 105.187 172.414C104.606 172.309 104.024 172.205 103.442 172.103C92.4942 170.172 92.4942 170.172 87.2914 168.903C87.0668 168.848 86.8423 168.794 86.6109 168.738C86.201 168.638 85.7919 168.534 85.3838 168.426C84.6493 168.245 84.0718 168.121 83.3292 168.3C82.7059 168.821 82.438 169.37 82.0641 170.094C81.865 170.448 81.6642 170.801 81.4623 171.153C81.3534 171.344 81.2446 171.535 81.1325 171.732C81.0211 171.927 80.9098 172.122 80.7951 172.323C80.6859 172.516 80.5766 172.709 80.4641 172.908C80.3546 173.1 80.245 173.291 80.1322 173.489C80.0353 173.659 79.9384 173.829 79.8386 174.005C79.5329 174.507 79.2145 174.985 78.8816 175.469C77.8597 176.993 76.9698 178.596 76.0608 180.19C75.7221 180.784 75.3825 181.377 75.0426 181.97C74.3213 183.229 73.6011 184.489 72.881 185.749C72.0459 187.21 71.2103 188.671 70.3735 190.132C70.0407 190.713 69.7089 191.294 69.377 191.876C67.5553 195.061 67.5553 195.061 66.559 196.495C66.1842 197.043 65.8738 197.622 65.5586 198.206C64.2084 200.581 62.5835 202.866 60.5087 204.657C60.3814 204.77 60.2541 204.883 60.1229 205C59.1082 205.41 58.3401 205.587 57.2598 205.347C56.2588 204.865 55.599 204.442 55.1897 203.384C54.6295 201.763 54.5253 200.064 54.3833 198.367C54.3675 198.188 54.3517 198.009 54.3355 197.825C54.0054 194.063 53.9308 190.314 53.9345 186.539C53.9344 185.658 53.9298 184.777 53.9259 183.896C53.9126 180.508 53.9194 177.12 53.9322 173.732C53.9341 173.231 53.9358 172.729 53.9375 172.228C53.943 170.668 53.9509 169.109 53.9636 167.549C53.9668 166.994 53.97 166.438 53.9731 165.883C53.976 165.632 53.9788 165.382 53.9818 165.124C54.0121 163.471 54.0121 163.471 53.5886 161.892C53.0344 161.438 52.486 161.313 51.7905 161.192C51.5908 161.156 51.3912 161.12 51.1854 161.083C50.8478 161.024 50.8478 161.024 50.5033 160.964C49.9813 160.87 49.4594 160.775 48.9376 160.679C48.79 160.652 48.6424 160.625 48.4902 160.597C46.3629 160.206 44.242 159.78 42.1202 159.36C41.3719 159.212 40.6235 159.064 39.875 158.917C35.7887 158.112 35.7887 158.112 33.9326 157.738C30.8654 157.121 27.8272 156.535 24.7027 156.313C21.9472 156.101 21.9472 156.101 21.7362 154.459ZM30.7023 153.151C34.019 153.969 37.3588 154.602 40.7195 155.201C42.5795 155.532 44.4377 155.87 46.2922 156.232C46.4701 156.267 46.648 156.301 46.8312 156.337C47.6771 156.502 48.5226 156.669 49.3679 156.837C50.8591 157.131 52.3296 157.395 53.8465 157.505C54.2584 156.788 54.2101 156.348 54.2052 155.52C54.2042 155.225 54.2031 154.93 54.202 154.626C54.1991 154.303 54.196 153.98 54.1928 153.657C54.1904 153.326 54.188 152.996 54.1857 152.666C54.1804 151.973 54.1737 151.28 54.1662 150.588C54.1568 149.7 54.1518 148.811 54.1479 147.923C54.1443 147.24 54.1378 146.558 54.1306 145.876C54.1275 145.548 54.1255 145.221 54.1244 144.893C54.1227 144.435 54.1166 143.978 54.1103 143.52C54.108 143.26 54.1057 142.999 54.1033 142.731C54.0806 142.037 54.0806 142.037 53.3945 141.553C51.5808 142.186 49.8691 143.001 48.1458 143.846C47.8472 143.992 47.5485 144.137 47.2498 144.283C46.6233 144.588 45.9972 144.894 45.3714 145.201C44.5909 145.583 43.8097 145.964 43.0281 146.344C38.8362 148.384 34.6932 150.504 30.5824 152.703C30.622 152.851 30.6615 152.999 30.7023 153.151ZM58.6406 200.36C59.6588 199.974 60.0159 199.448 60.5675 198.524C61.1514 197.553 61.7658 196.636 62.4358 195.723C63.406 194.371 64.2599 192.976 65.0892 191.534C65.2396 191.275 65.3899 191.016 65.5449 190.749C65.9514 190.049 66.3562 189.347 66.7604 188.645C67.0134 188.206 67.2668 187.767 67.5203 187.328C68.4055 185.796 69.2891 184.262 70.1714 182.728C70.9931 181.299 71.8185 179.872 72.6455 178.446C73.3575 177.219 74.0669 175.989 74.7742 174.758C75.1958 174.025 75.6185 173.292 76.0441 172.56C76.5166 171.748 76.9835 170.933 77.4499 170.117C77.5917 169.875 77.7336 169.633 77.8797 169.384C78.0052 169.162 78.1306 168.94 78.2599 168.712C78.4262 168.424 78.4262 168.424 78.5959 168.129C78.8301 167.624 78.8301 167.624 78.6054 167.144C78.1807 166.624 77.8063 166.586 77.1559 166.452C76.9189 166.402 76.6818 166.351 76.4375 166.299C76.181 166.247 75.9245 166.196 75.6602 166.143C75.1184 166.028 74.5766 165.914 74.0348 165.799C73.7657 165.743 73.4965 165.687 73.2192 165.629C72.4052 165.458 71.5956 165.271 70.7859 165.08C66.7207 164.121 62.6177 163.323 58.5261 162.488C57.8634 163.437 57.7762 164.246 57.7744 165.373C57.7717 165.551 57.769 165.73 57.7661 165.914C57.758 166.52 57.7547 167.127 57.7517 167.733C57.7474 168.17 57.743 168.607 57.7384 169.044C57.7011 173.228 57.7141 177.413 57.7266 181.598C57.7282 182.125 57.7295 182.652 57.7308 183.18C57.7437 187.955 57.8035 192.727 58.0756 197.496C58.0859 197.678 58.0962 197.86 58.1069 198.048C58.1901 198.852 58.4029 199.588 58.6406 200.36ZM58.6076 158.544C59.7861 158.999 60.9662 159.248 62.2035 159.489C62.4707 159.543 62.7378 159.597 63.0131 159.653C63.8675 159.825 64.7225 159.995 65.5776 160.164C66.6935 160.387 67.8093 160.611 68.9249 160.836C69.3328 160.918 69.3328 160.918 69.749 161.002C72.1586 161.488 74.5544 162.027 76.9476 162.589C77.3092 162.674 77.6709 162.758 78.0325 162.842C78.6153 162.977 79.1979 163.113 79.7804 163.25C80.5962 163.331 80.8572 163.225 81.5422 162.798C81.9001 162.359 81.9001 162.359 82.1774 161.832C82.2868 161.639 82.3961 161.446 82.5087 161.247C82.6746 160.944 82.6746 160.944 82.8439 160.635C82.9544 160.439 83.0649 160.244 83.1788 160.042C83.6916 159.127 84.1756 158.206 84.6271 157.259C85.301 155.875 86.0789 154.557 86.8584 153.231C87.0927 152.829 87.3271 152.426 87.5612 152.024C88.1329 151.041 88.7058 150.059 89.2821 149.08C89.6074 148.526 89.9312 147.972 90.2534 147.417C90.5553 146.896 90.8594 146.378 91.1659 145.86C92.2176 144.098 92.2176 144.098 92.4833 142.114C92.1443 141.554 91.841 141.193 91.3948 140.727C91.0542 140.333 90.7145 139.938 90.3756 139.543C89.9681 139.077 89.5601 138.611 89.1514 138.145C88.9904 137.962 88.9904 137.962 88.8261 137.775C88.2592 137.129 87.6917 136.484 87.1239 135.839C86.6554 135.307 86.188 134.774 85.7215 134.24C85.1558 133.592 84.5883 132.946 84.0193 132.301C83.8035 132.056 83.5885 131.81 83.374 131.564C83.0745 131.22 82.7722 130.878 82.4698 130.537C82.2989 130.342 82.1279 130.147 81.9518 129.947C81.4274 129.453 81.0772 129.216 80.3814 129.044C79.8908 129.111 79.8908 129.111 79.393 129.335C79.1826 129.42 78.9723 129.505 78.7555 129.593C77.0289 130.342 75.3111 131.109 73.5976 131.887C73.1737 132.079 72.7498 132.272 72.3259 132.464C71.4418 132.865 70.558 133.267 69.6745 133.669C68.5429 134.184 67.4101 134.696 66.2769 135.208C65.4029 135.603 64.5298 136 63.6569 136.398C63.2395 136.587 62.8218 136.776 62.4037 136.965C61.8203 137.227 61.2383 137.493 60.6566 137.76C60.3985 137.875 60.3985 137.875 60.1352 137.992C59.2209 138.415 58.5212 138.806 57.8951 139.627C57.7461 140.366 57.7461 140.366 57.7591 141.223C57.756 141.389 57.753 141.555 57.7499 141.725C57.7412 142.319 57.7404 142.913 57.7402 143.507C57.739 143.743 57.7377 143.979 57.7365 144.222C57.7278 145.856 57.7306 147.49 57.7393 149.124C57.7436 149.989 57.7457 150.854 57.7476 151.719C57.75 152.274 57.7525 152.829 57.7551 153.384C57.7556 153.64 57.756 153.896 57.7565 154.16C57.7611 154.842 57.7759 155.523 57.7984 156.206C57.8018 156.39 57.8052 156.574 57.8087 156.763C57.8642 157.606 57.9678 157.979 58.6076 158.544ZM57.913 134.345C58.9508 134.698 59.4776 134.346 60.4169 133.908C60.6763 133.79 60.6763 133.79 60.941 133.671C61.5137 133.411 62.0846 133.147 62.6555 132.883C63.0528 132.702 63.4503 132.52 63.8478 132.339C64.6815 131.959 65.5144 131.576 66.3468 131.193C67.4129 130.701 68.4805 130.213 69.5486 129.727C70.3699 129.352 71.1905 128.976 72.0109 128.6C72.4043 128.42 72.7978 128.24 73.1914 128.06C73.7423 127.808 74.2924 127.555 74.8423 127.301C75.0047 127.227 75.1671 127.153 75.3344 127.077C76.1544 126.696 76.8803 126.294 77.5788 125.717C77.0188 124.822 76.4075 124.054 75.6911 123.28C75.5863 123.166 75.4815 123.053 75.3735 122.936C75.0311 122.567 74.6871 122.199 74.3428 121.831C74.2244 121.705 74.1061 121.578 73.9842 121.448C68.1173 114.554 68.1173 114.554 60.8312 109.574C60.1204 109.625 60.1204 109.625 59.4938 109.933C57.7794 112.429 57.9832 117.162 57.8524 120.133C57.8442 120.305 57.8361 120.476 57.8276 120.653C57.6893 123.592 57.6428 126.529 57.6373 129.471C57.6367 129.665 57.6361 129.86 57.6355 130.06C57.6345 130.61 57.6355 131.16 57.6374 131.711C57.6371 131.956 57.6371 131.956 57.6369 132.206C57.6425 132.981 57.71 133.588 57.913 134.345ZM85.4852 164.14C86.5187 164.685 87.5873 164.937 88.722 165.17C88.9984 165.228 88.9984 165.228 89.2804 165.288C89.8883 165.415 90.4966 165.541 91.105 165.667C91.5329 165.756 91.9608 165.845 92.3887 165.934C93.2873 166.121 94.1862 166.306 95.0852 166.491C95.9977 166.679 96.9098 166.869 97.8216 167.06C103.71 168.34 103.71 168.34 109.663 169.232C109.856 169.254 110.048 169.276 110.247 169.299C111.44 169.402 112.367 169.233 113.507 168.866C113.445 166.156 110.748 163.592 109.078 161.642C108.862 161.388 108.647 161.133 108.432 160.879C107.987 160.354 107.542 159.829 107.097 159.305C106.158 158.199 105.229 157.085 104.3 155.972C103.999 155.612 103.697 155.252 103.395 154.892C102.405 153.712 101.418 152.529 100.44 151.339C99.9587 150.753 99.4756 150.169 98.9922 149.585C98.7599 149.304 98.5286 149.022 98.2981 148.739C97.9781 148.346 97.6551 147.956 97.3314 147.566C97.1475 147.342 96.9637 147.118 96.7742 146.887C96.2149 146.343 95.984 146.286 95.2429 146.172C94.0656 148.214 92.8891 150.256 91.7135 152.298C91.1676 153.247 90.6214 154.195 90.0746 155.143C89.5465 156.059 89.0191 156.975 88.4921 157.891C88.2914 158.24 88.0904 158.588 87.8892 158.937C87.6065 159.426 87.3246 159.917 87.043 160.407C86.9604 160.549 86.8778 160.692 86.7927 160.839C85.759 162.414 85.759 162.414 85.4852 164.14ZM85.992 129.052C86.1773 129.261 86.3626 129.471 86.5536 129.687C86.8559 130.025 86.8559 130.025 87.1643 130.371C87.3717 130.605 87.5789 130.838 87.7861 131.072C88.3314 131.688 88.8782 132.302 89.4252 132.915C89.9832 133.542 90.5399 134.17 91.0967 134.798C92.1893 136.029 93.2833 137.259 94.3783 138.488C95.4186 138.025 95.7526 137.567 96.3174 136.565C96.436 136.357 96.436 136.357 96.5571 136.145C96.809 135.701 97.0567 135.256 97.3046 134.81C97.4709 134.517 97.6375 134.224 97.8043 133.931C98.5837 132.555 99.3268 131.169 100.008 129.741C100.458 128.839 100.984 127.984 101.5 127.119C103.101 124.453 103.101 124.453 103.424 121.431C101.782 121.03 100.598 121.397 99.0096 121.894C98.6758 121.991 98.3419 122.088 98.0079 122.185C95.102 123.046 92.2681 124.092 89.4346 125.164C89.2435 125.236 89.0525 125.308 88.8556 125.381C88.308 125.587 87.7614 125.796 87.2152 126.005C86.9662 126.099 86.9662 126.099 86.7122 126.194C85.9301 126.498 85.5056 126.699 84.942 127.343C85.1536 128.132 85.4513 128.443 85.992 129.052Z" fill="#94C5E8"/>
<path d="M114.489 70.008C115.328 68.7806 116.598 67.8576 117.779 66.9825C117.951 66.8543 118.123 66.7261 118.301 66.594C120.233 65.1824 122.279 63.9904 124.355 62.8066C124.754 62.5764 125.153 62.346 125.552 62.1153C126.532 61.5491 127.513 60.9857 128.496 60.4233C129.443 59.8802 130.388 59.3339 131.334 58.7877C131.971 58.4197 132.608 58.0523 133.246 57.6862C133.689 57.4317 134.131 57.1758 134.573 56.9183C135.058 56.6378 135.548 56.3639 136.039 56.0942C136.301 55.9469 136.562 55.7996 136.831 55.6478C137.07 55.5163 137.308 55.3848 137.554 55.2494C138.263 54.6896 138.377 54.3927 138.494 53.5007C138.448 52.7005 138.448 52.7005 138.296 51.8463C138.271 51.6884 138.246 51.5305 138.221 51.3679C138.168 51.0303 138.114 50.6928 138.059 50.3556C137.915 49.4724 137.782 48.5876 137.648 47.7027C137.622 47.527 137.595 47.3512 137.568 47.1701C137.341 45.6535 137.154 44.1355 137.009 42.6088C136.987 42.4015 136.965 42.1941 136.943 41.9805C136.77 40.028 136.881 38.2405 138.025 36.5942C138.649 36.0386 139.386 35.8868 140.194 35.7732C141.965 35.9828 143.246 36.6907 144.761 37.6079C144.978 37.7354 145.194 37.8629 145.418 37.9942C146.759 38.7903 148.063 39.6313 149.348 40.5169C149.498 40.6198 149.648 40.7227 149.803 40.8287C150.093 41.0279 150.383 41.2275 150.673 41.4276C150.97 41.6321 151.267 41.8361 151.564 42.0397C152.215 42.4855 152.862 42.9336 153.5 43.3971C153.675 43.5221 153.849 43.647 154.028 43.7757C154.172 43.8822 154.316 43.9886 154.465 44.0983C155.057 44.38 155.43 44.3207 156.076 44.2315C156.641 43.99 156.641 43.99 157.2 43.6464C157.525 43.4569 157.525 43.4569 157.857 43.2636C158.09 43.125 158.323 42.9865 158.563 42.8437C158.93 42.6294 158.93 42.6294 159.304 42.4107C160.088 41.952 160.871 41.4902 161.653 41.028C167.558 37.5534 167.558 37.5534 170.242 36.1348C170.426 36.0376 170.609 35.9404 170.799 35.8402C173.894 34.2264 178.002 32.5279 181.535 33.5416C182.434 33.9839 183.006 34.4621 183.446 35.376C184.008 37.312 183.815 38.8292 183.336 40.7654C183.3 40.9132 183.264 41.061 183.227 41.2132C182.633 43.6106 181.789 45.8988 180.898 48.1984C180.311 49.7181 179.762 51.2515 179.215 52.7865C178.812 53.9105 178.397 55.0263 177.953 56.1346C177.867 56.3521 177.781 56.5697 177.692 56.7939C177.528 57.2061 177.361 57.6172 177.19 58.0267C176.867 58.8416 176.666 59.4288 176.708 60.3129C177.16 61.1653 177.812 61.6059 178.584 62.1446C180.488 63.5461 182.274 65.0674 184.048 66.6298C184.351 66.8966 184.655 67.1629 184.959 67.4285C190.348 72.1383 190.348 72.1383 190.609 75.04C190.528 75.8193 190.292 76.3805 189.764 76.9747C186.799 79.1331 181.806 78.4466 178.394 78.3121C178.184 78.3039 177.974 78.2956 177.758 78.2871C176.691 78.2441 175.625 78.1973 174.559 78.1447C174.357 78.1355 174.156 78.1263 173.948 78.1168C173.568 78.0994 173.187 78.0804 172.806 78.0594C171.807 78.0154 170.962 78.0413 170.01 78.4006C169.442 79.1534 169.189 79.9745 168.909 80.8694C167.659 84.6803 166.081 88.3798 164.56 92.0876C164.133 93.1321 163.712 94.1792 163.296 95.2286C163.022 95.9194 162.746 96.6092 162.469 97.2987C162.313 97.6883 162.158 98.0786 162.004 98.469C160.769 101.462 159.242 104.835 156.374 106.523C155.245 106.825 154.373 106.649 153.286 106.256C149.996 103.549 149.218 97.151 148.194 93.2593C147.202 89.4954 146.133 85.7538 145.058 82.0127C145.015 81.8622 144.972 81.7118 144.928 81.5568C144.392 79.69 143.855 77.8236 143.316 75.9574C143.123 75.9468 143.123 75.9468 142.926 75.9359C141.496 75.8533 140.071 75.7347 138.645 75.6012C138.409 75.5794 138.172 75.5575 137.929 75.535C137.16 75.4639 136.39 75.3923 135.621 75.3207C134.542 75.2205 133.463 75.1204 132.384 75.0205C131.976 74.9827 131.976 74.9827 131.56 74.9442C129.766 74.7784 127.972 74.6178 126.178 74.4607C125.718 74.4202 125.259 74.3797 124.799 74.3392C124.15 74.2819 123.5 74.225 122.85 74.1693C122.254 74.1183 121.659 74.0659 121.063 74.0132C120.892 73.9989 120.721 73.9847 120.545 73.9701C118.974 73.8285 117.347 73.6736 115.978 72.8326C115.817 72.7369 115.656 72.6412 115.49 72.5425C114.583 71.8725 114.465 71.0882 114.489 70.008ZM120.987 70.186C124.688 70.6346 128.398 70.9264 132.115 71.2074C132.997 71.2748 133.88 71.3424 134.762 71.4101C135.306 71.4517 135.85 71.4932 136.394 71.5343C136.643 71.5533 136.892 71.5723 137.149 71.5918C137.389 71.6095 137.629 71.6273 137.876 71.6455C138.365 71.6863 138.854 71.7352 139.341 71.7911C139.578 71.8177 139.816 71.8443 140.061 71.8716C140.377 71.9108 140.377 71.9108 140.699 71.9507C141.376 71.9427 141.762 71.7621 142.34 71.4213C142.304 70.421 142.126 69.4668 141.921 68.4899C141.886 68.322 141.852 68.154 141.816 67.9809C141.742 67.6257 141.668 67.2705 141.594 66.9154C141.482 66.3821 141.372 65.8484 141.262 65.3146C140.81 61.9312 140.81 61.9312 139.487 58.9918C138.341 59.4383 137.28 59.933 136.208 60.5409C136.063 60.6227 135.918 60.7045 135.768 60.7887C135.294 61.0566 134.821 61.3259 134.348 61.5954C134.015 61.7841 133.683 61.9728 133.35 62.1614C132.655 62.5559 131.961 62.9513 131.266 63.3471C130.381 63.8518 129.494 64.354 128.607 64.8556C127.921 65.2443 127.235 65.6345 126.549 66.0252C126.223 66.2108 125.896 66.396 125.569 66.5806C123.9 67.5241 122.312 68.4615 120.867 69.7384C120.907 69.8861 120.946 70.0338 120.987 70.186ZM155.091 102.069C156.066 101.601 156.44 100.841 156.949 99.9218C157.043 99.7558 157.136 99.5897 157.232 99.4186C158.043 97.9574 158.737 96.4608 159.386 94.9207C159.512 94.634 159.637 94.3474 159.763 94.0609C160.872 91.517 161.856 88.9291 162.817 86.3252C162.9 86.0988 162.984 85.8725 163.07 85.6393C164.439 81.9151 164.439 81.9151 165.638 78.1326C164.927 77.4763 164.454 77.3174 163.497 77.2604C163.25 77.2441 163.003 77.2278 162.749 77.211C162.482 77.1967 162.215 77.1824 161.941 77.1676C161.526 77.1414 161.526 77.1414 161.102 77.1147C160.215 77.0593 159.328 77.0084 158.44 76.9577C157.564 76.9046 156.687 76.8505 155.811 76.7964C155.247 76.762 154.684 76.7282 154.12 76.6952C152.406 76.5939 150.699 76.4641 148.992 76.2783C148.375 76.2153 148.375 76.2153 147.808 76.673C147.756 77.5554 147.968 78.2934 148.195 79.1368C148.264 79.4004 148.264 79.4004 148.335 79.6694C148.489 80.2531 148.645 80.8362 148.801 81.4194C148.91 81.8283 149.019 82.2373 149.127 82.6462C149.357 83.507 149.587 84.3676 149.817 85.228C150.051 86.1016 150.284 86.9757 150.515 87.8501C152.29 95.1411 152.29 95.1411 155.091 102.069ZM147.174 72.3779C147.612 72.4695 147.612 72.4695 148.126 72.5097C148.354 72.5354 148.581 72.5611 148.816 72.5876C149.677 72.6706 150.538 72.7302 151.402 72.7856C151.724 72.8078 152.046 72.8302 152.368 72.8528C153.214 72.9116 154.061 72.9679 154.908 73.0237C155.758 73.0801 156.608 73.139 157.458 73.1977C159.775 73.3572 159.775 73.3572 162.093 73.5069C162.725 73.5496 163.354 73.5988 163.985 73.6552C164.151 73.6688 164.317 73.6823 164.487 73.6962C164.951 73.734 165.414 73.7752 165.877 73.8166C166.611 73.8538 166.611 73.8538 167.092 73.4931C167.554 72.9011 167.796 72.2691 168.076 71.5722C168.137 71.4196 168.198 71.267 168.262 71.1097C168.885 69.5403 169.443 67.9475 169.992 66.3509C170.352 65.3071 170.744 64.2768 171.148 63.2497C171.329 62.5901 171.381 62.1939 171.221 61.5237C170.811 61.0952 170.439 60.7714 169.97 60.4196C169.826 60.3072 169.683 60.1948 169.535 60.079C169.038 59.6912 168.536 59.3099 168.032 58.9296C167.848 58.7901 167.664 58.6505 167.475 58.5068C166.097 57.4656 164.705 56.4449 163.305 55.4336C162.259 54.6769 161.222 53.9082 160.192 53.129C157.857 51.3116 157.857 51.3116 155.39 49.693C153.79 50.0565 152.345 50.9661 150.954 51.8017C150.645 51.9853 150.645 51.9853 150.33 52.1726C149.898 52.4296 149.467 52.6874 149.037 52.9461C148.377 53.3421 147.715 53.7339 147.052 54.1254C146.632 54.3764 146.212 54.6277 145.792 54.8792C145.495 55.0544 145.495 55.0544 145.192 55.2331C145.009 55.3436 144.827 55.4542 144.639 55.5681C144.478 55.6642 144.317 55.7603 144.152 55.8594C143.696 56.2109 143.491 56.4959 143.259 57.0215C143.218 57.7246 143.291 58.1955 143.446 58.876C143.498 59.1034 143.549 59.3308 143.602 59.5651C143.659 59.8108 143.715 60.0565 143.774 60.3096C143.831 60.5637 143.889 60.8178 143.949 61.0796C144.072 61.6186 144.195 62.1575 144.319 62.6962C144.507 63.514 144.693 64.3322 144.879 65.1504C144.999 65.675 145.119 66.1995 145.238 66.724C145.321 67.0872 145.321 67.0872 145.406 67.4579C145.512 67.9196 145.621 68.3808 145.732 68.8414C145.839 69.2962 145.935 69.7536 146.021 70.2126C146.261 71.5114 146.261 71.5114 147.174 72.3779ZM142.386 51.978C142.479 52.0322 142.572 52.0863 142.668 52.1421C144.299 51.548 145.739 50.6825 147.216 49.7827C147.655 49.5159 148.097 49.2526 148.538 48.9895C148.819 48.8195 149.1 48.6493 149.381 48.4788C149.634 48.3258 149.887 48.1728 150.148 48.0151C150.718 47.606 150.978 47.3594 151.25 46.7242C151.048 46.5839 150.845 46.4436 150.637 46.299C150.358 46.1054 150.08 45.9118 149.801 45.7181C149.654 45.6163 149.508 45.5145 149.357 45.4096C148.437 44.7688 147.528 44.1149 146.625 43.4504C145.641 42.7348 144.638 42.108 143.576 41.5173C143.09 41.2341 143.09 41.2341 142.412 40.711C141.854 40.3232 141.607 40.2661 140.947 40.369C140.652 41.3704 140.794 42.34 140.902 43.3608C140.922 43.552 140.942 43.7432 140.962 43.9402C141.003 44.3443 141.046 44.7482 141.09 45.1521C141.155 45.7658 141.216 46.3798 141.276 46.9939C141.318 47.3876 141.359 47.7813 141.401 48.175C141.419 48.3567 141.436 48.5385 141.455 48.7258C141.588 49.9201 141.872 50.8884 142.386 51.978ZM161.14 49.1419C161.495 49.3942 161.85 49.6471 162.204 49.9005C162.478 50.0963 162.478 50.0963 162.758 50.296C163.607 50.9133 164.434 51.5587 165.26 52.2058C167.641 54.0628 170.085 55.828 172.55 57.5692C173.08 57.3362 173.339 57.1826 173.627 56.6711C173.694 56.4942 173.76 56.3172 173.829 56.1349C173.905 55.9342 173.982 55.7336 174.061 55.5269C174.141 55.3085 174.222 55.0902 174.304 54.8652C174.39 54.6378 174.476 54.4103 174.564 54.176C174.834 53.4578 175.099 52.7381 175.363 52.0178C175.444 51.7978 175.525 51.5778 175.609 51.3512C176.092 50.0401 176.566 48.726 177.033 47.4092C177.207 46.9211 177.381 46.4333 177.556 45.9457C177.834 45.1718 178.109 44.3969 178.383 43.6219C178.468 43.3861 178.553 43.1504 178.64 42.9076C179.684 40.3607 179.684 40.3607 179.589 37.7565C179.35 37.2887 179.35 37.2887 179.017 37.1251C173.76 38.124 169.189 40.9178 164.645 43.6157C163.954 44.0259 163.261 44.4326 162.568 44.8386C162.173 45.0715 161.778 45.3047 161.383 45.5382C161.204 45.6434 161.025 45.7487 160.84 45.8571C159.915 46.3905 159.915 46.3905 159.265 47.2154C159.534 48.219 160.325 48.5746 161.14 49.1419ZM171.665 73.879C178.755 74.7369 178.755 74.7369 185.835 74.1603C185.411 73.0067 184.741 72.2918 183.848 71.484C183.638 71.291 183.638 71.291 183.424 71.0941C181.83 69.649 180.137 68.335 178.429 67.0288C178.13 66.7977 177.83 66.5666 177.531 66.3353C176.829 65.7939 176.125 65.2545 175.421 64.7163C174.801 64.9631 174.441 65.1121 174.095 65.697C174.03 65.8787 173.966 66.0603 173.899 66.2475C173.826 66.4492 173.752 66.6509 173.676 66.8587C173.602 67.073 173.528 67.2872 173.451 67.508C173.373 67.7253 173.295 67.9427 173.215 68.1666C173.06 68.5972 172.907 69.0284 172.756 69.4601C172.583 69.9471 172.403 70.4296 172.215 70.9109C172.128 71.1379 172.04 71.3648 171.95 71.5987C171.876 71.7882 171.802 71.9777 171.727 72.1729C171.568 72.7755 171.593 73.2628 171.665 73.879Z" fill="#94C5E8"/>
</g>
<defs>
<clipPath id="clip0_610_6007">
<rect width="279.449" height="283.357" fill="white" transform="translate(72.3262 343.265) rotate(-105)"/>
</clipPath>
</defs>
</svg>
