<svg width="105" height="62" viewBox="0 0 105 62" fill="none" xmlns="http://www.w3.org/2000/svg">
<g clip-path="url(#clip0_431_27984)">
<path d="M105 18.283C104.99 18.3736 104.98 18.4642 104.97 18.5576C104.85 18.8975 104.715 18.9757 104.409 19.1649C104.033 19.2754 104.033 19.2754 103.581 19.3696C103.498 19.3872 103.415 19.4049 103.329 19.423C103.053 19.4814 102.776 19.5381 102.499 19.5947C102.303 19.6357 102.107 19.6769 101.911 19.7182C101.384 19.8286 100.857 19.9374 100.33 20.0459C99.895 20.1358 99.4597 20.2266 99.0245 20.3175C96.1085 20.926 93.19 21.5225 90.2683 22.1026C90.1443 22.1272 90.0203 22.1518 89.8926 22.1772C89.6674 22.2218 89.4422 22.2663 89.2169 22.3107C89.021 22.3494 88.8253 22.3887 88.6297 22.4288C88.4409 22.4668 88.2515 22.5023 88.0618 22.5356C87.4953 22.643 87.0837 22.738 86.6975 23.1964C86.5204 23.6089 86.4054 24.033 86.2898 24.4664C86.2542 24.593 86.2185 24.7197 86.1819 24.8502C86.1059 25.1213 86.0309 25.3927 85.9567 25.6643C85.8409 26.0884 85.7227 26.5117 85.6036 26.9349C85.4472 27.4917 85.2916 28.0488 85.1368 28.6061C83.0928 35.9603 83.0928 35.9603 81.1478 37.3066C80.5593 37.6084 80.0044 37.599 79.3767 37.4252C76.5195 36.1064 74.9075 31.8722 73.4797 29.2796C73.3288 29.0061 73.1774 28.7331 73.0253 28.4604C72.7102 27.895 72.3988 27.3306 72.1125 26.7499C72.0683 26.6648 72.0241 26.5797 71.9785 26.492C71.8674 26.2779 71.7614 26.0613 71.6559 25.8444C71.1561 25.3965 70.5756 25.5391 69.9304 25.5678C69.4303 25.6008 68.9323 25.6475 68.4337 25.6975C68.1504 25.7246 67.8671 25.7516 67.5838 25.7786C67.1447 25.8213 66.7056 25.8642 66.2666 25.9074C60.581 26.463 60.581 26.463 58.8311 25.5678C58.3859 25.1874 58.1537 24.9317 58.0945 24.3367C58.0541 22.8385 58.7801 21.7598 59.7817 20.6832C59.9389 20.5268 60.0974 20.3718 60.2572 20.2181C60.4769 20.002 60.6761 19.778 60.8753 19.5428C61.3142 19.0294 61.7921 18.5589 62.2738 18.0866C62.527 17.833 62.7615 17.5681 62.9942 17.2955C63.5686 16.6289 64.2044 16.0244 64.836 15.4131C64.9278 15.3226 65.0195 15.2321 65.1141 15.1389C65.1973 15.058 65.2804 14.9771 65.3661 14.8938C65.5781 14.6392 65.6596 14.5149 65.6796 14.1848C65.5848 13.8759 65.5848 13.8759 65.4218 13.5497C65.3619 13.4217 65.302 13.2937 65.2403 13.1617C65.1399 12.9528 65.1399 12.9528 65.0375 12.7396C64.9677 12.5917 64.8979 12.4436 64.8283 12.2955C64.3762 11.3374 63.9129 10.3846 63.4504 9.43141C63.05 8.60587 62.6517 7.7793 62.2553 6.95175C62.216 6.86986 62.1767 6.78796 62.1363 6.70358C61.2437 4.83995 60.417 2.97811 59.7831 1.00824C59.7452 0.891551 59.7452 0.891551 59.7065 0.772504C59.3742 -0.261269 59.1111 -1.15486 59.5428 -2.1951C59.8033 -2.69519 60.1143 -2.95052 60.6244 -3.17149C62.5107 -3.48201 64.4684 -2.428 66.1292 -1.64473C66.4027 -1.51577 66.6764 -1.38737 66.9504 -1.2596C72.1061 1.14454 72.1061 1.14454 74.5096 2.46123C74.6134 2.51781 74.7173 2.57438 74.8242 2.63267C75.0135 2.73662 75.202 2.84207 75.3894 2.94937C75.7285 3.13622 75.9975 3.27416 76.3883 3.28384C76.7654 3.10892 76.9704 2.87327 77.2513 2.56452C77.3965 2.416 77.5425 2.26814 77.689 2.1208C77.768 2.04086 77.8471 1.96092 77.9286 1.87855C78.0095 1.79678 78.0904 1.71501 78.1737 1.63075C78.2533 1.5499 78.3328 1.46904 78.4147 1.38573C78.4943 1.30549 78.5738 1.22524 78.6557 1.14256C78.7262 1.0712 78.7966 0.99984 78.8692 0.926316C79.0868 0.718593 79.3075 0.524542 79.5361 0.329626C80.243 -0.288378 80.8953 -0.963226 81.5557 -1.63046C81.8017 -1.87909 82.0482 -2.12733 82.2947 -2.37548C82.818 -2.90233 83.3409 -3.42965 83.8636 -3.95704C84.47 -4.56873 85.0765 -5.18023 85.6835 -5.79123C85.925 -6.03445 86.1661 -6.27803 86.4072 -6.52163C87.7294 -7.85459 87.7294 -7.85459 88.4118 -8.43126C88.6696 -8.65246 88.8997 -8.89774 89.1329 -9.14464C90.1148 -10.1398 91.2207 -11.054 92.4833 -11.6643C92.5613 -11.7035 92.6392 -11.7426 92.7195 -11.7829C93.2753 -11.851 93.6785 -11.8369 94.1807 -11.5754C94.6116 -11.2045 94.8817 -10.9078 94.9439 -10.3308C95.0061 -9.45525 94.8326 -8.60182 94.6779 -7.74399C94.6621 -7.65357 94.6462 -7.56316 94.6299 -7.47001C94.2947 -5.56642 93.8351 -3.70365 93.3334 -1.83844C93.2167 -1.40296 93.1023 -0.96687 92.9875 -0.530873C92.5454 1.14564 92.0932 2.81944 91.6382 4.49247C91.5709 4.73997 91.5036 4.9875 91.4364 5.23503C91.2271 6.00527 91.0166 6.77514 90.8038 7.54439C90.7286 7.81851 90.6535 8.09264 90.5784 8.36677C90.5438 8.49014 90.5092 8.61351 90.4736 8.74062C90.2398 9.55351 90.2398 9.55351 90.2399 10.3904C90.4537 10.688 90.7082 10.8226 91.036 10.9745C91.1299 11.0187 91.2238 11.0629 91.3206 11.1085C91.4797 11.1822 91.4797 11.1822 91.642 11.2575C91.8875 11.3733 92.1329 11.4894 92.3782 11.6058C92.4476 11.6387 92.517 11.6716 92.5885 11.7054C93.5882 12.1806 94.5801 12.6719 95.5732 13.1607C95.9235 13.3331 96.2739 13.5051 96.6243 13.6771C98.5375 14.616 98.5375 14.616 99.4055 15.0467C100.84 15.758 102.264 16.4502 103.779 16.9735C105.113 17.4434 105.113 17.4434 105 18.283ZM100.395 17.742C98.8636 16.8982 97.2965 16.1433 95.7147 15.4021C94.8393 14.9918 93.9656 14.5786 93.0968 14.1542C93.0135 14.1135 92.9301 14.0728 92.8443 14.0309C92.4481 13.8372 92.0522 13.6428 91.6567 13.4478C90.9586 13.1049 90.2666 12.7797 89.5314 12.5247C89.2328 12.8245 89.1984 13.0484 89.0912 13.458C89.0527 13.604 89.0141 13.75 88.9744 13.9005C88.933 14.0605 88.8918 14.2206 88.8506 14.3807C88.808 14.5443 88.7654 14.708 88.7228 14.8716C88.6337 15.2146 88.5453 15.5578 88.4573 15.9012C88.3442 16.3415 88.2291 16.7813 88.1133 17.2209C88.0248 17.5587 87.9376 17.8968 87.8508 18.235C87.8089 18.3973 87.7665 18.5595 87.7237 18.7216C87.6639 18.948 87.6063 19.175 87.5488 19.402C87.5155 19.5311 87.4821 19.6602 87.4477 19.7932C87.367 20.1393 87.367 20.1393 87.6421 20.4692C88.6225 20.3963 89.5764 20.2202 90.5401 20.031C90.707 19.9986 90.8739 19.9662 91.0409 19.9338C91.391 19.8658 91.741 19.7973 92.091 19.7287C92.5274 19.643 92.9639 19.5584 93.4006 19.474C95.7428 19.0209 98.0713 18.5218 100.395 17.9791C100.395 17.9009 100.395 17.8226 100.395 17.742ZM92.8376 -9.29286C92.2832 -9.23698 92.037 -9.02433 91.642 -8.6407C91.2249 -8.23835 90.7996 -7.86625 90.3475 -7.50355C89.689 -6.96397 89.0821 -6.3875 88.4812 -5.7846C88.3726 -5.67649 88.264 -5.56838 88.152 -5.457C87.8583 -5.16461 87.5653 -4.87148 87.2726 -4.57811C87.0894 -4.39455 86.906 -4.21115 86.7226 -4.0278C86.082 -3.38745 85.4422 -2.74645 84.8028 -2.10487C84.2075 -1.50742 83.6105 -0.911561 83.0129 -0.316373C82.4983 0.196274 81.9849 0.710045 81.4723 1.22471C81.1667 1.53146 80.8607 1.83773 80.5535 2.14285C80.2123 2.48176 79.8736 2.82298 79.535 3.16448C79.4328 3.26532 79.3306 3.36617 79.2254 3.47006C79.134 3.56296 79.0427 3.65585 78.9485 3.75156C78.8281 3.87211 78.8281 3.87211 78.7053 3.99511C78.5225 4.21392 78.5225 4.21392 78.5701 4.48091C78.7111 4.79417 78.8912 4.86244 79.1949 5.01474C79.3054 5.07124 79.4158 5.12773 79.5296 5.18594C79.6496 5.2453 79.7696 5.30467 79.8933 5.36583C80.1459 5.49422 80.3985 5.62268 80.6511 5.75119C80.7767 5.81447 80.9023 5.87775 81.0318 5.94295C81.4114 6.13565 81.7869 6.33496 82.1618 6.53675C84.0441 7.54922 85.9665 8.48698 87.8783 9.4418C88.3315 9.0605 88.4818 8.67225 88.632 8.11526C88.657 8.02735 88.682 7.93944 88.7077 7.84887C88.7921 7.55028 88.874 7.25106 88.9558 6.95175C89.0157 6.73636 89.0758 6.52098 89.1359 6.30562C89.7086 4.24229 90.2564 2.17188 90.8045 0.101837C90.8735 -0.158986 90.9427 -0.419777 91.0119 -0.680566C91.638 -3.04271 92.2404 -5.40926 92.7377 -7.80281C92.7566 -7.89413 92.7756 -7.98545 92.7952 -8.07953C92.8606 -8.48823 92.8528 -8.87978 92.8376 -9.29286ZM87.3156 11.3805C86.7934 10.9995 86.2431 10.7199 85.6634 10.4372C85.5385 10.375 85.4136 10.3129 85.285 10.2489C84.8855 10.0503 84.4853 9.85347 84.085 9.65672C83.563 9.39857 83.0412 9.13978 82.5196 8.88089C82.3288 8.7864 82.3288 8.7864 82.1342 8.68999C81.0076 8.13035 79.8947 7.54671 78.7863 6.95175C78.6187 6.86221 78.4511 6.77271 78.2835 6.68325C78.0134 6.53909 77.7434 6.39467 77.4736 6.25004C77.081 6.10207 76.938 6.11988 76.5428 6.24031C76.3078 6.40974 76.3078 6.40974 76.1009 6.63355C76.0213 6.71448 75.9417 6.79542 75.8597 6.8788C75.7375 7.00662 75.7375 7.00662 75.6129 7.13702C75.5324 7.21903 75.4519 7.30103 75.3689 7.38552C74.9942 7.77004 74.633 8.16115 74.2844 8.56958C73.768 9.16442 73.209 9.71274 72.648 10.2649C72.4789 10.4327 72.3098 10.6006 72.1407 10.7685C71.7281 11.1785 71.3148 11.5879 70.9002 11.9959C70.6661 12.2263 70.4327 12.4574 70.1999 12.6891C69.9818 12.9063 69.7627 13.1225 69.5427 13.3377C68.7894 14.0695 68.7894 14.0695 68.3954 15.0148C68.4888 15.3364 68.5908 15.5553 68.7496 15.8448C68.8659 16.0845 68.9815 16.3245 69.0967 16.5647C69.2364 16.8492 69.3763 17.1336 69.5167 17.4177C69.572 17.5297 69.572 17.5297 69.6284 17.644C69.8231 18.0382 70.0181 18.4322 70.2134 18.8262C70.3745 19.1513 70.5349 19.4768 70.6947 19.8025C70.8885 20.1977 71.0835 20.5922 71.2793 20.9863C71.3535 21.1361 71.4273 21.286 71.5006 21.4362C71.6032 21.6459 71.7073 21.8547 71.8116 22.0635C71.8703 22.1824 71.929 22.3013 71.9895 22.4238C72.1833 22.7372 72.325 22.9007 72.6462 23.0778C72.8975 23.1096 72.8975 23.1096 73.1732 23.065C73.2885 23.0508 73.4037 23.0366 73.5225 23.022C74.4751 22.8805 75.4257 22.729 76.3758 22.5711C76.6108 22.5322 76.8458 22.4934 77.0808 22.4545C77.5709 22.3733 78.061 22.2917 78.551 22.2099C79.1785 22.1052 79.8063 22.0021 80.4341 21.8994C80.9185 21.8199 81.4026 21.7392 81.8867 21.6583C82.1182 21.6198 82.3497 21.5817 82.5813 21.544C82.9045 21.4913 83.2273 21.437 83.5502 21.3824C83.693 21.3596 83.693 21.3596 83.8387 21.3364C84.3466 21.2486 84.7442 21.1481 85.1625 20.8249C85.334 20.4793 85.334 20.4793 85.4411 20.0542C85.4645 19.9727 85.488 19.8912 85.5121 19.8072C85.5951 19.5148 85.6741 19.2213 85.7529 18.9277C85.7847 18.8113 85.8166 18.6948 85.8494 18.5749C86.0701 17.7684 86.2851 16.9605 86.4972 16.1517C86.6096 15.7236 86.7232 15.2958 86.8368 14.8679C86.9091 14.5933 86.9814 14.3186 87.0536 14.0439C87.0873 13.9173 87.121 13.7907 87.1557 13.6603C87.2438 13.3222 87.3267 12.9836 87.406 12.6433C87.4286 12.5519 87.4513 12.4606 87.4747 12.3665C87.5589 11.9424 87.5571 11.7445 87.3156 11.3805ZM84.454 23.4335C83.9878 23.1214 83.6808 23.2257 83.1584 23.3181C83.0147 23.3417 83.0147 23.3417 82.868 23.3659C82.5505 23.4185 82.2334 23.4732 81.9163 23.528C81.6958 23.5651 81.4754 23.6021 81.2549 23.639C80.7924 23.7167 80.33 23.7953 79.8678 23.8747C79.2758 23.9763 78.6835 24.0762 78.091 24.1753C77.6355 24.2517 77.1801 24.3287 76.7247 24.406C76.5064 24.4431 76.2881 24.4799 76.0697 24.5166C75.764 24.5682 75.4586 24.6206 75.1531 24.6733C75.063 24.6884 74.973 24.7034 74.8802 24.7189C74.4245 24.7985 74.0125 24.9009 73.5908 25.0935C73.749 25.6102 73.9494 26.0709 74.2011 26.5484C74.2378 26.6183 74.2746 26.6882 74.3125 26.7603C74.4328 26.9882 74.5541 27.2155 74.6757 27.4428C74.7174 27.5211 74.7591 27.5994 74.8021 27.6801C76.789 31.8644 76.789 31.8644 79.7309 35.2909C80.0889 35.3601 80.0889 35.3601 80.4394 35.2909C81.6174 34.2841 82.1435 31.9175 82.6017 30.4664C82.6285 30.3826 82.6552 30.2988 82.6828 30.2125C83.1404 28.7783 83.5524 27.3325 83.9448 25.8791C83.9708 25.7832 83.9968 25.6872 84.0236 25.5884C84.097 25.3165 84.1694 25.0444 84.2414 24.7721C84.2739 24.651 84.2739 24.651 84.3072 24.5275C84.4071 24.1434 84.454 23.8349 84.454 23.4335ZM74.7716 5.05457C74.333 4.6481 73.8382 4.38199 73.3081 4.11698C73.1792 4.05151 73.1792 4.05151 73.0477 3.98471C72.7642 3.84097 72.4801 3.6983 72.196 3.55573C71.9963 3.45502 71.7966 3.35429 71.5969 3.25354C71.1775 3.04215 70.7578 2.83133 70.3379 2.62086C69.9117 2.40716 69.486 2.19259 69.0607 1.97715C66.3197 0.564871 66.3197 0.564871 63.4951 -0.664761C63.4029 -0.701056 63.3106 -0.73735 63.2156 -0.774745C62.6394 -0.983958 62.1589 -1.02332 61.5469 -0.992693C61.2184 0.355188 62.2118 1.97945 62.7793 3.1648C62.8521 3.31893 62.9249 3.47311 62.9975 3.62734C63.1476 3.94586 63.2981 4.26416 63.449 4.5823C63.7667 5.25303 64.0782 5.92658 64.3901 6.60001C64.4912 6.81795 64.5927 7.03572 64.6943 7.25343C65.0276 7.96795 65.3586 8.68334 65.6842 9.40144C65.8446 9.7546 66.006 10.1072 66.1676 10.4598C66.2452 10.6297 66.3222 10.7999 66.3986 10.9703C66.5047 11.2068 66.6127 11.4425 66.7211 11.678C66.7823 11.8131 66.8435 11.9482 66.9066 12.0874C67.111 12.4304 67.2176 12.4888 67.5688 12.6433C68.4211 11.7902 69.2731 10.9367 70.1247 10.0829C70.5202 9.68635 70.9157 9.28995 71.3116 8.8938C71.6939 8.51119 72.0759 8.12829 72.4577 7.74518C72.6031 7.59939 72.7486 7.45369 72.8942 7.30811C73.0988 7.10351 73.3031 6.89853 73.5072 6.69347C73.5669 6.63394 73.6266 6.57441 73.6881 6.51307C74.4077 5.87135 74.4077 5.87135 74.7716 5.05457ZM69.8739 22.3311C69.8101 22.2029 69.7462 22.0747 69.6805 21.9427C69.5759 21.7353 69.5759 21.7353 69.4692 21.5238C69.3976 21.3808 69.3261 21.2378 69.2547 21.0947C69.0667 20.7183 68.8778 20.3424 68.6887 19.9666C68.4958 19.583 68.3038 19.1989 68.1117 18.8149C67.7348 18.0616 67.3569 17.3088 66.9784 16.5562C66.4029 16.6474 66.1772 16.8293 65.7654 17.2496C65.6792 17.3368 65.6792 17.3368 65.5912 17.4257C65.408 17.6116 65.2265 17.799 65.0449 17.9865C64.9239 18.1094 64.8027 18.2323 64.6815 18.355C64.114 18.9318 63.5631 19.5183 63.0374 20.1341C62.6957 20.5201 62.3219 20.8733 61.9527 21.2325C60.8083 22.338 60.8083 22.338 60.248 23.7892C61.0066 24.2048 61.6406 24.1801 62.4915 24.1449C62.6694 24.1411 62.8472 24.1374 63.0251 24.1338C64.5756 24.093 66.1149 23.9512 67.6574 23.7966C67.7613 23.7865 67.8653 23.7764 67.9724 23.766C68.2703 23.7367 68.5681 23.706 68.8659 23.6748C69.0013 23.6617 69.0013 23.6617 69.1395 23.6482C69.5662 23.6017 69.8027 23.5585 70.1666 23.3149C70.1666 22.8966 70.0606 22.7034 69.8739 22.3311Z" fill="#94C5E8"/>
<path d="M47.9681 47.7411C47.3909 48.2367 46.6409 48.5247 45.9414 48.8009C45.8393 48.8415 45.7372 48.882 45.6321 48.9238C44.4902 49.3657 43.3207 49.6838 42.138 49.994C41.9103 50.055 41.6825 50.116 41.4549 50.1772C40.8954 50.3273 40.3356 50.4757 39.7756 50.6237C39.2355 50.7666 38.6958 50.9115 38.1562 51.0563C37.7926 51.1538 37.4289 51.251 37.0651 51.3475C36.8124 51.4146 36.5598 51.4825 36.3076 51.5513C36.0304 51.6256 35.7522 51.6961 35.4734 51.7643C35.3247 51.8025 35.1761 51.8407 35.0229 51.8801C34.8876 51.9135 34.7522 51.9469 34.6128 51.9813C34.1881 52.1641 34.0924 52.2957 33.9168 52.7212C33.8332 53.1228 33.8332 53.1228 33.7955 53.5652C33.7868 53.6465 33.7781 53.7278 33.7692 53.8116C33.7507 53.9855 33.7327 54.1594 33.7153 54.3334C33.6694 54.789 33.618 55.244 33.5667 55.699C33.5566 55.7894 33.5465 55.8798 33.5361 55.973C33.4474 56.7527 33.3387 57.5277 33.2084 58.3016C33.1916 58.407 33.1749 58.5124 33.1577 58.6209C32.9844 59.6089 32.6927 60.4777 31.9095 61.14C31.5273 61.3319 31.1431 61.3094 30.7287 61.2586C29.8808 60.9203 29.3413 60.4007 28.714 59.7467C28.6238 59.655 28.5336 59.5633 28.4407 59.4688C27.8829 58.8976 27.3499 58.3093 26.8321 57.7013C26.7715 57.6306 26.711 57.5599 26.6485 57.487C26.5314 57.3501 26.4144 57.2129 26.2976 57.0757C26.1781 56.9353 26.0584 56.7951 25.9385 56.6552C25.6758 56.3486 25.4153 56.0414 25.1611 55.7277C25.0915 55.6429 25.0219 55.5581 24.9503 55.4707C24.8932 55.399 24.8361 55.3273 24.7773 55.2534C24.5218 55.0358 24.3297 55.0157 23.9983 54.9741C23.6872 55.0187 23.6872 55.0187 23.3655 55.1145C23.1795 55.1651 23.1795 55.1651 22.9898 55.2167C22.8564 55.2543 22.723 55.292 22.5855 55.3308C22.3758 55.3882 22.3758 55.3882 22.1619 55.4467C21.7134 55.5696 21.2655 55.6942 20.8175 55.819C17.4385 56.7543 17.4385 56.7543 15.9242 57.1001C15.8205 57.1238 15.7167 57.1475 15.6098 57.1719C13.8664 57.5597 11.6109 57.8552 9.99862 56.8861C9.61293 56.5485 9.39341 56.2363 9.29707 55.7263C9.2759 54.695 9.57201 53.9706 10.065 53.077C10.1024 53.0087 10.1397 52.9404 10.1782 52.87C10.7897 51.7638 11.5097 50.7446 12.2546 49.7259C12.7464 49.0525 13.2208 48.3673 13.6945 47.681C14.0423 47.1788 14.3954 46.6822 14.7614 46.1932C14.8328 46.0971 14.9042 46.0009 14.9777 45.9019C15.1135 45.7198 15.2505 45.5388 15.3892 45.359C15.6566 44.9989 15.8341 44.7354 15.9302 44.2928C15.8199 43.8116 15.5557 43.5074 15.2457 43.139C14.4899 42.194 13.8087 41.2055 13.1389 40.1984C13.0244 40.0263 12.9096 39.8545 12.7945 39.6829C10.7543 36.6411 10.7543 36.6411 11.0097 35.1723C11.1528 34.7978 11.3442 34.5518 11.6835 34.3279C13.4351 33.6538 15.8121 34.6544 17.4809 35.1728C17.5836 35.2047 17.6862 35.2366 17.792 35.2694C18.3135 35.4319 18.8343 35.5962 19.3543 35.7635C19.4526 35.7947 19.551 35.8259 19.6523 35.8581C19.8382 35.9171 20.0239 35.9769 20.2092 36.0377C20.6973 36.1918 21.1185 36.291 21.6367 36.2395C22.0168 35.9425 22.2508 35.5702 22.5075 35.1649C23.6302 33.4468 24.9006 31.8273 26.143 30.1959C26.4928 29.7363 26.8395 29.2744 27.184 28.8108C27.4108 28.5056 27.6386 28.2012 27.8668 27.8971C27.9957 27.7252 28.1238 27.5528 28.2518 27.3803C29.2585 26.0644 30.4602 24.5996 32.1014 24.145C32.6992 24.145 33.1071 24.3478 33.5921 24.686C34.8602 26.4596 34.3971 29.7251 34.388 31.7844C34.3799 33.7762 34.4127 35.7673 34.4482 37.7587C34.4496 37.8388 34.451 37.9189 34.4525 38.0014C34.4701 38.9951 34.4884 39.9888 34.5072 40.9824C34.6014 41.0133 34.6014 41.0133 34.6975 41.0448C35.3934 41.2751 36.0819 41.5224 36.7692 41.7773C36.8831 41.8193 36.997 41.8614 37.1143 41.9048C37.4852 42.0418 37.8559 42.1791 38.2267 42.3164C38.7468 42.5088 39.2669 42.7012 39.7871 42.8935C39.9836 42.9662 39.9836 42.9662 40.1842 43.0404C41.0488 43.3599 41.9144 43.6769 42.7805 43.9922C43.0022 44.073 43.2239 44.1539 43.4456 44.2348C43.7593 44.3492 44.0729 44.4634 44.3868 44.577C44.6744 44.681 44.9618 44.7858 45.2491 44.8907C45.3318 44.9204 45.4144 44.9501 45.4996 44.9807C46.2576 45.2588 47.0413 45.5508 47.6065 46.1478C47.6733 46.2164 47.7402 46.2851 47.809 46.3558C48.1688 46.8072 48.1231 47.2104 47.9681 47.7411ZM44.78 46.7926C43.0098 46.0806 41.2149 45.4451 39.4148 44.8139C38.9876 44.6637 38.5605 44.5134 38.1333 44.3631C37.87 44.2705 37.6066 44.178 37.3432 44.0856C37.2225 44.0432 37.1018 44.0008 36.9774 43.9571C36.8612 43.9166 36.7449 43.876 36.6251 43.8342C36.3889 43.7493 36.154 43.6605 35.9205 43.5683C35.8066 43.5237 35.6927 43.4791 35.5754 43.4332C35.4245 43.372 35.4245 43.372 35.2704 43.3096C34.9346 43.2239 34.72 43.262 34.3891 43.3539C34.2743 43.8531 34.2359 44.3483 34.2079 44.8583C34.2028 44.9459 34.1977 45.0336 34.1925 45.1238C34.1819 45.3092 34.1715 45.4946 34.1613 45.6799C34.1458 45.9584 34.1295 46.2367 34.1131 46.5151C33.8883 48.2473 33.8883 48.2473 34.153 49.8755C34.7785 49.8065 35.3685 49.7025 35.9792 49.5442C36.0618 49.5229 36.1443 49.5017 36.2293 49.4798C36.499 49.4102 36.7685 49.3397 37.0381 49.2692C37.2274 49.2199 37.4168 49.1707 37.6061 49.1216C38.0019 49.0186 38.3976 48.9152 38.7932 48.8115C39.2977 48.6793 39.8025 48.5485 40.3074 48.418C40.6983 48.3168 41.0889 48.2148 41.4795 48.1125C41.6654 48.064 41.8514 48.0157 42.0375 47.9677C42.9875 47.7225 43.8968 47.4695 44.78 47.0297C44.78 46.9514 44.78 46.8732 44.78 46.7926ZM32.1457 26.5164C31.6018 26.6187 31.3161 26.9447 30.9427 27.3316C30.8746 27.4013 30.8064 27.471 30.7362 27.5429C30.1421 28.1578 29.6006 28.8056 29.0756 29.4808C28.9758 29.6059 28.8759 29.731 28.7758 29.856C27.8907 30.9665 27.0612 32.1152 26.2417 33.2751C26.1705 33.376 26.0992 33.4768 26.0258 33.5807C24.8556 35.24 24.8556 35.24 23.7621 36.9509C24.0266 37.3695 24.2392 37.5107 24.7048 37.6656C24.8247 37.7064 24.9447 37.7471 25.0682 37.7892C25.1981 37.8315 25.328 37.8739 25.4618 37.9176C25.6635 37.9855 25.6635 37.9855 25.8693 38.0548C26.3005 38.1997 26.7323 38.3424 27.1642 38.485C27.5905 38.6273 28.0166 38.7701 28.4427 38.913C28.7167 39.0046 28.9907 39.096 29.2649 39.1869C30.0987 39.464 30.925 39.7542 31.7442 40.0721C32.0409 40.185 32.0409 40.185 32.3818 40.0338C32.5243 39.6046 32.5173 39.2117 32.517 38.7648C32.5176 38.6253 32.5176 38.6253 32.5182 38.483C32.5194 38.1741 32.5196 37.8652 32.5197 37.5563C32.5201 37.3398 32.5205 37.1232 32.5209 36.9066C32.5216 36.4508 32.5218 35.995 32.5218 35.5391C32.5218 35.0763 32.5226 34.6135 32.5242 34.1506C32.6124 30.3117 32.6124 30.3117 32.1457 26.5164ZM32.1265 42.2409C31.9221 42.1375 31.9221 42.1375 31.6733 42.0496C31.5642 42.0067 31.455 41.9639 31.3426 41.9197C30.928 41.7647 30.5101 41.6211 30.0908 41.4794C29.9346 41.4258 29.7783 41.3721 29.6221 41.3182C29.2114 41.177 28.8002 41.037 28.389 40.8973C27.9764 40.7569 27.5642 40.6152 27.152 40.4736C26.0277 40.0879 26.0277 40.0879 24.9018 39.7069C24.5949 39.602 24.2904 39.4944 23.9859 39.3829C23.9059 39.3543 23.8258 39.3257 23.7432 39.2962C23.5192 39.2161 23.2958 39.1344 23.0724 39.0526C22.7142 38.937 22.7142 38.937 22.429 39.0516C22.1221 39.283 21.9189 39.5634 21.6884 39.8708C21.6378 39.9381 21.5872 40.0054 21.5351 40.0748C21.0193 40.768 20.5326 41.4814 20.0496 42.1978C19.7336 42.6661 19.4034 43.1235 19.0676 43.5776C18.8908 43.8797 18.8123 44.0686 18.8028 44.4211C18.9486 44.6871 19.0898 44.8965 19.2751 45.1325C19.3311 45.2071 19.3871 45.2816 19.4448 45.3584C19.6393 45.616 19.8369 45.871 20.0353 46.1256C20.1078 46.2189 20.1803 46.3123 20.255 46.4085C20.7982 47.1056 21.351 47.7944 21.9089 48.4797C22.3259 48.9923 22.7364 49.5095 23.1422 50.0311C24.0559 51.2387 24.0559 51.2387 25.061 52.3655C25.8997 52.3977 26.7345 52.1395 27.5328 51.9107C27.7098 51.8609 27.7098 51.8609 27.8905 51.8101C28.1378 51.7402 28.385 51.6698 28.632 51.599C29.0106 51.4906 29.3898 51.3847 29.7691 51.2789C30.0101 51.2105 30.2511 51.1419 30.4921 51.0733C30.662 51.026 30.662 51.026 30.8354 50.9778C30.9403 50.9473 31.0452 50.9169 31.1533 50.8855C31.2454 50.8593 31.3375 50.833 31.4325 50.806C31.7043 50.6926 31.8432 50.5788 32.0276 50.3498C32.1411 50.0077 32.1673 49.7653 32.1807 49.4084C32.1855 49.2891 32.1902 49.1699 32.195 49.0471C32.1996 48.9182 32.2042 48.7892 32.2088 48.6564C32.2139 48.5231 32.219 48.3899 32.2242 48.2526C32.2349 47.9699 32.2453 47.6872 32.2555 47.4045C32.2709 46.9754 32.2872 46.5463 32.3036 46.1172C32.3139 45.8421 32.3241 45.567 32.3343 45.2919C32.3415 45.1013 32.3415 45.1013 32.3488 44.9069C32.3575 44.6646 32.3648 44.4223 32.3707 44.1798C32.3782 43.9409 32.3914 43.7022 32.4096 43.4638C32.4629 42.79 32.4629 42.79 32.1265 42.2409ZM31.7914 52.9584C31.7525 52.9193 31.7135 52.8801 31.6733 52.8398C30.7889 52.9176 29.9625 53.1547 29.113 53.4037C28.8605 53.4775 28.6075 53.5491 28.3545 53.6207C28.1931 53.6676 28.0317 53.7145 27.8704 53.7615C27.7249 53.8036 27.5794 53.8457 27.4295 53.8891C27.0939 54.0159 26.9328 54.1034 26.7141 54.3813C26.7955 54.4774 26.8769 54.5736 26.9608 54.6726C27.0729 54.8052 27.185 54.9378 27.2971 55.0705C27.356 55.1402 27.415 55.2099 27.4757 55.2818C27.8455 55.7204 28.208 56.1639 28.5664 56.6119C28.9579 57.096 29.371 57.5388 29.8178 57.9714C30.0202 58.1756 30.0202 58.1756 30.2859 58.5239C30.5104 58.7896 30.6249 58.8505 30.9649 58.8871C31.2433 58.4312 31.3016 57.9331 31.3832 57.4142C31.3989 57.3171 31.4146 57.22 31.4307 57.12C31.4636 56.9147 31.496 56.7094 31.528 56.504C31.577 56.192 31.6282 55.8805 31.6796 55.5689C31.7113 55.3688 31.7429 55.1687 31.7744 54.9686C31.7897 54.8764 31.8051 54.7842 31.8209 54.6893C31.9131 54.0812 31.9007 53.5649 31.7914 52.9584ZM22.1459 51.8764C22.0037 51.7046 21.8618 51.5326 21.7202 51.3604C21.6107 51.2274 21.6107 51.2274 21.4991 51.0917C21.161 50.6741 20.8379 50.2456 20.515 49.8162C19.5844 48.5831 18.6099 47.3868 17.622 46.1997C17.3295 46.2447 17.181 46.2863 16.9706 46.5009C16.9143 46.5796 16.8581 46.6582 16.8001 46.7393C16.7356 46.8283 16.6711 46.9173 16.6046 47.009C16.5361 47.1063 16.4676 47.2036 16.397 47.3039C16.3244 47.405 16.2519 47.506 16.1772 47.6101C15.9488 47.9294 15.7225 48.2501 15.4966 48.5712C15.4274 48.6691 15.3581 48.7671 15.2867 48.8681C14.8742 49.4521 14.4659 50.0389 14.0604 50.6278C13.91 50.8461 13.7593 51.0642 13.6082 51.282C13.3685 51.6278 13.1299 51.9743 12.8915 52.3211C12.8184 52.4263 12.7453 52.5316 12.6699 52.6401C11.8169 53.7608 11.8169 53.7608 11.5188 55.0606C11.5751 55.3235 11.5751 55.3235 11.7181 55.4484C14.4488 55.6509 17.0781 54.8754 19.6814 54.1437C20.0772 54.0324 20.4736 53.9232 20.8701 53.8143C21.0962 53.7515 21.3222 53.6885 21.5481 53.6254C21.6507 53.5971 21.7534 53.5689 21.8591 53.5397C22.3871 53.3986 22.3871 53.3986 22.8175 53.077C22.8175 52.5453 22.4737 52.2647 22.1459 51.8764ZM20.2198 38.2552C16.8289 36.8922 16.8289 36.8922 13.2531 36.2395C13.3098 36.8658 13.5461 37.3079 13.8804 37.8254C13.9586 37.9486 13.9586 37.9486 14.0384 38.0743C14.6351 38.9998 15.298 39.8735 15.9689 40.7453C16.0865 40.8992 16.2039 41.0531 16.3213 41.2071C16.5966 41.5677 16.8728 41.9275 17.1497 42.2867C17.4889 42.2469 17.6863 42.2208 17.9349 41.9776C17.9909 41.8964 18.0468 41.8151 18.1045 41.7314C18.1677 41.6415 18.2309 41.5516 18.296 41.4589C18.361 41.3628 18.4259 41.2667 18.4929 41.1677C18.5603 41.0706 18.6276 40.9735 18.6971 40.8735C18.8305 40.6811 18.9633 40.4883 19.0954 40.295C19.2453 40.0771 19.398 39.8624 19.5546 39.6494C19.628 39.5488 19.7014 39.4483 19.777 39.3446C19.8385 39.2607 19.9 39.1768 19.9633 39.0904C20.1215 38.8135 20.1739 38.5694 20.2198 38.2552Z" fill="#94C5E8"/>
</g>
<defs>
<clipPath id="clip0_431_27984">
<rect width="143" height="145" fill="white" transform="translate(105 -81.7415) rotate(90)"/>
</clipPath>
</defs>
</svg>
