<svg width="250" height="247" viewBox="0 0 250 247" fill="none" xmlns="http://www.w3.org/2000/svg">
<g clip-path="url(#clip0_610_6004)">
<path d="M250 172.77C249.983 172.926 249.966 173.083 249.949 173.244C249.743 173.831 249.509 173.966 248.982 174.293C248.333 174.484 248.333 174.484 247.554 174.646C247.41 174.677 247.267 174.707 247.12 174.739C246.643 174.84 246.166 174.937 245.689 175.035C245.351 175.106 245.012 175.177 244.674 175.249C243.766 175.439 242.858 175.627 241.95 175.815C241.199 175.97 240.448 176.127 239.698 176.284C234.67 177.335 229.639 178.365 224.601 179.367C224.387 179.41 224.174 179.452 223.953 179.496C223.565 179.573 223.177 179.65 222.788 179.726C222.451 179.793 222.113 179.861 221.776 179.93C221.45 179.996 221.124 180.058 220.797 180.115C219.82 180.301 219.111 180.465 218.445 181.256C218.139 181.969 217.941 182.701 217.742 183.45C217.68 183.669 217.619 183.887 217.556 184.113C217.425 184.581 217.295 185.05 217.167 185.519C216.968 186.252 216.764 186.983 216.559 187.714C216.289 188.676 216.021 189.638 215.754 190.6C212.23 203.303 212.23 203.303 208.876 205.629C207.862 206.15 206.905 206.134 205.822 205.833C200.896 203.555 198.117 196.242 195.655 191.764C195.395 191.291 195.134 190.82 194.872 190.349C194.329 189.372 193.792 188.397 193.298 187.394C193.222 187.247 193.146 187.1 193.067 186.949C192.875 186.579 192.693 186.205 192.511 185.83C191.649 185.057 190.648 185.303 189.536 185.352C188.674 185.409 187.815 185.49 186.955 185.576C186.467 185.623 185.978 185.67 185.49 185.717C184.733 185.79 183.976 185.864 183.219 185.939C173.416 186.899 173.416 186.899 170.399 185.352C169.632 184.695 169.231 184.254 169.129 183.226C169.059 180.638 170.311 178.775 172.038 176.915C172.309 176.645 172.582 176.377 172.858 176.112C173.237 175.739 173.58 175.352 173.924 174.946C174.68 174.059 175.504 173.246 176.335 172.43C176.771 171.992 177.176 171.535 177.577 171.064C178.567 169.913 179.663 168.868 180.752 167.812C180.911 167.656 181.069 167.5 181.232 167.339C181.375 167.199 181.519 167.059 181.666 166.915C182.032 166.476 182.172 166.261 182.207 165.691C182.043 165.157 182.043 165.157 181.762 164.594C181.659 164.373 181.556 164.152 181.449 163.924C181.276 163.563 181.276 163.563 181.1 163.195C180.979 162.939 180.859 162.683 180.739 162.428C179.96 160.773 179.161 159.127 178.363 157.48C177.673 156.055 176.986 154.627 176.303 153.197C176.235 153.056 176.167 152.915 176.098 152.769C174.559 149.55 173.133 146.334 172.04 142.931C171.975 142.73 171.975 142.73 171.908 142.524C171.336 140.739 170.882 139.195 171.626 137.398C172.075 136.535 172.611 136.093 173.491 135.712C176.743 135.175 180.119 136.996 182.982 138.349C183.454 138.572 183.925 138.793 184.398 139.014C193.287 143.167 193.287 143.167 197.431 145.441C197.61 145.539 197.789 145.637 197.973 145.737C198.3 145.917 198.625 146.099 198.948 146.284C199.533 146.607 199.996 146.845 200.67 146.862C201.32 146.56 201.674 146.153 202.158 145.619C202.408 145.363 202.66 145.108 202.913 144.853C203.049 144.715 203.185 144.577 203.326 144.435C203.465 144.293 203.605 144.152 203.748 144.007C203.886 143.867 204.023 143.727 204.164 143.583C204.301 143.445 204.438 143.306 204.58 143.163C204.701 143.04 204.822 142.917 204.948 142.79C205.323 142.431 205.703 142.096 206.097 141.759C207.316 140.692 208.441 139.526 209.579 138.374C210.004 137.944 210.429 137.515 210.854 137.087C211.756 136.177 212.657 135.266 213.559 134.355C214.604 133.298 215.65 132.242 216.696 131.187C217.113 130.767 217.528 130.346 217.944 129.925C220.224 127.623 220.224 127.623 221.4 126.627C221.845 126.245 222.242 125.821 222.644 125.395C224.337 123.676 226.243 122.097 228.42 121.042C228.555 120.975 228.689 120.907 228.827 120.838C229.786 120.72 230.481 120.744 231.347 121.196C232.09 121.837 232.555 122.349 232.663 123.346C232.77 124.858 232.471 126.332 232.204 127.814C232.177 127.97 232.149 128.126 232.121 128.287C231.543 131.575 230.751 134.793 229.886 138.014C229.685 138.767 229.487 139.52 229.29 140.273C228.527 143.169 227.748 146.06 226.963 148.95C226.847 149.377 226.731 149.805 226.615 150.232C226.254 151.563 225.891 152.892 225.524 154.221C225.395 154.695 225.265 155.168 225.136 155.642C225.076 155.855 225.017 156.068 224.955 156.287C224.552 157.691 224.552 157.691 224.552 159.137C224.921 159.651 225.36 159.883 225.925 160.146C226.087 160.222 226.249 160.299 226.416 160.377C226.69 160.505 226.69 160.505 226.97 160.635C227.393 160.835 227.816 161.035 228.239 161.236C228.359 161.293 228.478 161.35 228.602 161.408C230.325 162.229 232.035 163.078 233.748 163.922C234.351 164.22 234.956 164.517 235.56 164.814C238.859 166.436 238.859 166.436 240.355 167.18C242.828 168.408 245.283 169.604 247.895 170.508C250.195 171.319 250.195 171.319 250 172.77ZM242.06 171.835C239.421 170.378 236.719 169.074 233.992 167.794C232.482 167.085 230.976 166.371 229.478 165.638C229.334 165.568 229.191 165.497 229.043 165.425C228.359 165.09 227.677 164.755 226.995 164.418C225.791 163.826 224.598 163.264 223.331 162.823C222.816 163.341 222.757 163.728 222.572 164.435C222.505 164.688 222.439 164.94 222.37 165.2C222.299 165.476 222.228 165.753 222.157 166.029C222.083 166.312 222.01 166.595 221.937 166.877C221.783 167.47 221.63 168.062 221.479 168.655C221.284 169.416 221.085 170.176 220.886 170.935C220.733 171.518 220.583 172.102 220.433 172.687C220.361 172.967 220.288 173.247 220.214 173.527C220.111 173.918 220.012 174.31 219.912 174.702C219.855 174.925 219.797 175.148 219.738 175.378C219.599 175.976 219.599 175.976 220.073 176.546C221.764 176.42 223.408 176.116 225.07 175.789C225.358 175.733 225.645 175.677 225.933 175.621C226.537 175.503 227.14 175.385 227.744 175.267C228.496 175.119 229.249 174.973 230.002 174.827C234.04 174.044 238.055 173.182 242.06 172.245C242.06 172.11 242.06 171.974 242.06 171.835ZM229.031 125.139C228.075 125.235 227.651 125.602 226.97 126.265C226.25 126.96 225.517 127.603 224.738 128.229C223.602 129.161 222.556 130.157 221.52 131.198C221.333 131.385 221.145 131.572 220.952 131.764C220.446 132.269 219.941 132.775 219.436 133.282C219.12 133.599 218.804 133.916 218.488 134.233C217.383 135.339 216.28 136.446 215.178 137.554C214.151 138.586 213.122 139.615 212.092 140.643C211.205 141.529 210.319 142.416 209.436 143.305C208.909 143.835 208.381 144.364 207.852 144.891C207.263 145.477 206.679 146.066 206.095 146.656C205.919 146.83 205.743 147.004 205.562 147.184C205.404 147.344 205.247 147.505 205.084 147.67C204.877 147.878 204.877 147.878 204.665 148.09C204.35 148.468 204.35 148.468 204.432 148.93C204.675 149.471 204.985 149.589 205.509 149.852C205.7 149.949 205.89 150.047 206.086 150.147C206.293 150.25 206.5 150.352 206.713 150.458C207.149 150.68 207.584 150.902 208.02 151.124C208.236 151.233 208.453 151.342 208.676 151.455C209.331 151.788 209.978 152.132 210.624 152.481C213.87 154.229 217.184 155.849 220.48 157.498C221.262 156.84 221.521 156.169 221.78 155.207C221.823 155.055 221.866 154.903 221.911 154.747C222.056 154.231 222.197 153.714 222.338 153.197C222.442 152.825 222.545 152.453 222.649 152.081C223.636 148.517 224.581 144.941 225.526 141.366C225.645 140.915 225.764 140.465 225.883 140.014C226.963 135.934 228.001 131.847 228.859 127.712C228.891 127.555 228.924 127.397 228.958 127.234C229.071 126.528 229.057 125.852 229.031 125.139ZM219.51 160.847C218.61 160.189 217.661 159.706 216.662 159.218C216.446 159.11 216.231 159.003 216.009 158.892C215.321 158.55 214.631 158.209 213.94 157.87C213.04 157.424 212.141 156.977 211.241 156.53C210.912 156.366 210.912 156.366 210.577 156.2C208.634 155.233 206.716 154.225 204.805 153.197C204.516 153.043 204.227 152.888 203.938 152.734C203.472 152.485 203.007 152.235 202.541 151.985C201.864 151.73 201.618 151.761 200.937 151.969C200.531 152.261 200.531 152.261 200.175 152.648C200.037 152.788 199.9 152.927 199.759 153.071C199.548 153.292 199.548 153.292 199.333 153.517C199.194 153.659 199.056 153.801 198.913 153.947C198.267 154.611 197.644 155.286 197.043 155.992C196.152 157.019 195.189 157.966 194.221 158.92C193.93 159.21 193.638 159.5 193.347 159.79C192.635 160.498 191.923 161.205 191.208 161.91C190.804 162.308 190.402 162.707 190 163.107C189.624 163.483 189.247 163.856 188.867 164.228C187.569 165.492 187.569 165.492 186.889 167.124C187.05 167.68 187.226 168.058 187.5 168.558C187.7 168.972 187.9 169.387 188.098 169.802C188.339 170.293 188.581 170.784 188.823 171.275C188.918 171.469 188.918 171.469 189.015 171.666C189.351 172.347 189.687 173.027 190.024 173.708C190.302 174.269 190.578 174.832 190.854 175.394C191.188 176.077 191.524 176.758 191.862 177.439C191.989 177.698 192.117 177.957 192.243 178.216C192.42 178.578 192.6 178.939 192.779 179.3C192.88 179.505 192.982 179.71 193.086 179.922C193.42 180.463 193.664 180.746 194.218 181.051C194.652 181.107 194.652 181.107 195.127 181.029C195.326 181.005 195.524 180.98 195.729 180.955C197.372 180.711 199.011 180.449 200.649 180.176C201.054 180.109 201.459 180.042 201.864 179.975C202.709 179.835 203.554 179.694 204.399 179.552C205.481 179.372 206.563 179.193 207.646 179.016C208.481 178.879 209.316 178.739 210.15 178.6C210.549 178.533 210.948 178.467 211.348 178.402C211.905 178.311 212.462 178.217 213.018 178.123C213.264 178.084 213.264 178.084 213.516 178.044C214.391 177.892 215.077 177.718 215.798 177.16C216.094 176.563 216.094 176.563 216.278 175.829C216.319 175.688 216.359 175.547 216.401 175.402C216.544 174.897 216.68 174.39 216.816 173.883C216.871 173.682 216.926 173.481 216.982 173.274C217.363 171.881 217.734 170.485 218.099 169.088C218.293 168.349 218.489 167.61 218.685 166.871C218.81 166.396 218.934 165.922 219.059 165.448C219.117 165.229 219.175 165.01 219.235 164.785C219.387 164.201 219.53 163.616 219.666 163.028C219.705 162.87 219.744 162.713 219.785 162.55C219.93 161.818 219.927 161.476 219.51 160.847ZM214.577 181.666C213.773 181.127 213.243 181.307 212.343 181.467C212.095 181.507 212.095 181.507 211.842 181.549C211.295 181.64 210.748 181.734 210.201 181.829C209.821 181.893 209.441 181.957 209.061 182.021C208.263 182.155 207.466 182.291 206.669 182.428C205.649 182.604 204.627 182.776 203.606 182.947C202.82 183.079 202.035 183.212 201.25 183.346C200.874 183.41 200.497 183.473 200.121 183.537C199.594 183.626 199.067 183.716 198.541 183.807C198.385 183.833 198.23 183.859 198.07 183.886C197.284 184.024 196.574 184.2 195.847 184.533C196.12 185.426 196.465 186.222 196.899 187.046C196.962 187.167 197.026 187.288 197.091 187.412C197.299 187.806 197.508 188.198 197.717 188.591C197.789 188.726 197.861 188.862 197.935 189.001C201.361 196.228 201.361 196.228 206.433 202.147C207.05 202.266 207.05 202.266 207.655 202.147C209.686 200.408 210.593 196.32 211.383 193.814C211.429 193.669 211.475 193.524 211.523 193.375C212.312 190.898 213.022 188.401 213.699 185.89C213.743 185.724 213.788 185.559 213.835 185.388C213.961 184.918 214.086 184.448 214.21 183.978C214.266 183.769 214.266 183.769 214.323 183.556C214.496 182.892 214.577 182.359 214.577 181.666ZM197.883 149.92C197.127 149.218 196.273 148.759 195.359 148.301C195.137 148.188 195.137 148.188 194.91 148.073C194.422 147.824 193.932 147.578 193.442 147.332C193.098 147.158 192.753 146.984 192.409 146.81C191.686 146.444 190.962 146.08 190.238 145.717C189.504 145.348 188.77 144.977 188.036 144.605C183.31 142.166 183.31 142.166 178.441 140.042C178.282 139.979 178.122 139.916 177.959 139.852C176.965 139.49 176.137 139.422 175.081 139.475C174.515 141.803 176.228 144.609 177.206 146.656C177.332 146.923 177.457 147.189 177.583 147.455C177.841 148.005 178.101 148.555 178.361 149.105C178.909 150.263 179.446 151.427 179.984 152.59C180.158 152.966 180.333 153.342 180.508 153.719C181.083 154.953 181.653 156.188 182.215 157.429C182.491 158.039 182.77 158.648 183.048 159.257C183.182 159.55 183.315 159.844 183.447 160.139C183.63 160.547 183.816 160.954 184.003 161.361C184.108 161.594 184.214 161.828 184.322 162.068C184.675 162.661 184.859 162.761 185.464 163.028C186.934 161.555 188.403 160.081 189.871 158.606C190.553 157.921 191.235 157.236 191.917 156.552C192.576 155.891 193.235 155.23 193.893 154.568C194.144 154.316 194.395 154.064 194.646 153.813C194.999 153.46 195.351 153.106 195.703 152.751C195.806 152.648 195.909 152.546 196.015 152.44C197.255 151.331 197.255 151.331 197.883 149.92ZM189.438 179.762C189.328 179.54 189.218 179.319 189.105 179.091C188.925 178.733 188.925 178.733 188.741 178.367C188.617 178.12 188.494 177.873 188.371 177.626C188.047 176.976 187.721 176.327 187.395 175.678C187.062 175.015 186.731 174.352 186.4 173.688C185.75 172.387 185.099 171.087 184.446 169.787C183.454 169.944 183.065 170.259 182.355 170.985C182.206 171.135 182.206 171.135 182.054 171.289C181.739 171.61 181.426 171.934 181.113 172.257C180.904 172.47 180.695 172.682 180.486 172.894C179.508 173.89 178.558 174.903 177.651 175.967C177.062 176.634 176.418 177.244 175.781 177.864C173.808 179.774 173.808 179.774 172.842 182.28C174.15 182.998 175.243 182.955 176.71 182.895C177.017 182.888 177.324 182.882 177.63 182.876C180.303 182.805 182.957 182.56 185.617 182.293C185.796 182.276 185.975 182.258 186.16 182.24C186.674 182.19 187.187 182.137 187.7 182.083C187.934 182.06 187.934 182.06 188.172 182.037C188.908 181.956 189.316 181.882 189.943 181.461C189.943 180.739 189.76 180.405 189.438 179.762Z" fill="#94C5E8"/>
<path d="M151.669 223.652C150.674 224.508 149.381 225.005 148.175 225.482C147.999 225.552 147.823 225.622 147.642 225.695C145.673 226.458 143.657 227.007 141.617 227.543C141.225 227.648 140.832 227.754 140.44 227.86C139.475 228.119 138.51 228.375 137.544 228.631C136.613 228.878 135.683 229.128 134.752 229.378C134.125 229.546 133.498 229.714 132.871 229.881C132.435 229.997 132 230.114 131.565 230.233C131.087 230.361 130.607 230.483 130.127 230.601C129.87 230.667 129.614 230.733 129.35 230.801C129.117 230.859 128.883 230.916 128.643 230.976C127.911 231.291 127.746 231.519 127.443 232.254C127.299 232.947 127.299 232.947 127.234 233.711C127.219 233.852 127.204 233.992 127.188 234.137C127.157 234.437 127.126 234.738 127.096 235.039C127.016 235.825 126.928 236.611 126.839 237.397C126.822 237.553 126.805 237.71 126.787 237.87C126.634 239.217 126.446 240.556 126.222 241.893C126.193 242.075 126.164 242.257 126.134 242.444C125.835 244.151 125.332 245.651 123.982 246.795C123.323 247.127 122.661 247.088 121.946 247C120.484 246.416 119.554 245.518 118.473 244.389C118.317 244.23 118.162 244.072 118.001 243.909C117.04 242.922 116.121 241.906 115.228 240.856C115.124 240.734 115.019 240.611 114.911 240.486C114.709 240.249 114.508 240.012 114.306 239.775C114.1 239.533 113.894 239.291 113.687 239.049C113.234 238.519 112.785 237.989 112.347 237.447C112.227 237.3 112.107 237.154 111.983 237.003C111.885 236.879 111.787 236.755 111.685 236.628C111.245 236.252 110.914 236.217 110.342 236.145C109.806 236.222 109.806 236.222 109.251 236.388C108.93 236.475 108.93 236.475 108.603 236.564C108.373 236.629 108.143 236.694 107.906 236.761C107.545 236.86 107.545 236.86 107.176 236.961C106.403 237.174 105.63 237.389 104.858 237.604C99.0321 239.22 99.0321 239.22 96.4212 239.817C96.2424 239.858 96.0635 239.899 95.8792 239.941C92.8733 240.611 88.9846 241.122 86.2047 239.448C85.5397 238.865 85.1613 238.325 84.9951 237.444C84.9587 235.663 85.4692 234.412 86.3192 232.868C86.3836 232.75 86.448 232.632 86.5143 232.511C87.5687 230.6 88.81 228.84 90.0943 227.08C90.9422 225.917 91.7602 224.733 92.5769 223.548C93.1766 222.68 93.7853 221.823 94.4164 220.978C94.5395 220.812 94.6626 220.646 94.7894 220.475C95.0234 220.16 95.2597 219.848 95.4988 219.537C95.9599 218.915 96.2659 218.46 96.4316 217.696C96.2414 216.865 95.7859 216.339 95.2514 215.703C93.9483 214.07 92.7738 212.363 91.6189 210.623C91.4216 210.326 91.2237 210.029 91.0251 209.733C87.5077 204.479 87.5077 204.479 87.9479 201.942C88.1946 201.295 88.5246 200.87 89.1098 200.484C92.1296 199.319 96.228 201.047 99.1052 201.943C99.2822 201.998 99.4592 202.053 99.6415 202.11C100.541 202.39 101.439 202.674 102.335 202.963C102.505 203.017 102.674 203.071 102.849 203.127C103.17 203.228 103.49 203.332 103.809 203.437C104.651 203.703 105.377 203.874 106.27 203.785C106.926 203.272 107.329 202.629 107.772 201.929C109.707 198.962 111.898 196.164 114.04 193.346C114.643 192.553 115.241 191.755 115.835 190.954C116.226 190.427 116.618 189.901 117.012 189.376C117.234 189.079 117.455 188.781 117.676 188.483C119.411 186.21 121.483 183.68 124.313 182.895C125.344 182.895 126.047 183.245 126.883 183.829C129.069 186.893 128.271 192.533 128.255 196.09C128.241 199.531 128.298 202.97 128.359 206.409C128.362 206.548 128.364 206.686 128.367 206.829C128.397 208.545 128.428 210.261 128.461 211.978C128.623 212.031 128.623 212.031 128.789 212.085C129.989 212.483 131.176 212.91 132.361 213.351C132.557 213.423 132.754 213.496 132.956 213.571C133.595 213.808 134.235 214.045 134.874 214.282C135.771 214.614 136.667 214.946 137.564 215.279C137.903 215.404 137.903 215.404 138.249 215.532C139.74 216.084 141.232 216.632 142.725 217.176C143.108 217.316 143.49 217.456 143.872 217.595C144.413 217.793 144.954 217.99 145.495 218.186C145.991 218.366 146.486 218.547 146.981 218.728C147.124 218.78 147.266 218.831 147.413 218.884C148.72 219.364 150.071 219.869 151.046 220.9C151.161 221.018 151.276 221.137 151.395 221.259C152.015 222.039 151.937 222.735 151.669 223.652ZM146.173 222.013C143.121 220.784 140.026 219.686 136.922 218.596C136.186 218.336 135.449 218.077 134.713 217.817C134.259 217.657 133.805 217.497 133.351 217.338C133.142 217.264 132.934 217.191 132.72 217.116C132.519 217.046 132.319 216.976 132.112 216.904C131.705 216.757 131.3 216.603 130.898 216.444C130.701 216.367 130.505 216.29 130.303 216.211C130.042 216.105 130.042 216.105 129.777 215.997C129.198 215.849 128.828 215.915 128.257 216.074C128.059 216.936 127.993 217.791 127.945 218.672C127.936 218.824 127.927 218.975 127.918 219.131C127.9 219.451 127.882 219.771 127.864 220.092C127.838 220.572 127.81 221.053 127.781 221.534C127.394 224.526 127.394 224.526 127.85 227.338C128.929 227.219 129.946 227.04 130.999 226.766C131.141 226.729 131.283 226.693 131.43 226.655C131.895 226.535 132.36 226.413 132.824 226.291C133.151 226.206 133.477 226.121 133.804 226.036C134.486 225.858 135.169 225.68 135.851 225.501C136.72 225.272 137.591 225.046 138.461 224.821C139.135 224.646 139.809 224.47 140.482 224.293C140.803 224.209 141.123 224.126 141.444 224.043C143.082 223.62 144.65 223.183 146.173 222.423C146.173 222.288 146.173 222.153 146.173 222.013ZM124.389 186.991C123.452 187.168 122.959 187.731 122.315 188.399C122.198 188.519 122.08 188.64 121.959 188.764C120.935 189.826 120.001 190.945 119.096 192.111C118.924 192.327 118.752 192.543 118.579 192.759C117.053 194.677 115.623 196.662 114.21 198.665C114.087 198.839 113.964 199.013 113.838 199.193C111.82 202.059 111.82 202.059 109.935 205.014C110.391 205.737 110.758 205.981 111.56 206.249C111.767 206.319 111.974 206.389 112.187 206.462C112.411 206.535 112.635 206.608 112.865 206.684C113.213 206.801 113.213 206.801 113.568 206.921C114.311 207.171 115.056 207.418 115.801 207.664C116.536 207.91 117.27 208.156 118.005 208.403C118.477 208.562 118.95 208.719 119.422 208.876C120.86 209.355 122.285 209.856 123.697 210.405C124.209 210.6 124.209 210.6 124.796 210.339C125.042 209.598 125.03 208.919 125.03 208.147C125.031 207.906 125.031 207.906 125.032 207.66C125.034 207.127 125.034 206.593 125.034 206.06C125.035 205.686 125.036 205.312 125.036 204.938C125.037 204.15 125.038 203.363 125.038 202.576C125.038 201.776 125.039 200.977 125.042 200.177C125.194 193.546 125.194 193.546 124.389 186.991ZM124.356 214.151C124.004 213.973 124.004 213.973 123.575 213.821C123.387 213.747 123.199 213.673 123.005 213.597C122.29 213.329 121.569 213.081 120.846 212.836C120.577 212.743 120.308 212.651 120.038 212.558C119.33 212.314 118.621 212.072 117.912 211.831C117.201 211.588 116.49 211.343 115.78 211.099C113.841 210.433 113.841 210.433 111.9 209.774C111.371 209.593 110.846 209.407 110.321 209.215C110.183 209.165 110.045 209.116 109.902 209.065C109.516 208.927 109.131 208.786 108.746 208.644C108.128 208.445 108.128 208.445 107.636 208.643C107.107 209.042 106.757 209.527 106.359 210.058C106.272 210.174 106.185 210.29 106.095 210.41C105.206 211.607 104.367 212.84 103.534 214.077C102.989 214.886 102.42 215.676 101.841 216.46C101.536 216.982 101.401 217.308 101.384 217.917C101.636 218.377 101.879 218.738 102.199 219.146C102.295 219.275 102.392 219.404 102.491 219.536C102.827 219.981 103.167 220.422 103.509 220.861C103.634 221.023 103.759 221.184 103.888 221.35C104.825 222.554 105.778 223.744 106.74 224.928C107.459 225.813 108.166 226.706 108.866 227.607C110.441 229.693 110.441 229.693 112.174 231.639C113.62 231.695 115.06 231.249 116.436 230.854C116.741 230.768 116.741 230.768 117.053 230.68C117.479 230.559 117.905 230.438 118.331 230.315C118.984 230.128 119.638 229.945 120.292 229.763C120.707 229.644 121.123 229.526 121.538 229.407C121.831 229.326 121.831 229.326 122.13 229.242C122.311 229.19 122.492 229.137 122.678 229.083C122.837 229.038 122.996 228.992 123.16 228.946C123.628 228.75 123.868 228.553 124.186 228.158C124.381 227.567 124.427 227.148 124.45 226.532C124.458 226.326 124.466 226.12 124.474 225.908C124.482 225.685 124.49 225.462 124.498 225.233C124.507 225.003 124.516 224.772 124.525 224.535C124.543 224.047 124.561 223.559 124.579 223.07C124.605 222.329 124.633 221.588 124.662 220.847C124.679 220.372 124.697 219.896 124.715 219.421C124.727 219.092 124.727 219.092 124.74 218.756C124.754 218.338 124.767 217.919 124.777 217.5C124.79 217.088 124.813 216.675 124.844 216.264C124.936 215.1 124.936 215.1 124.356 214.151ZM123.779 232.663C123.711 232.596 123.644 232.528 123.575 232.459C122.05 232.593 120.625 233.002 119.161 233.433C118.725 233.56 118.289 233.684 117.853 233.807C117.574 233.888 117.296 233.969 117.018 234.051C116.767 234.123 116.516 234.196 116.258 234.271C115.679 234.49 115.402 234.641 115.024 235.121C115.165 235.287 115.305 235.453 115.45 235.624C115.643 235.853 115.836 236.082 116.03 236.312C116.131 236.432 116.233 236.552 116.338 236.677C116.975 237.434 117.6 238.2 118.218 238.974C118.893 239.81 119.605 240.575 120.376 241.322C120.725 241.675 120.725 241.675 121.183 242.277C121.57 242.735 121.767 242.841 122.353 242.904C122.833 242.116 122.934 241.256 123.075 240.36C123.102 240.192 123.129 240.024 123.157 239.852C123.213 239.497 123.269 239.142 123.324 238.788C123.409 238.249 123.497 237.711 123.586 237.172C123.64 236.827 123.695 236.481 123.749 236.136C123.776 235.976 123.802 235.817 123.829 235.653C123.988 234.603 123.967 233.711 123.779 232.663ZM107.148 230.795C106.903 230.498 106.659 230.201 106.414 229.903C106.226 229.674 106.226 229.674 106.033 229.439C105.45 228.718 104.893 227.978 104.336 227.236C102.732 225.106 101.052 223.04 99.3485 220.989C98.8441 221.067 98.5882 221.139 98.2254 221.51C98.1284 221.645 98.0314 221.781 97.9314 221.921C97.8202 222.075 97.7089 222.229 97.5943 222.387C97.4762 222.555 97.3581 222.723 97.2364 222.897C97.1113 223.071 96.9862 223.246 96.8574 223.426C96.4637 223.977 96.0735 224.531 95.6841 225.085C95.5646 225.255 95.4452 225.424 95.3221 225.598C94.6109 226.607 93.907 227.621 93.2079 228.638C92.9485 229.015 92.6886 229.392 92.4281 229.768C92.0148 230.365 91.6034 230.964 91.1925 231.563C91.0664 231.744 90.9403 231.926 90.8104 232.114C89.3396 234.049 89.3396 234.049 88.8258 236.294C88.9228 236.749 88.9228 236.749 89.1694 236.964C93.8775 237.314 98.4108 235.975 102.899 234.711C103.582 234.519 104.265 234.33 104.949 234.142C105.338 234.033 105.728 233.925 106.118 233.815C106.295 233.767 106.472 233.718 106.654 233.668C107.564 233.424 107.564 233.424 108.306 232.868C108.306 231.95 107.713 231.465 107.148 230.795ZM103.827 207.267C97.9811 204.913 97.9811 204.913 91.816 203.785C91.9136 204.867 92.321 205.631 92.8975 206.525C93.0323 206.737 93.0323 206.737 93.1699 206.955C94.1987 208.553 95.3415 210.062 96.4984 211.568C96.701 211.834 96.9035 212.1 97.106 212.366C97.5805 212.989 98.0568 213.61 98.5342 214.231C99.119 214.162 99.4593 214.117 99.888 213.697C99.9845 213.556 100.081 213.416 100.18 213.271C100.289 213.116 100.398 212.961 100.511 212.801C100.623 212.635 100.735 212.469 100.85 212.298C100.966 212.13 101.082 211.962 101.202 211.79C101.432 211.457 101.661 211.124 101.889 210.79C102.147 210.414 102.411 210.043 102.681 209.675C102.807 209.501 102.934 209.328 103.064 209.149C103.17 209.004 103.276 208.859 103.385 208.71C103.658 208.231 103.748 207.81 103.827 207.267Z" fill="#94C5E8"/>
</g>
<defs>
<clipPath id="clip0_610_6004">
<rect width="247" height="250" fill="white" transform="translate(250 6.10352e-05) rotate(90)"/>
</clipPath>
</defs>
</svg>
