<svg width="425" height="426" viewBox="0 0 425 426" fill="none" xmlns="http://www.w3.org/2000/svg">
<path d="M320.662 216.431C320.662 218.98 318.563 221.079 316.014 221.079C313.466 221.079 311.367 218.98 311.367 216.431C311.367 213.883 313.466 211.784 316.014 211.784C318.563 211.784 320.662 213.883 320.662 216.431Z" fill="#94C5E8"/>
<path d="M111.384 216.431C111.384 218.98 109.286 221.079 106.737 221.079C104.189 221.079 102.09 218.98 102.09 216.431C102.09 213.883 104.189 211.784 106.737 211.784C109.286 211.784 111.384 213.883 111.384 216.431Z" fill="#94C5E8"/>
<path d="M272.99 244.465C260.697 244.465 255.75 250.312 243.307 250.312C240.159 250.312 234.013 248.513 235.362 243.565L234.762 243.416C229.665 249.862 234.462 261.255 246.005 261.255C255.9 261.255 261.147 255.409 273.289 255.409C279.286 255.409 285.882 259.906 285.882 266.502C285.882 282.093 271.49 292.587 251.252 292.587C236.711 292.587 222.919 284.192 216.173 271.299C214.674 266.352 215.124 261.255 215.274 256.158C215.274 252.71 215.124 248.962 216.173 245.664C217.222 242.516 219.471 239.668 221.87 237.419C226.967 232.622 234.162 229.174 241.358 229.174H241.658C252.602 229.174 255.3 231.573 265.494 231.573C270.891 231.573 276.737 229.174 276.737 223.777C276.737 204.289 220.071 221.229 220.071 175.056C220.071 157.066 230.714 140.126 248.854 140.126C266.993 140.126 277.787 157.366 277.787 175.356C277.787 193.345 265.194 205.638 250.053 205.638V206.837C252.302 207.287 254.55 207.437 256.799 207.437C276.288 207.437 289.18 192.446 289.18 175.356C289.18 156.317 274.039 138.477 248.704 138.477H173.598C148.263 138.477 133.122 156.317 133.122 175.356C133.122 192.446 146.014 207.437 165.653 207.437C167.752 207.437 170 207.287 172.399 206.837V205.638C157.258 205.638 144.665 193.495 144.665 175.356C144.665 157.216 155.459 140.126 173.598 140.126C191.737 140.126 202.381 156.916 202.381 175.056C202.381 221.229 145.714 204.289 145.714 223.777C145.714 229.174 151.561 231.573 156.958 231.573C167.302 231.573 169.85 229.174 180.944 229.174H181.244C188.739 229.174 196.684 232.772 201.931 238.019C204.18 240.267 206.129 242.966 207.028 246.114C207.928 249.262 207.628 253.01 207.628 256.158C207.628 261.255 207.478 266.352 206.279 271.299C199.533 284.342 185.741 292.587 171.05 292.587C150.811 292.587 136.42 282.243 136.42 266.502C136.42 259.906 143.016 255.409 149.013 255.409C161.155 255.409 166.402 261.255 176.296 261.255C187.84 261.255 192.637 249.712 187.54 243.416L186.94 243.565C188.289 248.513 182.143 250.312 178.845 250.312C166.402 250.312 161.455 244.465 149.162 244.465C138.669 244.465 128.475 252.41 128.475 264.103C128.475 283.892 146.164 294.086 170.75 294.086C188.589 294.086 202.531 287.939 210.926 278.195C219.471 287.939 233.263 294.086 251.102 294.086C275.538 294.086 293.378 283.892 293.378 264.103C293.677 252.41 283.483 244.465 272.99 244.465ZM185.291 140.126L208.528 142.525C208.677 142.525 208.827 142.525 209.127 142.525C209.877 142.525 210.626 142.675 211.376 142.675C212.275 142.675 213.175 142.675 214.224 142.525L237.46 140.126C224.718 143.274 215.723 151.52 211.376 161.714C207.028 151.52 198.034 143.274 185.291 140.126ZM211.376 231.573C205.979 226.925 198.933 224.077 191.288 224.077C178.545 224.077 169.85 230.523 157.258 230.523C152.76 230.523 147.513 228.274 147.513 223.777C147.513 209.236 198.783 220.779 211.376 190.946C223.968 220.779 275.238 209.236 275.238 223.777C275.238 228.125 269.991 230.523 265.494 230.523C252.752 230.523 244.057 224.077 231.464 224.077C223.819 223.927 216.623 226.775 211.376 231.573Z" fill="#94C5E8"/>
<path d="M123.977 106.246L121.428 108.795L102.689 89.756L110.185 82.4103C111.534 81.211 112.883 80.3115 114.233 79.8618C115.582 79.4121 117.081 79.2622 118.43 79.562C119.779 79.8618 120.979 80.6114 122.028 81.6608C123.077 82.7101 123.827 83.9094 123.977 85.4086C124.127 86.9077 124.127 88.107 123.677 89.6061C123.227 90.9553 122.328 92.3045 120.979 93.6537L115.732 98.7507L113.633 96.2022L118.88 91.1052C120.079 89.9059 120.679 88.7066 120.829 87.5073C120.979 86.308 120.529 85.1087 119.48 84.0593C118.43 83.01 117.381 82.5602 116.032 82.7101C114.832 82.8601 113.633 83.4597 112.434 84.659L107.487 89.4562L123.977 106.246Z" fill="#94C5E8"/>
<path d="M141.666 59.024L150.361 72.5161C152.31 75.5143 152.91 78.2128 152.31 80.9112C151.71 83.6096 150.061 85.8583 147.213 87.6572C144.365 89.4561 141.666 90.0558 138.968 89.4561C136.269 88.8565 134.021 87.0576 132.072 84.2092L123.377 70.7172L126.375 68.7683L135.07 82.2604C136.419 84.3591 138.068 85.7083 139.867 86.1581C141.666 86.6078 143.615 86.1581 145.564 84.9588C147.513 83.7595 148.712 82.1105 149.012 80.3115C149.312 78.5126 148.862 76.5637 147.513 74.3151L138.818 60.823L141.666 59.024Z" fill="#94C5E8"/>
<path d="M159.956 79.5619L150.512 54.6765L160.106 50.9288C161.755 50.3291 163.254 50.0293 164.603 50.1792C165.953 50.3291 167.302 50.6289 168.201 51.3785C169.101 52.128 170 53.1774 170.45 54.3767C170.9 55.576 171.05 56.7753 170.75 57.9746C170.45 59.1739 169.85 60.2233 168.801 61.2727C167.752 62.3221 166.552 63.0716 164.903 63.6713L158.907 65.9199L158.307 64.2709L164.903 61.7224C166.552 61.1228 168.201 60.8229 169.7 60.8229C171.2 60.8229 172.399 61.2727 173.598 62.0222C174.648 62.7718 175.547 63.8212 175.997 65.1704C176.596 66.5196 176.596 68.0187 176.297 69.3679C175.997 70.7171 175.247 71.9164 174.348 72.9658C173.298 74.0152 171.949 74.9146 170.3 75.5143L159.956 79.5619ZM162.205 75.3644L169.251 72.666C170.75 72.0663 171.949 71.1668 172.549 70.1175C173.148 69.0681 173.148 67.8688 172.699 66.5196C172.249 65.1704 171.349 64.2709 170.15 63.8212C168.951 63.3714 167.602 63.5213 166.103 64.121L158.757 66.9693L157.707 64.121L164.304 61.5725C165.803 60.9728 166.702 60.2233 167.302 59.1739C167.901 58.1245 167.901 57.0751 167.452 55.7259C167.002 54.5266 166.252 53.7771 165.053 53.4773C164.004 53.1774 162.655 53.1774 161.305 53.7771L155.009 56.1757L162.205 75.3644Z" fill="#94C5E8"/>
<path d="M199.082 68.6183L182.442 71.6166L177.645 45.382L181.093 44.7823L185.29 67.8688L198.332 65.4702L199.082 68.6183Z" fill="#94C5E8"/>
<path d="M206.128 68.4685L202.53 68.6184L201.031 42.084L204.629 41.9341L206.128 68.4685Z" fill="#94C5E8"/>
<path d="M210.025 63.5214L212.724 61.2727C213.323 62.1722 214.073 63.0716 214.972 63.6713C215.872 64.4209 216.771 64.8706 217.821 65.3203C218.87 65.7701 220.069 66.0699 221.269 66.0699C222.618 66.2198 223.817 66.0699 224.867 65.7701C225.916 65.4702 226.816 65.0205 227.415 64.2709C228.015 63.5214 228.465 62.7718 228.465 61.8724C228.614 60.6731 228.165 59.6237 227.115 58.7242C226.066 57.9746 224.267 57.2251 221.569 56.6254C219.17 56.0258 217.221 55.4261 215.872 54.6766C214.523 53.927 213.473 53.0276 212.874 52.1281C212.274 51.0787 211.974 50.0293 212.124 48.6801C212.274 47.181 212.724 45.8318 213.773 44.7824C214.673 43.5831 216.022 42.8336 217.521 42.3838C219.17 41.7842 220.819 41.6343 222.768 41.7842C225.017 41.9341 226.965 42.5337 228.614 43.5831C230.263 44.6325 231.763 45.9817 232.962 47.4808L230.263 49.7295C229.364 48.3803 228.315 47.3309 227.115 46.4314C225.916 45.532 224.417 45.0822 222.618 44.9323C220.819 44.7824 219.17 45.0822 217.971 45.8318C216.621 46.5813 216.022 47.6307 215.872 48.9799C215.872 49.7295 216.022 50.3291 216.472 50.9288C216.921 51.5284 217.521 51.9782 218.57 52.4279C219.62 52.8776 220.969 53.3274 222.618 53.6272C225.017 54.2268 226.965 54.8265 228.465 55.5761C229.964 56.3256 231.013 57.375 231.613 58.4244C232.212 59.4738 232.512 60.823 232.362 62.3221C232.212 63.9711 231.613 65.3203 230.713 66.5196C229.814 67.7189 228.315 68.4685 226.816 69.0681C225.166 69.6678 223.368 69.8177 221.269 69.6678C218.87 69.5179 216.622 68.9182 214.823 67.8688C212.874 66.5196 211.225 65.1704 210.025 63.5214Z" fill="#94C5E8"/>
<path d="M238.809 71.3167L235.361 70.2674L243.007 44.7823L246.455 45.8317L238.809 71.3167ZM241.957 59.4737L242.857 56.4755L257.548 60.9728L256.649 63.9711L241.957 59.4737ZM252.901 75.5143L260.547 50.0293L263.994 51.0786L256.349 76.5637L252.901 75.5143Z" fill="#94C5E8"/>
<path d="M263.994 80.6114L260.846 79.1122L272.239 55.1263L275.387 56.6255L263.994 80.6114Z" fill="#94C5E8"/>
<path d="M271.639 84.3592L268.791 82.4103L283.632 60.3733L286.78 62.4721L286.93 90.2057L286.031 89.6061L298.773 70.5673L301.622 72.5162L286.78 94.7031L283.632 92.6043L283.482 64.8706L284.382 65.4703L271.639 84.3592Z" fill="#94C5E8"/>
<path d="M307.17 115.541L304.921 112.992L307.769 110.294L307.919 110.744C306.27 111.043 304.771 110.894 303.122 110.144C301.473 109.544 299.974 108.495 298.775 106.996C297.425 105.647 296.376 103.998 295.776 102.349C295.177 100.7 294.877 98.9006 294.877 97.1017C294.877 95.3027 295.327 93.6537 296.076 92.0047C296.826 90.3557 298.025 88.8565 299.374 87.5073C300.873 86.1581 302.373 85.1087 304.171 84.5091C305.97 83.9094 307.619 83.6096 309.418 83.6096C311.217 83.6096 312.866 84.0594 314.515 84.8089C316.164 85.5585 317.664 86.6079 319.013 88.107C320.662 89.756 321.711 91.5549 322.311 93.6537C322.91 95.6026 323.06 97.5514 322.761 99.5003L319.313 99.3504C319.612 97.8512 319.612 96.2022 319.163 94.7031C318.713 93.204 317.963 91.7049 316.614 90.3557C315.265 89.0064 313.766 87.9571 311.967 87.5073C310.318 87.0576 308.519 87.0576 306.72 87.5073C304.921 87.9571 303.272 88.8565 301.773 90.3557C300.274 91.8548 299.224 93.3539 298.625 95.1528C298.025 96.9518 297.875 98.6008 298.325 100.4C298.625 102.199 299.524 103.848 301.023 105.197C302.373 106.696 303.872 107.596 305.521 108.195C307.17 108.645 308.819 108.645 310.318 108.195L309.119 108.945L312.866 105.497L307.02 99.2004L309.268 97.1017L317.514 105.797L307.17 115.541Z" fill="#94C5E8"/>
<path d="M147.513 364.394L144.365 362.595L157.557 339.509L160.706 341.308C160.706 341.158 147.513 364.394 147.513 364.394ZM153.21 353.601L154.709 350.902L168.051 358.548L166.552 361.246L153.21 353.601ZM160.256 371.59L173.448 348.504L176.596 350.303L163.404 373.389L160.256 371.59Z" fill="#94C5E8"/>
<path d="M185.741 381.035C183.792 380.585 181.993 379.835 180.644 378.786C179.145 377.736 177.946 376.387 177.046 374.888C176.147 373.389 175.397 371.74 175.247 369.941C175.097 368.142 174.948 366.193 175.547 364.244C176.147 362.296 176.746 360.647 177.796 359.147C178.845 357.648 180.194 356.449 181.694 355.55C183.193 354.65 184.842 354.05 186.641 353.751C188.44 353.451 190.388 353.601 192.337 353.9C194.286 354.35 196.085 355.1 197.434 356.149C198.933 357.199 200.133 358.548 201.032 360.047C201.932 361.546 202.681 363.195 202.831 364.994C202.981 366.793 202.981 368.592 202.681 370.541C202.231 372.49 201.482 374.139 200.433 375.638C199.383 377.137 198.034 378.336 196.535 379.236C195.036 380.135 193.387 380.735 191.588 381.035C189.639 381.484 187.69 381.484 185.741 381.035ZM186.491 377.886C188.44 378.336 190.239 378.336 192.037 377.736C193.687 377.137 195.186 376.237 196.385 374.888C197.584 373.539 198.484 371.74 198.933 369.791C199.383 367.842 199.383 365.893 198.933 364.094C198.484 362.296 197.584 360.796 196.235 359.597C194.886 358.398 193.387 357.498 191.288 357.049C189.339 356.599 187.54 356.599 185.741 357.199C183.942 357.798 182.593 358.698 181.394 360.047C180.194 361.396 179.445 363.195 178.845 365.144C178.396 367.093 178.396 369.042 178.845 370.841C179.295 372.639 180.194 374.139 181.544 375.338C182.893 376.687 184.542 377.437 186.491 377.886Z" fill="#94C5E8"/>
<path d="M229.066 356.149L229.965 372.19C230.115 375.638 229.366 378.486 227.567 380.585C225.768 382.684 223.219 383.733 219.771 383.883C216.473 384.033 213.625 383.283 211.676 381.484C209.577 379.685 208.528 376.987 208.378 373.539L207.479 357.498L211.076 357.348L211.976 373.389C212.126 375.938 212.875 377.886 214.225 379.086C215.574 380.285 217.373 380.885 219.771 380.885C222.17 380.735 223.819 379.985 225.018 378.486C226.218 376.987 226.667 375.038 226.667 372.49L225.768 356.449L229.066 356.149Z" fill="#94C5E8"/>
<path d="M237.311 377.137L238.96 373.989C239.859 374.588 240.909 375.038 241.958 375.338C243.007 375.638 244.207 375.788 245.256 375.788C246.455 375.788 247.505 375.638 248.704 375.188C250.053 374.738 251.103 374.139 252.002 373.539C252.902 372.939 253.501 372.04 253.801 371.14C254.101 370.241 254.101 369.341 253.951 368.442C253.501 367.243 252.752 366.493 251.402 366.043C250.053 365.743 248.104 365.744 245.556 366.193C243.157 366.643 241.058 366.793 239.559 366.493C237.91 366.343 236.711 365.893 235.812 365.144C234.912 364.394 234.163 363.495 233.863 362.146C233.413 360.646 233.413 359.297 233.863 357.798C234.312 356.449 235.212 355.1 236.411 354.05C237.61 353.001 239.26 352.102 241.058 351.502C243.157 350.752 245.256 350.602 247.205 350.902C249.154 351.202 250.953 351.802 252.602 352.851L250.953 355.999C249.603 355.1 248.104 354.5 246.755 354.2C245.406 353.9 243.757 354.05 241.958 354.5C240.159 355.1 238.81 355.999 237.91 357.049C237.011 358.248 236.711 359.447 237.161 360.796C237.311 361.546 237.76 361.996 238.36 362.296C238.96 362.595 239.709 362.895 240.909 362.895C241.958 362.895 243.307 362.745 245.106 362.595C247.505 362.146 249.603 361.996 251.252 362.296C252.902 362.595 254.251 362.895 255.3 363.795C256.349 364.694 256.949 365.594 257.399 367.093C257.849 368.592 257.849 370.091 257.399 371.59C256.949 373.089 256.05 374.288 254.7 375.488C253.351 376.687 251.702 377.587 249.753 378.186C247.355 378.936 245.256 379.236 243.157 378.936C241.058 378.636 239.11 378.186 237.311 377.137Z" fill="#94C5E8"/>
<path d="M283.034 361.096L267.743 370.391L253.951 347.604L269.242 338.31L270.891 341.008L258.598 348.504L269.242 365.893L281.535 358.398L283.034 361.096ZM276.138 351.202L264.145 358.548L262.496 355.849L274.489 348.504L276.138 351.202Z" fill="#94C5E8"/>
</svg>
